<svg xmlns:dc="http://purl.org/dc/elements/1.1/" xmlns:cc="http://creativecommons.org/ns#" xmlns:rdf="http://www.w3.org/1999/02/22-rdf-syntax-ns#" xmlns:svg="http://www.w3.org/2000/svg" xmlns="http://www.w3.org/2000/svg" viewBox="0 0 400 400" fill="none"><metadata><rdf:RDF><cc:Work><dc:format>image/svg+xml</dc:format><dc:type rdf:resource="http://purl.org/dc/dcmitype/StillImage"/><dc:title>Adventurer Neutral</dc:title><dc:creator><cc:Agent><dc:title>Lisa Wischofsky</dc:title></cc:Agent></dc:creator><dc:source>https://www.instagram.com/lischis_adventures/</dc:source><cc:license rdf:resource="https://creativecommons.org/licenses/by/4.0/"/></cc:Work><cc:License rdf:about="https://creativecommons.org/licenses/by/4.0/"><cc:permits rdf:resource="https://creativecommons.org/ns#Reproduction"/><cc:permits rdf:resource="https://creativecommons.org/ns#Distribution"/><cc:permits rdf:resource="https://creativecommons.org/ns#DerivativeWorks"/><cc:requires rdf:resource="https://creativecommons.org/ns#Notice"/><cc:requires rdf:resource="https://creativecommons.org/ns#Attribution"/></cc:License></rdf:RDF></metadata><mask id="avatarsRadiusMask"><rect width="400" height="400" rx="0" ry="0" x="0" y="0" fill="#fff"/></mask><g mask="url(#avatarsRadiusMask)"><rect fill="rgba(236, 173, 128, 1)" width="400" height="400" x="0" y="0"/><g transform="translate(-279 -322)"><path d="M617.23 468.82c1.16 1.34 2.37 2.36 2.84 4.14 4.46 17.23 1.58 36.09-7.98 51.11-8.01 12.77-20.52 22.56-34.83 27.28-11.68 3.74-24.33 4.31-36.24 1.27-17.06-4.16-32.11-15.59-40.77-30.86-7.18-12.23-9.85-26.73-8.06-40.75.53-3.41 1.75-7.26 5.57-8.09 8.61-1.53 17.56-1.34 26.27-2.27 24.31-1.49 48.65-2.37 73.01-2.08 6.75-.37 13.45.4 20.19.25Z" fill="#000"/><path d="M607.09 474.28c2.48.12 4.97.24 7.45.37 3.8 14.15 1.78 29.85-5.17 42.73-6.79 12.81-18.41 23-32.1 27.84-14.68 5.57-31.38 4.73-45.56-1.92-13.38-6.21-24.24-17.42-29.82-31.09-4.19-10.23-5.98-22.11-3.62-32.99 1.86-.72 3.69-1.32 5.7-1.4 16.9-1.37 33.84-2.38 50.78-3.11-.41 5.34-.18 10.53 2.09 15.47 3.42 7.65 10.45 13.28 18.62 15.04 4.89.87 9.94.6 14.61-1.13 8.19-2.81 14.36-9.94 16.48-18.26.92-3.9.66-7.59.54-11.55Z" fill="#fff"/><path d="M432.03 480.67c2.01-.23 3.79.3 5.74.68 4.2 9.05 4.82 19.93 3.38 29.69-2.48 14.77-11.15 28.19-23.63 36.48-10.93 7.31-24.46 10.57-37.51 8.79-15.32-1.77-29.51-10.46-38.25-23.14-6.82-9.71-10.02-21.43-10.01-33.24 6.53-3.27 13.18-3.72 20.49-5.47 20.5-4.17 41.07-8.1 61.75-11.22 6-.99 11.97-2.04 18.04-2.57Z" fill="#000"/><path d="M433.71 486.06c1.44 5.27 2.74 10.43 2.6 15.94-.2 9.49-3.01 19.08-8.31 26.99-9.89 15.07-28.07 23.78-46.01 21.88-12.38-1.34-24.01-7.28-32.17-16.71-7.5-8.47-11.57-19.33-12.24-30.58 14.45-3.54 29.14-6.22 43.76-9.01 1.32 6.49 4.55 12.28 10.11 16.03 9.04 6.32 21.92 5.38 29.9-2.26 6.12-5.72 8.04-13.57 7.2-21.73 1.72-.19 3.44-.38 5.16-.55Z" fill="#fff"/></g><g transform="translate(-279 -322)"><g fill="#000"><path d="M545.03 378.5c24.7.94 48.04 8.97 69.45 20.99 2.26 1.32 4.92 2.49 6.79 4.33 1.3 2.39-.38 5.13-3.2 4.19-16.58-6.21-33.56-9.63-51.06-12.02-20.3-2.34-39.92-3.68-60.2-.13-3.2.44-6.87 2.16-10.08 1.59-2.66-1.69-1.2-6.1 1.29-7.37 13.63-9.33 30.79-12.1 47.01-11.58ZM407.99 396.92c3.51.64 6.6 1.92 9.63 3.78-.15 1.2-.26 2.4-.33 3.62-2.7.74-5.46 1.12-8.24 1.34-13.17 1.15-26.45 5.11-38.81 9.69-12.23 4.75-24.78 10.64-35.19 18.71-2.82 2.03-4.13 4.82-8.08 4.47-.5-.9-1-1.79-1.51-2.67.89-1.59 1.68-3.17 2.76-4.64 9.55-13.17 23.64-23.22 38.61-29.35 12.7-5.15 27.61-8.05 41.16-4.95Z"/></g></g><g transform="translate(-279 -322)"><path d="M462.23 552.76c5.89 1.34 11.98 4.52 15.69 9.38 1.25 2.25.03 5.01-2.77 4.63-2.26-1.24-3.96-3.38-6.13-4.8-4.31-2.87-9.86-4.48-15.03-3.68-2.57.46-5.36 1.6-6.83 3.87-1.53 2.09-1.29 4.76-.4 7.05 1.72 4.44 6 7.87 10.25 9.73 2.3 1.06 5.25 1.28 7.29 2.75 1.69 1.8.58 4.36-1.73 4.78-4.61 1.03-8.66 2.66-11.62 6.51-5.51 6.68-4.73 16.7 1.35 22.74 6.13 6.67 17.21 7.51 24.26 1.85 2.43-1.87 3.59-4.35 5.54-6.58 2.97-1.44 5.07 1.04 3.97 3.91-4.62 9.77-16.97 14.49-27.13 11.4-8.93-2.41-15.86-10.12-17.26-19.27-1.55-9.44 3.19-18.64 11.31-23.48-5.73-2.95-10.81-7.86-12.37-14.28-1.54-5.3.79-11.27 5.45-14.2 4.69-3.25 10.76-3.16 16.16-2.31Z" fill="#000"/></g><g transform="translate(-279 -322)"/></g></svg>