<svg xmlns:dc="http://purl.org/dc/elements/1.1/" xmlns:cc="http://creativecommons.org/ns#" xmlns:rdf="http://www.w3.org/1999/02/22-rdf-syntax-ns#" xmlns:svg="http://www.w3.org/2000/svg" xmlns="http://www.w3.org/2000/svg" viewBox="0 0 400 400" fill="none"><metadata><rdf:RDF><cc:Work><dc:format>image/svg+xml</dc:format><dc:type rdf:resource="http://purl.org/dc/dcmitype/StillImage"/><dc:title>Adventurer Neutral</dc:title><dc:creator><cc:Agent><dc:title>Lisa Wischofsky</dc:title></cc:Agent></dc:creator><dc:source>https://www.instagram.com/lischis_adventures/</dc:source><cc:license rdf:resource="https://creativecommons.org/licenses/by/4.0/"/></cc:Work><cc:License rdf:about="https://creativecommons.org/licenses/by/4.0/"><cc:permits rdf:resource="https://creativecommons.org/ns#Reproduction"/><cc:permits rdf:resource="https://creativecommons.org/ns#Distribution"/><cc:permits rdf:resource="https://creativecommons.org/ns#DerivativeWorks"/><cc:requires rdf:resource="https://creativecommons.org/ns#Notice"/><cc:requires rdf:resource="https://creativecommons.org/ns#Attribution"/></cc:License></rdf:RDF></metadata><mask id="avatarsRadiusMask"><rect width="400" height="400" rx="0" ry="0" x="0" y="0" fill="#fff"/></mask><g mask="url(#avatarsRadiusMask)"><rect fill="rgba(158, 86, 34, 1)" width="400" height="400" x="0" y="0"/><g transform="translate(-279 -322)"><g fill="#000"><path d="M619.37 468.64c3.87 2.59 8.11 5.27 11.16 8.82.29 1.66.07 3.43.04 5.12-1.93.6-3.41 1.04-5.39.26-29.11-10.45-62.11-9.7-91.33-.07-12.55 4.26-25.01 10.37-35.3 18.8-1.32 1.05-3.89 2.91-5.29 1.13-1.71-1.56-.64-3.53.19-5.23 7.13-12.76 17.99-23.13 30.66-30.34 29.02-16.58 66.88-16.42 95.26 1.51ZM405.49 480.39c11.64 2.56 23.55 8.63 31.21 17.94 2.79 3.9 6.46 8.06 5.87 13.18-1.58-.03-3.27.69-4.53-.5-4.31-3.48-8.75-6.1-13.92-8.1-15.2-5.93-32.51-7.16-48.6-5.04-12.43 1.78-26.06 5.7-35.99 13.69-1.91 1.29-3.18 2.8-5.68 1.81-1.2-1.87-1.02-4.43.33-6.17 16.01-21.77 45.05-31.82 71.31-26.81Z"/></g></g><g transform="translate(-279 -322)"><g fill="#000"><path d="M530.96 352.34c21.47-3.31 42.8 3.14 60.6 15.09 12.06 8.19 22.9 19.68 28.97 33.03 1.1 2.96-.3 3.73-2.51 5.27-3.95-2.26-6.87-5.58-10.47-8.29-12.99-9.78-28.03-16.38-43.78-20.25-14.93-3.51-30.56-5.05-45.8-2.8-4.78.41-9.28 1.92-13.97 2.67-2.41.2-5.1-1.21-4.21-4.04 1.9-4.15 4.23-8.5 7.6-11.65 6.04-5.62 15.64-7.85 23.57-9.03ZM383 428.83c13.38-.82 26.33-.61 39.03 4.23 5.85 2.37 11.52 5.91 13.93 12.05 1.38 4.31.91 8.87-1.73 12.61-4.9-.76-9.4-2.6-14.18-3.82-23.13-6.33-47.19-8.01-71.04-5.96-4.88.33-9.86 2.03-14.72 1.78-1.78-.48-1.17-2.2-.97-3.54.88-2.51 3.58-3.86 5.76-5.09 13.75-7.25 28.55-10.65 43.92-12.26Z"/></g></g><g transform="translate(-279 -322)"><path d="M495.999 576.26c3.08-.09 6.12-.07 9.17.33.43.8.85 1.6 1.28 2.39-.42.82-.84 1.64-1.25 2.47-7.68.86-15.48.06-23.2.66-28.03.19-55.98.31-84.04.55-1.67.13-4.56-.53-4.37-2.68-.53-1.67 1.85-3.31 3.35-3.17 33.02-.15 66.04-.35 99.06-.55Z" fill="#000"/></g><g transform="translate(-279 -322)"/></g></svg>