<svg xmlns:dc="http://purl.org/dc/elements/1.1/" xmlns:cc="http://creativecommons.org/ns#" xmlns:rdf="http://www.w3.org/1999/02/22-rdf-syntax-ns#" xmlns:svg="http://www.w3.org/2000/svg" xmlns="http://www.w3.org/2000/svg" viewBox="0 0 400 400" fill="none"><metadata><rdf:RDF><cc:Work><dc:format>image/svg+xml</dc:format><dc:type rdf:resource="http://purl.org/dc/dcmitype/StillImage"/><dc:title>Adventurer Neutral</dc:title><dc:creator><cc:Agent><dc:title>Lisa Wischofsky</dc:title></cc:Agent></dc:creator><dc:source>https://www.instagram.com/lischis_adventures/</dc:source><cc:license rdf:resource="https://creativecommons.org/licenses/by/4.0/"/></cc:Work><cc:License rdf:about="https://creativecommons.org/licenses/by/4.0/"><cc:permits rdf:resource="https://creativecommons.org/ns#Reproduction"/><cc:permits rdf:resource="https://creativecommons.org/ns#Distribution"/><cc:permits rdf:resource="https://creativecommons.org/ns#DerivativeWorks"/><cc:requires rdf:resource="https://creativecommons.org/ns#Notice"/><cc:requires rdf:resource="https://creativecommons.org/ns#Attribution"/></cc:License></rdf:RDF></metadata><mask id="avatarsRadiusMask"><rect width="400" height="400" rx="0" ry="0" x="0" y="0" fill="#fff"/></mask><g mask="url(#avatarsRadiusMask)"><rect fill="rgba(236, 173, 128, 1)" width="400" height="400" x="0" y="0"/><g transform="translate(-279 -322)"><path d="M554.99 424.09c15.56-.47 31.18 4.79 43.19 14.7 9.2 7.44 16.2 17.65 20.32 28.71 2.1 5.56 2.58 11.13 3.64 16.92-1.32 1.48-1.69 3.34-4.05 3.02-7.04-.31-13.96-2.04-21.03-2.22-8.77-.09-17.381-.37-26.091.95-9.84 1.63-19.519 2.64-29.069 5.72-11.24 3.04-22.07 7.25-32.49 12.45-3.36 1.62-6.47 3.76-9.89 5.22-2.08.77-4.42.35-5.29-1.92-2.28-7.19-2.82-15.19-2.45-22.69.94-15.99 8.12-31.4 19.67-42.5 11.64-11.32 27.3-17.95 43.54-18.36Z" fill="#000"/><path d="M557 429.85c15.33-.23 30.41 6.15 41.39 16.75 9.87 9.5 15.83 22.19 17.69 35.7-14.89-2.86-29.99-3.76-45.11-2.49-5.99.69-11.93 1.87-17.87 2.88-.91-3.26-1.74-6.35-3.55-9.25-5.97-9.96-19.33-15.24-30.34-11.14-7.24 2.35-13.12 7.85-15.96 14.91-3.08 7.37-2.28 15.5 1.22 22.59-1.92.97-3.83 1.94-5.74 2.91-5.12-21.71 3.1-45.53 20.44-59.53 10.54-8.6 24.19-13.57 37.83-13.33Z" fill="#fff"/><path d="M411.45 452.57c13.11 6.46 23.28 18.27 27.77 32.17 3.17 9.49 3.14 19.25 1.59 29.04-.96.52-1.92 1.05-2.88 1.57-9.78-2.77-19.77-4.68-29.91-5.44-17.91-1.13-36.17-1.69-54.05.02-6.9.17-13.47 2.03-20.42 1.58-.89-2.44-1.7-4.84-1.7-7.47-.18-10.31 2.22-20.81 7.45-29.76 6.91-12.04 18.47-21.18 31.78-25.14 13.26-4.05 27.97-2.75 40.37 3.43Z" fill="#000"/><path d="M397.24 453.61c10.7 2.33 20.53 8.2 27.52 16.64 8.89 10.61 13 24.91 11.07 38.62-4.06-1.25-8.12-2.4-12.33-3.02-12.45-1.82-25.08-2.6-37.65-2.38-.06-3.82.07-7.39-1.47-10.98-3-7.74-10.12-13.39-18.35-14.5-10.08-1.52-20.42 4.34-24.35 13.74-2.23 4.9-1.78 9.64-1.96 14.85-1.73-1.26-1.94-1.37-1.99-3.52-.54-12.06 4.06-24.34 11.92-33.45 11.49-13.49 30.27-19.84 47.59-16Z" fill="#fff"/></g><g transform="translate(-279 -322)"><g fill="#000"><path d="M613.54 401.51c1.59 1.01 1.08 2.86 1.24 4.48-.06 11.34-.05 22.7-.12 34.04.32 2.75-2.42 4.22-4.62 5-39.99 13.74-80.12 27.25-120.05 41.12-2.53.2-2.84-1.75-3.51-3.66-1.63-6-3.3-11.98-5.01-17.95.97 5.75.98 11.66 1.36 17.47-.02 1.44.45 3.94-.99 4.85-1.95 1.4-4.07.13-4.6-2.03-3.64-12.73-7.02-25.58-10.66-38.32-.39-1.83-.65-3.91 1.36-4.88 2.11-.49 3.41.47 4 2.44 1.27 4.55 2.55 9.11 3.68 13.7-.73-5.24-.94-10.49-1.18-15.77-.01-1.27-.14-3.73 1.66-3.79 1.47-.26 2.98-.38 4.43-.72 41.23-11.74 82.37-23.44 123.6-35.22 3.27-.87 6.02-2.08 9.41-.76ZM324 433.87c13.64 1.39 27.36 1.44 41 2.58 21.04 1.05 42.11 2.67 63.14 3.42 7.79.78 15.61 1.12 23.44 1.68 2.77 2.19 1.08 8.08 1.91 11.33.56-2.97.18-6.91 1.92-9.46 2.15-1.8 5.08-.17 4.76 2.56-2.36 14.03-4.77 28.14-7.02 42.18-.8 2.93-4.48 2.56-5.29-.15-.27-4.92-.21-9.89-.28-14.83-1.03 4.29-1.47 8.69-2.47 12.98-.43 1.64-1.17 2.84-3.1 2.4-39.48-6.89-79.4-14.23-118.87-21.29-1.88-.2-2.83-1.46-3.09-3.26-1.45-7.98-2.5-16.04-4.12-23.99-.23-1.72-.74-3.14.56-4.58 2.12-2.29 4.72-1.68 7.51-1.57Z"/></g></g><g transform="translate(-279 -322)"><path d="M476.979 628.88c10.2-.52 20.43 4.48 27.46 11.67 5.06 5.1 8.39 11.32 10.89 18 .52 3.48 2.26 6.4-1.37 8.77-8.33.15-16.63.8-24.96 1-12.29.95-24.72.47-36.92 1.94-1.96-1.87-2.34-3.75-2.6-6.38-.98-8.6 1.23-17.86 6.72-24.66 5-6.28 12.77-10.08 20.78-10.34Z" fill="#000"/><path d="M484.479 635.49c12.63 3.09 22.12 13.94 25.51 26.24-18.28.41-36.54 1.67-54.78 2.21-.69-8.6 1.23-17 7.57-23.16 5.82-5.68 13.94-7.02 21.7-5.29Z" fill="#8F2E45"/></g><g transform="translate(-279 -322)"/></g></svg>