<svg width="10" height="10" viewBox="0 0 10 10" fill="none" xmlns="http://www.w3.org/2000/svg">
    <path
        d="M3.10474 7.31299C3.04514 7.25339 3.04514 7.15676 3.10474 7.09716L7.09763 3.10428C7.15723 3.04468 7.25386 3.04468 7.31346 3.10428V3.10428C7.37306 3.16388 7.37306 3.26051 7.31346 3.32011L3.32057 7.31299C3.26097 7.37259 3.16434 7.37259 3.10474 7.31299V7.31299Z"
        fill="#A4A4A4" />
    <path fill-rule="evenodd" clip-rule="evenodd"
        d="M2.89256 6.88503L6.88544 2.89215C7.0622 2.71539 7.34878 2.71539 7.52554 2.89215C7.7023 3.0689 7.7023 3.35548 7.52554 3.53224L3.53265 7.52513C3.3559 7.70188 3.06932 7.70188 2.89256 7.52513C2.7158 7.34837 2.7158 7.06179 2.89256 6.88503ZM3.10469 7.09716C3.04509 7.15676 3.04509 7.25339 3.10469 7.31299C3.16429 7.37259 3.26092 7.37259 3.32052 7.31299L7.31341 3.32011C7.37301 3.26051 7.37301 3.16388 7.31341 3.10428C7.25381 3.04468 7.15717 3.04468 7.09757 3.10428L3.10469 7.09716Z"
        fill="#A4A4A4" />
    <path
        d="M3.10449 3.10401C3.16409 3.04441 3.26072 3.04441 3.32032 3.10401L7.3132 7.09689C7.3728 7.15649 7.3728 7.25313 7.3132 7.31273V7.31273C7.2536 7.37233 7.15697 7.37233 7.09737 7.31273L3.10449 3.31984C3.04489 3.26024 3.04489 3.16361 3.10449 3.10401V3.10401Z"
        fill="#A4A4A4" />
    <path fill-rule="evenodd" clip-rule="evenodd"
        d="M3.53245 2.89183L7.52533 6.88471C7.70209 7.06147 7.70209 7.34805 7.52533 7.52481C7.34858 7.70156 7.062 7.70156 6.88524 7.52481L2.89235 3.53192C2.7156 3.35516 2.7156 3.06858 2.89235 2.89183C3.06911 2.71507 3.35569 2.71507 3.53245 2.89183ZM3.32032 3.10396C3.26072 3.04436 3.16409 3.04436 3.10449 3.10396C3.04489 3.16356 3.04489 3.26019 3.10449 3.31979L7.09737 7.31267C7.15697 7.37227 7.2536 7.37227 7.3132 7.31267C7.3728 7.25307 7.3728 7.15644 7.3132 7.09684L3.32032 3.10396Z"
        fill="#A4A4A4" />
</svg>