<svg width="12" height="11" viewBox="0 0 12 11" fill="none" xmlns="http://www.w3.org/2000/svg">
<path d="M6.1866 0.0219184C8.91792 -0.102973 11.6262 2.48445 11.5094 5.58773C11.4008 8.4806 8.96273 10.9146 6.05764 10.859C3.09555 10.8033 0.642507 8.32721 0.669657 5.42891C0.698165 2.35821 3.10368 0.00562819 6.1866 0.0219184ZM3.03581 6.92622C3.60869 8.18057 4.65125 8.77923 5.96397 8.82675C7.39207 8.87697 8.52832 8.28379 9.18129 6.94664C9.50128 6.48613 9.63558 5.92176 9.55732 5.36647H2.67607C2.62755 5.63728 2.63442 5.91509 2.69625 6.18317C2.75808 6.45125 2.87359 6.70402 3.03581 6.92622ZM8.54596 3.56233C8.89077 3.34513 9.1392 3.1931 9.38356 3.03563C9.51931 2.94468 9.63741 2.82248 9.54509 2.64601C9.43514 2.43695 9.27359 2.45866 9.08897 2.56726C8.7238 2.78989 8.34777 2.99489 7.98667 3.22567C7.69209 3.41436 7.65137 3.64516 7.9636 3.86101C8.3152 4.104 8.67764 4.33203 9.03603 4.56688C9.20164 4.67548 9.38491 4.72711 9.51659 4.5452C9.64827 4.3633 9.50438 4.21258 9.35098 4.10534C9.11206 3.93972 8.87312 3.78225 8.54325 3.56233H8.54596ZM3.62769 3.56233C3.29781 3.79311 3.06161 3.96007 2.82133 4.12297C2.67336 4.22342 2.58377 4.35649 2.66929 4.52346C2.78332 4.74202 2.96929 4.68361 3.13083 4.58179C3.49465 4.35373 3.85304 4.11753 4.20871 3.87725C4.51143 3.67362 4.52501 3.44696 4.20871 3.24469C3.84897 3.0112 3.47701 2.7994 3.11048 2.57541C2.93536 2.46817 2.76295 2.4288 2.6557 2.64601C2.63697 2.6813 2.62584 2.72009 2.62301 2.75995C2.62018 2.79981 2.62571 2.83982 2.63926 2.87741C2.65282 2.915 2.67409 2.94935 2.7017 2.97823C2.72932 3.00711 2.76266 3.02989 2.79961 3.04511C3.04939 3.189 3.29102 3.34648 3.62497 3.55689L3.62769 3.56233Z" fill="#FEDF7E"/>
<path d="M9.17868 6.94484C8.52571 8.28878 7.38948 8.87524 5.96137 8.82501C4.64866 8.77885 3.60607 8.18019 3.0332 6.92449C5.03151 6.2761 7.18472 6.28322 9.17868 6.94484V6.94484Z" fill="#ED6D7C"/>
<path d="M9.17893 6.9454C7.18482 6.28423 5.03161 6.27755 3.03345 6.92638C2.87105 6.704 2.75544 6.45106 2.69361 6.18273C2.63178 5.9144 2.625 5.63626 2.67371 5.36523H9.55224C9.63129 5.92017 9.49797 6.48451 9.17893 6.9454V6.9454Z" fill="#363B47"/>
<path d="M8.54364 3.56201C8.87216 3.78193 9.11245 3.9394 9.34865 4.10502C9.50205 4.21226 9.65952 4.34533 9.51427 4.54489C9.36901 4.74444 9.19933 4.68059 9.03372 4.56656C8.67533 4.33171 8.31287 4.10369 7.96128 3.86069C7.64905 3.64485 7.68976 3.41405 7.98434 3.22535C8.34544 2.99457 8.72147 2.78958 9.08664 2.56694C9.26719 2.45834 9.43283 2.4312 9.54278 2.64569C9.6351 2.82217 9.52377 2.94436 9.38123 3.03531C9.13688 3.19278 8.88845 3.34481 8.54364 3.56201Z" fill="#363B47"/>
<path d="M3.62535 3.55599C3.2914 3.34558 3.04977 3.1881 2.80134 3.03877C2.7644 3.02355 2.73105 3.00077 2.70344 2.97189C2.67583 2.94301 2.65455 2.90866 2.641 2.87107C2.62745 2.83348 2.62191 2.79354 2.62474 2.75368C2.62758 2.71382 2.63871 2.67496 2.65744 2.63967C2.76468 2.42247 2.9371 2.46183 3.11222 2.56908C3.47875 2.79307 3.85071 3.00486 4.21045 3.23836C4.52268 3.44063 4.50911 3.66729 4.21045 3.87091C3.85478 4.11119 3.49639 4.34746 3.13257 4.57552C2.97103 4.67734 2.78506 4.73569 2.67103 4.51713C2.5855 4.35015 2.67103 4.21709 2.82307 4.11663C3.05928 3.95373 3.29547 3.78677 3.62535 3.55599Z" fill="#363B47"/>
</svg>
