<svg width="11" height="11" viewBox="0 0 11 11" fill="none" xmlns="http://www.w3.org/2000/svg">
<path d="M7.70341 10.3207C5.75538 11.2343 3.90236 10.9845 2.21768 9.73151C0.588665 8.51925 -0.147114 6.81146 0.108099 4.80369C0.45155 2.09681 2.29235 0.429763 4.62999 0.0700212C7.28258 -0.337233 9.62022 1.05966 10.5678 3.53984C11.2234 5.2571 10.9574 6.91601 9.97046 8.45679C9.78855 8.74051 9.5632 8.99979 9.35957 9.2713C9.03784 8.94278 8.99713 8.42014 8.53557 8.04953C8.279 8.87083 7.53101 9.4084 7.70341 10.3207ZM5.55311 7.62193C5.2904 7.61443 5.02889 7.66019 4.78437 7.75655C4.53985 7.85292 4.31739 7.99786 4.13042 8.18257C4.00553 8.30203 3.92001 8.43507 4.03404 8.58982C4.05481 8.62359 4.08313 8.65209 4.11677 8.67308C4.1504 8.69406 4.18842 8.70691 4.22788 8.71073C4.26733 8.71454 4.30714 8.70917 4.34417 8.69502C4.3812 8.68086 4.41444 8.65835 4.4413 8.6292C5.173 8.01967 5.89791 8.01425 6.62418 8.64007C6.65166 8.669 6.68554 8.6911 6.72311 8.70456C6.76067 8.71803 6.80086 8.72244 6.84046 8.71755C6.88007 8.71267 6.91798 8.69858 6.95114 8.67639C6.98431 8.6542 7.0118 8.62457 7.03143 8.58982C7.15089 8.42285 7.04502 8.29388 6.92692 8.18257C6.55699 7.8277 6.0657 7.62722 5.55311 7.62193V7.62193ZM8.50435 5.77974C8.46362 5.38199 8.28579 5.06569 7.85545 5.07248C7.42512 5.07927 7.22421 5.37928 7.22556 5.79061C7.22556 6.22501 7.43191 6.55217 7.90432 6.52909C8.32108 6.50737 8.48942 6.18428 8.50435 5.77974V5.77974ZM3.75304 5.77159C3.70689 5.36433 3.52227 5.04537 3.09193 5.07659C3.00771 5.07938 2.92489 5.09882 2.84825 5.13386C2.77162 5.1689 2.70269 5.21881 2.64549 5.28068C2.58828 5.34255 2.54393 5.41517 2.51501 5.49432C2.48608 5.57346 2.47316 5.65758 2.47697 5.74176C2.47697 6.17073 2.70639 6.50466 3.11772 6.50059C3.49104 6.49787 3.72182 6.1802 3.75033 5.77159H3.75304ZM7.30837 4.22542C7.97355 4.20913 8.53014 4.19689 8.84509 4.74125C8.86258 4.76406 8.88508 4.78256 8.91086 4.79528C8.93663 4.80799 8.96499 4.81456 8.99373 4.81456C9.02247 4.81456 9.05083 4.80799 9.0766 4.79528C9.10238 4.78256 9.12488 4.76406 9.14238 4.74125C9.17477 4.70991 9.19632 4.66903 9.20389 4.62459C9.21146 4.58016 9.20466 4.53451 9.18447 4.49421C9.10267 4.3078 8.97588 4.14461 8.81547 4.01928C8.65507 3.89394 8.46608 3.81037 8.26543 3.77608C7.93012 3.70141 7.60702 3.67563 7.30565 4.22542H7.30837ZM1.81858 4.7616C2.26928 4.81862 2.33986 4.36386 2.64259 4.22947C2.94531 4.09507 3.38514 4.44943 3.57112 3.93357C3.12993 3.54804 2.67924 3.66201 2.26927 3.90772C1.98012 4.08284 1.67333 4.3177 1.81586 4.7616H1.81858Z" fill="#FEDF7E"/>
<path d="M7.70326 10.3206C7.53086 9.40833 8.27885 8.87072 8.53542 8.05078C8.99698 8.41731 9.0377 8.93995 9.35943 9.27255C9.50333 9.64993 9.67167 10.0274 9.44496 10.4305C9.0635 11.1039 8.29514 11.0564 7.70326 10.3206Z" fill="#719AD1"/>
<path d="M5.55282 7.62171C6.06719 7.6267 6.56016 7.82825 6.93068 8.18506C7.04878 8.29774 7.15467 8.4267 7.03521 8.59232C7.01559 8.62706 6.98809 8.6567 6.95492 8.67888C6.92176 8.70107 6.88385 8.71516 6.84425 8.72005C6.80464 8.72493 6.76445 8.72046 6.72689 8.70699C6.68933 8.69352 6.65544 8.67149 6.62796 8.64256C5.90169 8.01675 5.17678 8.02217 4.44508 8.63169C4.41823 8.66085 4.38499 8.68336 4.34796 8.69751C4.31093 8.71166 4.27112 8.71703 4.23166 8.71322C4.19221 8.70941 4.15417 8.69655 4.12054 8.67557C4.0869 8.65459 4.0586 8.62608 4.03783 8.59232C3.9238 8.43349 4.00932 8.30045 4.13421 8.18506C4.32047 8.00037 4.54217 7.85527 4.78595 7.75845C5.02974 7.66164 5.29059 7.61512 5.55282 7.62171V7.62171Z" fill="#363B47"/>
<path d="M8.50477 5.77988C8.48983 6.18727 8.32143 6.50776 7.89774 6.52949C7.43195 6.55257 7.2269 6.22531 7.21875 5.79075C7.21875 5.38336 7.42652 5.07916 7.84885 5.07237C8.27119 5.06558 8.46403 5.38199 8.50477 5.77988Z" fill="#363B47"/>
<path d="M3.75081 5.77154C3.72229 6.17894 3.49142 6.49808 3.11526 6.5008C2.70786 6.5008 2.47157 6.17083 2.47429 5.74171C2.47047 5.6575 2.48339 5.57335 2.51233 5.49418C2.54127 5.41501 2.58564 5.34237 2.64286 5.28047C2.70008 5.21857 2.76904 5.16865 2.8457 5.1336C2.92236 5.09855 3.00522 5.0791 3.08946 5.07631C3.51995 5.04507 3.70464 5.36822 3.75081 5.77154Z" fill="#363B47"/>
<path d="M7.30566 4.22643C7.60703 3.67663 7.93012 3.70242 8.25593 3.77437C8.45658 3.80866 8.6456 3.89223 8.806 4.01756C8.9664 4.1429 9.09318 4.30609 9.17497 4.4925C9.19517 4.5328 9.20198 4.57844 9.19441 4.62288C9.18684 4.66731 9.1653 4.7082 9.1329 4.73954C9.11541 4.76235 9.09289 4.78085 9.06711 4.79356C9.04134 4.80628 9.01298 4.81285 8.98424 4.81285C8.9555 4.81285 8.92714 4.80628 8.90137 4.79356C8.87559 4.78085 8.85309 4.76235 8.83559 4.73954C8.52472 4.19789 7.97085 4.21014 7.30566 4.22643Z" fill="#363B47"/>
<path d="M1.8159 4.76177C1.6801 4.31771 1.98021 4.08277 2.26674 3.90759C2.67414 3.65908 3.12772 3.54779 3.56907 3.93345C3.38302 4.44949 2.93623 4.09908 2.64019 4.22945C2.34415 4.35982 2.26675 4.8188 1.8159 4.76177Z" fill="#363B47"/>
</svg>
