<svg width="12" height="11" viewBox="0 0 12 11" fill="none" xmlns="http://www.w3.org/2000/svg">
<path d="M1.81931 8.58309C0.968145 7.40884 0.560891 6.12594 0.869046 4.66797C1.20376 4.92035 1.61646 5.04721 2.03515 5.02637C4.39451 4.85532 6.75659 4.95578 9.11731 4.92728C9.47841 4.92728 9.87343 4.839 10.1924 4.9571C10.6961 5.14308 11.0952 5.01689 11.5079 4.77661C11.8106 6.65134 11.0857 8.14188 9.77704 9.41523C9.0981 9.36922 8.44 9.16165 7.85753 8.80978C7.84802 8.7548 7.82435 8.70326 7.78889 8.66018C7.75343 8.6171 7.70739 8.58397 7.65526 8.56407C6.5516 8.19754 5.46151 8.11062 4.40808 8.73236C3.54063 8.69571 2.67183 8.80301 1.81931 8.58309ZM10.3431 5.57614C9.20962 6.13951 7.95934 6.11919 6.59775 6.29838C7.10411 6.86446 7.61723 6.53184 8.0082 6.73546C8.08014 7.1305 8.19827 7.52689 8.71277 7.41422C9.26392 7.29612 9.16888 6.859 9.06842 6.46396C9.54898 6.26305 10.092 6.20874 10.3431 5.57614ZM4.37007 6.66898C4.59541 6.66898 4.79632 6.6812 4.99724 6.66898C5.19815 6.65676 5.46829 6.7436 5.48866 6.45852C5.51309 6.10828 5.19273 6.18702 4.99182 6.18702C4.09993 6.19652 3.24198 6.07706 2.4424 5.64401C2.2985 5.56664 2.0908 5.42143 1.97405 5.65628C1.8383 5.92778 2.10981 6.00515 2.27271 6.0866C2.59037 6.24136 2.9216 6.36759 3.27184 6.51692C3.14695 6.84951 2.8415 7.17529 3.43338 7.37213C4.09856 7.58933 4.25469 7.19162 4.36465 6.66898H4.37007Z" fill="#F5B37F"/>
<path d="M7.82765 0.298828C9.20418 0.649067 10.1083 1.58306 10.8386 2.73288C9.87614 2.60799 8.93808 3.02879 7.97696 2.87811C6.38867 2.62968 4.79088 2.76274 3.19987 2.76953C2.59985 2.76953 1.93738 2.56592 1.38623 3.01797C1.70525 2.17767 2.29712 1.56674 3.0261 1.07125C3.16425 1.17015 3.33511 1.2122 3.50337 1.1887C3.67164 1.16521 3.82445 1.078 3.93021 0.94504C4.41756 0.343661 4.98908 0.469894 5.63254 0.521479C6.36153 0.58121 7.14482 0.826902 7.82765 0.298828Z" fill="#EF7B7C"/>
<path d="M11.5027 4.77696C11.0954 5.01724 10.6882 5.14344 10.1873 4.95746C9.86825 4.83935 9.47323 4.92356 9.11213 4.92763C6.75141 4.95614 4.38932 4.85568 2.02996 5.02673C1.61127 5.04756 1.19857 4.9207 0.863853 4.66832C0.843905 4.42592 0.89086 4.18273 0.999605 3.96517C2.09512 3.91494 3.19335 3.89186 4.29022 3.8552C6.28713 3.78733 8.28674 3.85518 10.2836 3.9665C10.4384 3.976 10.6692 4.00314 10.7398 3.91897C10.995 3.61353 11.147 3.94747 11.3425 3.97326C11.4629 4.22333 11.518 4.49985 11.5027 4.77696V4.77696Z" fill="#F49C7E"/>
<path d="M11.3449 3.97243C11.148 3.94663 10.9973 3.6127 10.7421 3.91814C10.6715 4.0023 10.4407 3.97517 10.286 3.96566C8.28908 3.85571 6.28948 3.7865 4.29257 3.85437C3.1957 3.89102 2.09747 3.91411 1.00195 3.96434C1.05354 3.61681 1.12412 3.27744 1.38748 3.01408C1.93049 2.56203 2.59974 2.76836 3.19976 2.76564C4.79077 2.75885 6.38856 2.62986 7.97685 2.87422C8.93797 3.0249 9.87738 2.60274 10.8385 2.72899C11.1039 3.09726 11.2775 3.52353 11.3449 3.97243V3.97243Z" fill="#F2907D"/>
<path d="M7.85213 8.81068C8.4346 9.16254 9.0927 9.37012 9.77164 9.41612C7.51002 11.6302 3.60175 11.2216 1.81934 8.58398C2.67186 8.8039 3.54067 8.69661 4.39862 8.73326C5.54165 9.26676 6.69824 9.17856 7.85213 8.81068Z" fill="#FEDF7E"/>
<path d="M7.82791 0.299199C7.14915 0.827272 6.36179 0.581581 5.6328 0.52185C4.98934 0.470264 4.41104 0.344031 3.93048 0.945411C3.82471 1.07837 3.6719 1.16558 3.50363 1.18907C3.33537 1.21257 3.16451 1.17052 3.02637 1.07162C4.4857 -0.061908 6.09844 -0.246522 7.82791 0.299199Z" fill="#ED6D7C"/>
<path d="M10.3431 5.57617C10.0865 6.20742 9.54889 6.26312 9.06833 6.47082C9.16879 6.86043 9.26383 7.29755 8.71268 7.42108C8.19818 7.5324 8.08005 7.136 8.0081 6.74232C7.61714 6.5387 7.10401 6.87126 6.59766 6.30517C7.95925 6.12055 9.20953 6.13954 10.3431 5.57617Z" fill="#363B47"/>
<path d="M4.36478 6.6683C4.25346 7.19095 4.09327 7.58869 3.42809 7.36741C2.83622 7.17057 3.14165 6.8448 3.26654 6.5122C2.9163 6.36288 2.58779 6.24064 2.26742 6.08182C2.10044 6.00036 1.83573 5.92164 1.96877 5.65149C2.08552 5.41664 2.29321 5.56192 2.43711 5.6393C3.23668 6.06963 4.09463 6.1823 4.98651 6.1823C5.18743 6.1823 5.5078 6.10764 5.48337 6.45381C5.46301 6.73888 5.17793 6.65062 4.99195 6.6642C4.80597 6.67777 4.59013 6.6683 4.36478 6.6683Z" fill="#363B47"/>
<path d="M7.85226 8.81015C6.69431 9.17804 5.5445 9.26623 4.40283 8.73273C5.45626 8.11098 6.54634 8.1979 7.65 8.56443C7.70212 8.58433 7.74817 8.61747 7.78363 8.66054C7.81909 8.70362 7.84275 8.75517 7.85226 8.81015V8.81015Z" fill="#363B47"/>
</svg>
