<svg width="12" height="11" viewBox="0 0 12 11" fill="none" xmlns="http://www.w3.org/2000/svg">
<path d="M9.25331 1.39771C10.2809 1.92986 10.7276 2.90864 11.0004 3.91999C11.7647 6.75041 10.4574 9.39618 7.65279 10.508C5.49706 11.3619 2.75488 10.7537 1.12315 8.17986C-0.245222 6.02005 0.339862 2.65205 2.32319 1.3529L2.39242 1.41945C2.36799 1.59865 2.38428 1.90948 2.58248 1.79138C3.12549 1.46558 3.66849 1.54706 4.25629 1.71946C4.03366 0.971469 3.51102 0.872321 2.53361 1.29451L2.45758 1.21583C3.95085 -0.217709 7.05548 -0.405107 8.70215 0.84788C8.76052 0.892678 8.77002 0.998622 8.8026 1.07736C7.7546 0.896809 7.41523 1.0298 7.41387 1.7072C7.9338 1.47099 8.41979 1.3923 8.92478 1.75883C9.1637 1.93124 9.17864 1.55926 9.25331 1.39771ZM7.39758 7.50653C7.41308 7.09834 7.31536 6.69383 7.11522 6.33773C6.84372 5.83952 6.47176 5.47162 5.85952 5.44176C5.2147 5.41189 4.80338 5.76616 4.50201 6.28066C4.22188 6.77453 4.12569 7.35165 4.2305 7.90968C4.38662 8.91288 5.00156 9.56992 5.79571 9.56992C6.58985 9.56992 7.27133 8.83011 7.38129 7.84319C7.39079 7.73459 7.39079 7.62192 7.39758 7.50925V7.50653ZM9.21258 4.15616C9.199 3.4774 8.75916 2.9344 8.27317 2.97377C7.67179 3.03079 7.52519 3.47605 7.5184 3.98647C7.51025 4.6055 7.94466 5.12002 8.44965 5.09151C9.0809 5.05757 9.15284 4.57971 9.21258 4.15888V4.15616ZM4.1504 3.97971C4.14225 3.39326 3.81238 2.9887 3.35354 3.00499C2.86891 3.02264 2.45216 3.56433 2.46166 4.16842C2.47116 4.73587 2.82276 5.17024 3.26124 5.15395C3.74044 5.14037 4.15854 4.58788 4.1504 3.98243V3.97971Z" fill="#FEDF7E"/>
<path d="M9.25372 1.39745C9.17906 1.559 9.16412 1.93098 8.92792 1.75857C8.42292 1.39205 7.93692 1.47073 7.41699 1.70694C7.41699 1.02818 7.75773 0.892477 8.80574 1.0771V1.05808C8.80978 1.08043 8.81827 1.10177 8.83071 1.12078C8.84315 1.13979 8.85929 1.15611 8.87815 1.16877C8.89702 1.18143 8.91822 1.19012 8.94053 1.19442C8.96283 1.19873 8.98578 1.19855 9.008 1.19383C9.00828 1.20178 9.01025 1.20957 9.01379 1.2167C9.01733 1.22382 9.02236 1.23011 9.02854 1.23512C9.03471 1.24014 9.04188 1.24379 9.04958 1.24579C9.05728 1.2478 9.06532 1.24815 9.07316 1.24679C9.1071 1.34317 9.14918 1.42732 9.27543 1.40017L9.25372 1.39745Z" fill="#363B47"/>
<path d="M2.32324 1.3526L2.45904 1.2168L2.53508 1.29557L2.39928 1.42049L2.32324 1.3526Z" fill="#FEDF7E"/>
<path d="M9.01337 1.19983C8.99114 1.20455 8.96819 1.20473 8.94587 1.20042C8.92356 1.19611 8.90233 1.18736 8.88346 1.1747C8.86459 1.16203 8.84846 1.14571 8.83602 1.12669C8.82357 1.10767 8.81508 1.08639 8.81104 1.06403C8.83325 1.05949 8.85614 1.05937 8.87839 1.06376C8.90063 1.06815 8.92177 1.07692 8.9406 1.08956C8.95943 1.10219 8.97555 1.11844 8.98804 1.13736C9.00054 1.15629 9.00915 1.17755 9.01337 1.19983V1.19983Z" fill="#FEDF7E"/>
<path d="M9.28046 1.40554C9.15417 1.4327 9.11207 1.34852 9.07812 1.2521C9.10154 1.24847 9.12545 1.24954 9.14843 1.25535C9.1714 1.26115 9.19297 1.27153 9.21185 1.28585C9.23073 1.30017 9.24655 1.31814 9.25833 1.3387C9.27012 1.35926 9.27765 1.38201 9.28046 1.40554V1.40554Z" fill="#FEDF7E"/>
<path d="M7.39762 7.50989C7.39762 7.62256 7.39762 7.73524 7.37861 7.84655C7.26865 8.83347 6.58989 9.57192 5.79303 9.57327C4.99616 9.57463 4.38394 8.91624 4.22782 7.91304C4.12301 7.35501 4.2192 6.77789 4.49933 6.28402C4.79934 5.76952 5.21066 5.41525 5.85684 5.44511C6.46908 5.47498 6.84104 5.84288 7.11254 6.34109C7.31363 6.69692 7.41229 7.10144 7.39762 7.50989V7.50989Z" fill="#363B47"/>
<path d="M9.21283 4.15957C9.1531 4.57633 9.07708 5.05826 8.44992 5.09491C7.94492 5.12342 7.51052 4.60891 7.51867 3.98988C7.51867 3.47945 7.67206 3.03962 8.27343 2.97718C8.75942 2.93238 9.19926 3.47945 9.21283 4.15957Z" fill="#363B47"/>
<path d="M4.15081 3.98301C4.15895 4.58846 3.74356 5.14095 3.26165 5.15724C2.82317 5.17353 2.47158 4.73916 2.46207 4.17172C2.45257 3.56763 2.86932 3.02593 3.35395 3.00829C3.81279 2.992 4.14266 3.39656 4.15081 3.98301Z" fill="#363B47"/>
<path d="M2.39256 1.42035L2.52831 1.2954C3.50572 0.873217 4.02156 0.972366 4.25098 1.72036C3.66046 1.54795 3.12018 1.46647 2.57718 1.79228C2.38441 1.91038 2.36812 1.59411 2.39256 1.42035Z" fill="#363B47"/>
</svg>
