<svg width="11" height="11" viewBox="0 0 11 11" fill="none" xmlns="http://www.w3.org/2000/svg">
<path d="M5.38767 0.0140518C6.10214 0.00555791 6.81112 0.139547 7.47321 0.408182C8.1353 0.676817 8.73722 1.07467 9.24378 1.57858C9.75035 2.08248 10.1514 2.68234 10.4235 3.34301C10.6956 4.00369 10.8333 4.71198 10.8286 5.42648C10.8476 8.40216 8.38505 10.8484 5.37137 10.843C3.95264 10.8309 2.59557 10.2613 1.59311 9.25735C0.590639 8.25336 0.0231815 6.89541 0.0132541 5.47666C-0.00167855 2.41818 2.35634 0.0221969 5.38767 0.0140518ZM5.4121 3.50011C4.55958 2.6218 3.70163 2.44263 2.95771 2.94762C2.15678 3.49063 1.95858 4.54409 2.47715 5.5568C2.58099 5.75791 2.7042 5.9484 2.84503 6.12559C3.50698 6.92895 4.27674 7.63702 5.13246 8.22974C5.3836 8.413 5.55464 8.39806 5.78677 8.21615C6.4874 7.67991 7.13148 7.07357 7.70902 6.40657C8.09455 5.95452 8.42713 5.46446 8.56153 4.88208C8.71221 4.23048 8.61991 3.61958 8.09863 3.13766C7.60585 2.68154 7.02754 2.58246 6.3963 2.75487C5.9904 2.86754 5.73247 3.20553 5.4121 3.50011Z" fill="#ED6D7C"/>
<path d="M5.41192 3.50122C5.73229 3.20664 5.98615 2.86865 6.39612 2.75598C7.02736 2.58357 7.60567 2.68265 8.09845 3.13877C8.61973 3.62069 8.71203 4.23159 8.56135 4.88319C8.4256 5.46557 8.09438 5.95563 7.70884 6.40768C7.13131 7.07468 6.48722 7.68102 5.78659 8.21726C5.55446 8.39917 5.37935 8.41411 5.13228 8.23085C4.27656 7.63813 3.5068 6.93006 2.84485 6.1267C2.70402 5.94951 2.58081 5.75902 2.47697 5.55791C1.9584 4.5452 2.1566 3.4931 2.95753 2.94873C3.70145 2.44374 4.5594 2.62291 5.41192 3.50122Z" fill="#FEFEFE"/>
</svg>
