<svg width="12" height="11" viewBox="0 0 12 11" fill="none" xmlns="http://www.w3.org/2000/svg">
<path d="M5.71487 0.0216841C6.42886 0.0155462 7.13695 0.151531 7.7979 0.421647C8.45886 0.691764 9.05948 1.09064 9.56481 1.59509C10.0701 2.09954 10.4701 2.69945 10.7414 3.35993C11.0126 4.02041 11.1498 4.72826 11.1449 5.44227C11.132 6.88427 10.5479 8.26231 9.5206 9.27433C8.49331 10.2864 7.10667 10.8498 5.66464 10.8411C2.72154 10.8411 0.314672 8.3881 0.322817 5.39342C0.319374 4.68531 0.456648 3.98358 0.726658 3.32897C0.996668 2.67436 1.39404 2.07987 1.89569 1.58011C2.39735 1.08035 2.99329 0.685268 3.64891 0.417737C4.30454 0.150205 5.00678 0.0155621 5.71487 0.0216841V0.0216841ZM6.4615 4.09423C6.76558 3.46434 6.8932 2.96478 6.81175 2.43399C6.77102 2.16249 6.62441 1.97246 6.3339 1.94395C6.28818 1.9375 6.24162 1.94052 6.19712 1.95283C6.15262 1.96514 6.11113 1.98651 6.07522 2.01554C6.03932 2.04456 6.00978 2.08066 5.98842 2.12159C5.96707 2.16253 5.95434 2.20738 5.95107 2.25343C5.84247 2.97835 5.32661 3.43449 4.87999 3.93813C4.72795 4.10782 4.57591 4.27749 4.57591 4.52455C4.57591 5.33906 4.57591 6.15357 4.57591 6.96808C4.57591 7.36448 4.80669 7.51109 5.19222 7.51109C5.95922 7.50023 6.72758 7.51109 7.5 7.51109C7.83531 7.51109 8.00364 7.40389 8.08102 7.01972C8.21677 6.34096 8.24663 5.66216 8.31315 4.9739C8.37967 4.28564 8.12854 4.1146 7.55702 4.1051C7.22986 4.09153 6.89862 4.09562 6.4615 4.09562V4.09423ZM4.11572 6.18207C4.11572 5.84541 4.10215 5.50332 4.11572 5.17209C4.14016 4.69832 3.96774 4.4703 3.45732 4.47438C2.9754 4.47438 2.75277 4.64402 2.76635 5.14359C2.78535 5.82235 2.78671 6.49162 2.76635 7.16495C2.75005 7.66723 2.91838 7.91429 3.46003 7.90615C3.97046 7.89936 4.13879 7.65772 4.11707 7.19345C4.10756 6.85814 4.11572 6.52149 4.11572 6.18347V6.18207Z" fill="#719AD1"/>
<path d="M6.46117 4.09614C6.89829 4.09614 7.22681 4.09614 7.55533 4.09614C8.12685 4.10565 8.37934 4.27668 8.31146 4.96494C8.24359 5.6532 8.21373 6.33058 8.07933 7.01069C8.00195 7.39487 7.83362 7.50349 7.49831 7.50213C6.72996 7.50213 5.9616 7.49398 5.19054 7.50213C4.805 7.50892 4.57829 7.35823 4.57422 6.95912C4.57422 6.14461 4.57422 5.3301 4.57422 4.51559C4.57422 4.26853 4.72628 4.09886 4.87832 3.92917C5.32494 3.42553 5.84078 2.96939 5.94938 2.24447C5.95265 2.19842 5.96538 2.1535 5.98673 2.11257C6.00809 2.07163 6.03763 2.03554 6.07353 2.00651C6.10944 1.97748 6.15093 1.95618 6.19543 1.94387C6.23993 1.93156 6.28649 1.92848 6.33221 1.93492C6.62272 1.96343 6.76933 2.15353 6.81006 2.42503C6.89287 2.96668 6.76525 3.46626 6.46117 4.09614Z" fill="#FEFEFE"/>
<path d="M4.11548 6.18238C4.11548 6.5204 4.10598 6.86109 4.11548 7.19369C4.13313 7.65796 3.96886 7.89959 3.45843 7.90638C2.91542 7.91453 2.74845 7.66746 2.76474 7.16518C2.78646 6.48642 2.7851 5.81722 2.76474 5.14389C2.75117 4.64432 2.97379 4.47868 3.45571 4.47461C3.96614 4.47461 4.13448 4.69862 4.11412 5.17239C4.10733 5.5077 4.11548 5.84571 4.11548 6.18238Z" fill="#FEFEFE"/>
</svg>
