<svg width="25" height="25" viewBox="0 0 17 17" fill="none" xmlns="http://www.w3.org/2000/svg">
    <path
        d="M5.79545 8.11364C6.43556 8.11364 6.95455 7.42165 6.95455 6.56818C6.95455 5.71471 6.43556 5.02273 5.79545 5.02273C5.15535 5.02273 4.63636 5.71471 4.63636 6.56818C4.63636 7.42165 5.15535 8.11364 5.79545 8.11364Z"
        fill="#A4A4A4" />
    <path
        d="M12.3636 6.56818C12.3636 7.42165 11.8446 8.11364 11.2045 8.11364C10.5644 8.11364 10.0455 7.42165 10.0455 6.56818C10.0455 5.71471 10.5644 5.02273 11.2045 5.02273C11.8446 5.02273 12.3636 5.71471 12.3636 6.56818Z"
        fill="#A4A4A4" />
    <path
        d="M8.5 11.8143C9.65909 11.8143 10.8182 11.0016 10.8182 10.1481C10.8182 9.29461 9.27273 9.27273 8.5 9.27273C7.72727 9.27273 6.18182 9.29461 6.18182 10.1481C6.18182 11.0016 7.34091 11.8143 8.5 11.8143Z"
        fill="#A4A4A4" />
    <path fill-rule="evenodd" clip-rule="evenodd"
        d="M17 8.5C17 13.1945 13.1945 17 8.5 17C3.80553 17 0 13.1945 0 8.5C0 3.80553 3.80553 0 8.5 0C13.1945 0 17 3.80553 17 8.5ZM15.4545 8.5C15.4545 12.3408 12.3408 15.4545 8.5 15.4545C4.65919 15.4545 1.54545 12.3408 1.54545 8.5C1.54545 4.65919 4.65919 1.54545 8.5 1.54545C12.3408 1.54545 15.4545 4.65919 15.4545 8.5Z"
        fill="#A4A4A4" />
</svg>