<svg width="15" height="15" viewBox="0 0 15 15" fill="none" xmlns="http://www.w3.org/2000/svg">
<g clip-path="url(#clip0_253_2738)">
<path d="M5.00587 3.74647C5.00547 3.25219 5.10293 2.76274 5.29262 2.30633C5.48231 1.84991 5.76049 1.43559 6.11109 1.08728C6.46169 0.738965 6.87777 0.463567 7.33533 0.276953C7.7929 0.0903388 8.28287 -0.00380806 8.77699 -1.16659e-05C10.8241 -1.16659e-05 12.5153 1.70162 12.5059 3.75177C12.5043 4.24619 12.4052 4.73543 12.2143 5.19149C12.0234 5.64755 11.7445 6.06146 11.3935 6.40957C11.0426 6.75767 10.6264 7.03311 10.1688 7.22012C9.7113 7.40713 9.22138 7.50203 8.72713 7.4994C6.67058 7.49647 5.00118 5.81246 5.00587 3.74647ZM8.73827 6.24491C10.1208 6.24491 11.2459 5.14179 11.2512 3.77464C11.2546 3.4425 11.1917 3.11304 11.0662 2.80556C10.9406 2.49808 10.7549 2.2188 10.5199 1.98409C10.285 1.74939 10.0055 1.564 9.69793 1.43882C9.39037 1.31363 9.06091 1.25116 8.72889 1.25508C7.36744 1.25508 6.25235 2.38285 6.25176 3.76174C6.25622 4.41915 6.51935 5.04834 6.98419 5.51309C7.44902 5.97785 8.07814 6.24076 8.73534 6.24491H8.73827Z" fill="white"/>
<path d="M8.75994 8.75626C9.4433 8.75626 10.1267 8.74335 10.8094 8.75626C12.7252 8.7985 14.4691 10.2484 14.8844 12.1219C14.977 12.576 15.0164 13.0393 15.0017 13.5026C14.9982 13.7807 15.0017 14.0594 15.0017 14.3375C15.0017 14.7142 14.7401 14.9935 14.3864 14.9971C14.0239 14.9971 13.7523 14.7248 13.7482 14.3422C13.7441 13.9467 13.7482 13.5513 13.7482 13.1558C13.7394 11.6179 12.7457 10.3892 11.2429 10.0595C11.0229 10.0146 10.7987 9.99337 10.5742 9.99608C9.35884 9.99608 8.14364 9.99608 6.92864 9.99608C5.41057 10.0002 4.17934 10.9777 3.8315 12.4511C3.77683 12.6938 3.75123 12.9422 3.75525 13.191C3.75525 13.5765 3.75525 13.962 3.75525 14.3481C3.75525 14.7002 3.50536 14.9789 3.17336 14.9965C2.82141 15.0152 2.51229 14.7665 2.50877 14.4044C2.50231 13.7085 2.44248 13.0073 2.58385 12.3173C2.89825 10.7847 3.7834 9.70737 5.21231 9.08012C5.7608 8.84692 6.35278 8.73371 6.94858 8.74803C7.55393 8.75273 8.15928 8.74803 8.76405 8.74803L8.75994 8.75626Z" fill="white"/>
<path d="M3.12881 7.49996C3.12881 7.9107 3.12881 8.3097 3.12881 8.7087C3.12881 9.08892 2.86661 9.3682 2.51642 9.37465C2.43343 9.37724 2.35076 9.36317 2.2733 9.33325C2.19584 9.30333 2.12517 9.2582 2.06545 9.20049C2.00573 9.14278 1.95819 9.07367 1.92563 8.99727C1.89307 8.92086 1.87615 8.83869 1.87588 8.75563C1.87294 8.3449 1.87588 7.9277 1.87588 7.49936C1.45413 7.49936 1.04117 7.49936 0.627636 7.49936C0.539655 7.50004 0.452527 7.48211 0.371976 7.4467C0.291425 7.4113 0.219276 7.35925 0.160272 7.29397C0.101267 7.22868 0.0567412 7.15164 0.0296233 7.06791C0.00250533 6.98419 -0.00659174 6.89566 0.00292935 6.80817C0.0334315 6.48545 0.305019 6.24958 0.658726 6.24664C1.05819 6.24312 1.45823 6.24664 1.87588 6.24664V5.6188C1.87588 5.4234 1.87588 5.22801 1.87588 5.03203C1.87588 4.65768 2.13925 4.37778 2.49355 4.37132C2.84784 4.36487 3.12294 4.64828 3.12881 5.01676C3.13468 5.40227 3.12881 5.7878 3.12881 6.1733C3.12881 6.19208 3.12881 6.21026 3.13409 6.2443C3.51126 6.2443 3.8855 6.2443 4.25915 6.2443C4.34195 6.24184 4.42477 6.24852 4.5061 6.26424C4.8076 6.33054 5.02991 6.62274 5 6.91612C4.98927 7.07103 4.92127 7.21641 4.80926 7.32391C4.69724 7.4314 4.54923 7.49332 4.39406 7.49761C4.02334 7.50289 3.65263 7.49761 3.27956 7.49761L3.12881 7.49996Z" fill="white"/>
</g>
<defs>
<clipPath id="clip0_253_2738">
<rect width="15" height="15" fill="white"/>
</clipPath>
</defs>
</svg>
