<svg width="15" height="15" viewBox="0 0 15 15" fill="none" xmlns="http://www.w3.org/2000/svg">
<g clip-path="url(#clip0_208_2588)">
<path d="M3.07916 12.1578C2.77804 12.3504 2.69049 12.6431 2.66808 12.968C2.66236 13.1716 2.63752 13.3742 2.59386 13.5731C2.5515 13.741 2.45308 13.8893 2.31491 13.9936C2.17673 14.0979 2.00708 14.1519 1.83403 14.1467C1.65777 14.1417 1.48936 14.0726 1.36043 13.9523C1.2315 13.832 1.15089 13.6688 1.13374 13.4933C1.02379 12.5367 1.46708 11.1823 2.60436 10.732C2.62047 10.7257 2.63447 10.7152 2.65338 10.7054C2.56584 9.62554 2.63657 8.5436 2.60366 7.44833C2.35896 7.46566 2.12195 7.54117 1.91232 7.66858C1.70269 7.79599 1.52652 7.97161 1.39845 8.18084C1.16525 8.53869 0.768181 8.64724 0.412431 8.46096C0.320181 8.41399 0.238893 8.34807 0.173875 8.26752C0.108858 8.18697 0.0615748 8.09361 0.0351325 7.99352C0.0086903 7.89344 0.00368274 7.78889 0.0204291 7.68673C0.0371754 7.58458 0.075299 7.4871 0.132312 7.4007C0.707956 6.50082 1.53921 6.02324 2.60015 5.9469C2.7192 5.9385 2.76193 5.90699 2.79624 5.78934C3.1744 4.47558 3.95593 3.47834 5.15483 2.81236C5.18004 2.79836 5.20526 2.78436 5.22977 2.76825C5.24258 2.7583 5.25452 2.74728 5.26549 2.73532C4.97452 2.41314 4.75517 2.03294 4.62192 1.61978C4.52019 1.30962 4.47511 0.983674 4.48885 0.657554C4.50916 0.272391 4.8208 -0.00141627 5.22977 0.00068462C5.63874 0.00278551 5.94897 0.268193 5.96368 0.644252C5.98889 1.28292 6.2382 1.78152 6.82715 2.06864C7.03996 2.17089 7.27414 2.2208 7.51014 2.21417C7.74615 2.20755 7.97715 2.14461 8.18389 2.03058C8.39063 1.91656 8.56711 1.75475 8.69863 1.55867C8.83014 1.36259 8.91288 1.13792 8.93994 0.903375C8.94764 0.833345 8.95535 0.763316 8.96025 0.693286C8.99106 0.264706 9.29639 -0.0147232 9.71937 -0.000717338C10.1613 0.0139889 10.4463 0.305305 10.4442 0.74509C10.4442 1.50561 10.1697 2.1618 9.66124 2.74025C9.98829 2.91667 10.2974 3.12446 10.5842 3.3607C11.3369 3.99368 11.8781 4.84156 12.1354 5.79074C12.1662 5.89858 12.2012 5.93708 12.3168 5.94478C13.3791 6.01481 14.2111 6.48892 14.7902 7.3874C14.8467 7.46894 14.8862 7.56095 14.9066 7.65801C14.927 7.75508 14.9277 7.85524 14.9088 7.95259C14.8898 8.04995 14.8516 8.14254 14.7964 8.22492C14.7412 8.30729 14.67 8.37777 14.5871 8.43223C14.237 8.66403 13.7853 8.56041 13.5367 8.19065C13.2237 7.72496 12.8665 7.50575 12.3252 7.45322C12.2895 8.53378 12.363 9.61645 12.2734 10.7075C12.8162 10.9162 13.2545 11.331 13.4926 11.8616C13.7244 12.356 13.8609 12.8805 13.7986 13.4317C13.7475 13.8854 13.4442 14.1551 13.0444 14.1453C12.6445 14.1354 12.3329 13.8217 12.2888 13.3749C12.2663 13.155 12.2523 12.9337 12.2187 12.7159C12.2023 12.6003 12.16 12.49 12.095 12.393C12.03 12.296 11.944 12.2149 11.8434 12.1557C10.8924 13.8924 9.46237 14.882 7.46232 14.8799C5.46228 14.8778 4.03157 13.8939 3.07916 12.1578ZM4.1016 7.44064C4.1016 8.32231 4.1016 9.19135 4.1016 10.0548C4.09977 10.7396 4.31205 11.4078 4.70875 11.9659C5.18174 12.6473 5.89192 13.1278 6.70039 13.3133V7.44064H4.1016ZM8.20813 13.2937C8.24174 13.3133 8.26836 13.2986 8.29637 13.2937C9.0108 13.1088 9.64436 12.6935 10.099 12.1122C10.5536 11.5308 10.8039 10.8159 10.8111 10.0779C10.8174 9.23407 10.8111 8.38952 10.8111 7.54497C10.8111 7.51275 10.8244 7.47494 10.7929 7.44833H8.20533L8.20813 13.2937ZM10.5982 5.93569C10.1515 4.61213 8.77326 3.66533 7.41259 3.70804C5.76829 3.75917 4.64152 4.88314 4.31658 5.93569H10.5982Z" fill="#15153A"/>
</g>
<defs>
<clipPath id="clip0_208_2588">
<rect width="14.91" height="14.882" fill="white"/>
</clipPath>
</defs>
</svg>
