<svg width="15" height="15" viewBox="0 0 15 15" fill="none" xmlns="http://www.w3.org/2000/svg">
<g clip-path="url(#clip0_357_2212)">
<path d="M3.13351 11.9443L3.21067 12.0849C4.14049 13.7798 5.52447 14.7271 7.46248 14.7291C9.39992 14.7312 10.7832 13.7787 11.7118 12.0829L11.7861 11.9473L11.9194 12.0257C12.0395 12.0962 12.1421 12.193 12.2196 12.3087C12.297 12.4242 12.3474 12.5556 12.3671 12.6932C12.3913 12.8503 12.4059 13.012 12.42 13.168C12.4259 13.2329 12.4316 13.2968 12.438 13.359L12.438 13.3595C12.4759 13.7431 12.7355 13.9869 13.0481 13.9946C13.212 13.9986 13.3489 13.9459 13.4501 13.8517C13.552 13.757 13.6273 13.6113 13.6495 13.4141L13.6495 13.4141C13.7078 12.8991 13.5811 12.4031 13.3567 11.9245L13.3557 11.9223L13.3557 11.9223C13.1338 11.4278 12.7254 11.0412 12.2195 10.8468L12.1147 10.8065L12.1239 10.6945C12.1681 10.1558 12.1722 9.61785 12.1695 9.07645C12.169 8.96984 12.1682 8.86301 12.1673 8.756C12.1641 8.32144 12.1608 7.88407 12.1753 7.44754L12.1805 7.28775L12.3397 7.30319C12.6277 7.33114 12.8753 7.40442 13.0946 7.5382C13.3137 7.67178 13.4959 7.86034 13.6612 8.10623C13.8684 8.41442 14.2296 8.48831 14.5043 8.30643L14.5048 8.30614C14.5709 8.26267 14.6277 8.2064 14.6718 8.14064C14.7159 8.07489 14.7464 8.00097 14.7615 7.92324C14.7766 7.84552 14.776 7.76555 14.7598 7.68807C14.7435 7.61059 14.7119 7.53715 14.6669 7.47204L14.6641 7.46798L14.6641 7.46793C14.1115 6.61059 13.3233 6.16073 12.3069 6.09373L12.3068 6.09372C12.2368 6.08905 12.1587 6.07367 12.0946 6.01664C12.0336 5.96235 12.0078 5.88947 11.9912 5.83122L11.9906 5.82925L11.9906 5.82925C11.7414 4.90982 11.2172 4.08848 10.4882 3.47523C10.2091 3.24539 9.90828 3.04321 9.59003 2.87153L9.42415 2.78205L9.54858 2.64049C10.0357 2.0863 10.2942 1.46448 10.2942 0.744358V0.743641C10.2951 0.557119 10.2357 0.414142 10.1408 0.316691C10.0457 0.219068 9.90298 0.154749 9.71441 0.148468L3.13351 11.9443ZM3.13351 11.9443L2.99835 12.0307C2.63864 12.2608 2.54222 12.6121 2.51844 12.957L2.51831 12.957L2.51814 12.9631C2.5127 13.1565 2.48918 13.3489 2.44787 13.5378C2.41357 13.6717 2.33484 13.7899 2.22454 13.8732C2.11364 13.9569 1.97748 14.0002 1.83859 13.996L1.83826 13.996C1.6985 13.992 1.56498 13.9373 1.46276 13.8419C1.36054 13.7465 1.29663 13.6171 1.28303 13.4779L1.28305 13.4779L1.28276 13.4754C1.23098 13.0249 1.30964 12.475 1.53735 11.9853C1.76444 11.497 2.13458 11.0787 2.6593 10.8709L3.13351 11.9443ZM3.9516 10.0539C3.94973 10.7695 4.17152 11.4679 4.58599 12.0514C5.08027 12.7631 5.82223 13.265 6.66684 13.4588L6.85039 13.5009V13.3126V7.43991V7.28991H6.70039H4.1016H3.9516V7.43991V7.44507V7.45024V7.4554V7.46057V7.46573V7.4709V7.47606V7.48123V7.48639V7.49155V7.49672V7.50188V7.50704V7.5122V7.51737V7.52253V7.52769V7.53285V7.53801V7.54317V7.54833V7.55349V7.55865V7.56381V7.56897V7.57413V7.57929V7.58444V7.5896V7.59476V7.59992V7.60507V7.61023V7.61539V7.62054V7.6257V7.63086V7.63601V7.64117V7.64632V7.65148V7.65663V7.66178V7.66694V7.67209V7.67724V7.6824V7.68755V7.6927V7.69785V7.70301V7.70816V7.71331V7.71846V7.72361V7.72876V7.73391V7.73906V7.74421V7.74936V7.75451V7.75966V7.76481V7.76996V7.7751V7.78025V7.7854V7.79055V7.79569V7.80084V7.80599V7.81113V7.81628V7.82142V7.82657V7.83171V7.83686V7.842V7.84715V7.85229V7.85744V7.86258V7.86772V7.87287V7.87801V7.88315V7.88829V7.89344V7.89858V7.90372V7.90886V7.914V7.91914V7.92428V7.92942V7.93456V7.9397V7.94484V7.94998V7.95512V7.96026V7.9654V7.97053V7.97567V7.98081V7.98595V7.99108V7.99622V8.00136V8.00649V8.01163V8.01676V8.0219V8.02704V8.03217V8.0373V8.04244V8.04757V8.05271V8.05784V8.06297V8.06811V8.07324V8.07837V8.08351V8.08864V8.09377V8.0989V8.10403V8.10917V8.1143V8.11943V8.12456V8.12969V8.13482V8.13995V8.14508V8.15021V8.15534V8.16046V8.16559V8.17072V8.17585V8.18098V8.1861V8.19123V8.19636V8.20149V8.20661V8.21174V8.21686V8.22199V8.22712V8.23224V8.23737V8.24249V8.24762V8.25274V8.25786V8.26299V8.26811V8.27324V8.27836V8.28348V8.2886V8.29373V8.29885V8.30397V8.30909V8.31421V8.31934V8.32446V8.32958V8.3347V8.33982V8.34494V8.35006V8.35518V8.3603V8.36542V8.37054V8.37566V8.38077V8.38589V8.39101V8.39613V8.40125V8.40636V8.41148V8.4166V8.42171V8.42683V8.43195V8.43706V8.44218V8.44729V8.45241V8.45752V8.46264V8.46775V8.47287V8.47798V8.4831V8.48821V8.49332V8.49844V8.50355V8.50866V8.51378V8.51889V8.524V8.52911V8.53422V8.53934V8.54445V8.54956V8.55467V8.55978V8.56489V8.57V8.57511V8.58022V8.58533V8.59044V8.59555V8.60066V8.60576V8.61087V8.61598V8.62109V8.6262V8.6313V8.63641V8.64152V8.64663V8.65173V8.65684V8.66195V8.66705V8.67216V8.67726V8.68237V8.68747V8.69258V8.69768V8.70279V8.70789V8.713V8.7181V8.7232V8.72831V8.73341V8.73851V8.74362V8.74872V8.75382V8.75892V8.76403V8.76913V8.77423V8.77933V8.78443V8.78953V8.79463V8.79974V8.80484V8.80994V8.81504V8.82014V8.82523V8.83033V8.83543V8.84053V8.84563V8.85073V8.85583V8.86093V8.86602V8.87112V8.87622V8.88132V8.88641V8.89151V8.89661V8.9017V8.9068V8.9119V8.91699V8.92209V8.92718V8.93228V8.93737V8.94247V8.94756V8.95266V8.95775V8.96285V8.96794V8.97303V8.97813V8.98322V8.98832V8.99341V8.9985V9.00359V9.00869V9.01378V9.01887V9.02396V9.02905V9.03415V9.03924V9.04433V9.04942V9.05451V9.0596V9.06469V9.06978V9.07487V9.07996V9.08505V9.09014V9.09523V9.10032V9.10541V9.11049V9.11558V9.12067V9.12576V9.13085V9.13593V9.14102V9.14611V9.1512V9.15628V9.16137V9.16646V9.17154V9.17663V9.18172V9.1868V9.19189V9.19697V9.20206V9.20714V9.21223V9.21731V9.2224V9.22748V9.23257V9.23765V9.24273V9.24782V9.2529V9.25799V9.26307V9.26815V9.27323V9.27832V9.2834V9.28848V9.29356V9.29865V9.30373V9.30881V9.31389V9.31897V9.32405V9.32913V9.33422V9.3393V9.34438V9.34946V9.35454V9.35962V9.3647V9.36978V9.37486V9.37993V9.38501V9.39009V9.39517V9.40025V9.40533V9.41041V9.41548V9.42056V9.42564V9.43072V9.43579V9.44087V9.44595V9.45103V9.4561V9.46118V9.46626V9.47133V9.47641V9.48148V9.48656V9.49163V9.49671V9.50179V9.50686V9.51194V9.51701V9.52208V9.52716V9.53223V9.53731V9.54238V9.54745V9.55253V9.5576V9.56267V9.56775V9.57282V9.57789V9.58297V9.58804V9.59311V9.59818V9.60326V9.60833V9.6134V9.61847V9.62354V9.62861V9.63369V9.63876V9.64383V9.6489V9.65397V9.65904V9.66411V9.66918V9.67425V9.67932V9.68439V9.68946V9.69453V9.6996V9.70466V9.70973V9.7148V9.71987V9.72494V9.73001V9.73507V9.74014V9.74521V9.75028V9.75535V9.76041V9.76548V9.77055V9.77561V9.78068V9.78575V9.79081V9.79588V9.80095V9.80601V9.81108V9.81614V9.82121V9.82628V9.83134V9.83641V9.84147V9.84654V9.8516V9.85667V9.86173V9.86679V9.87186V9.87692V9.88199V9.88705V9.89211V9.89718V9.90224V9.9073V9.91237V9.91743V9.92249V9.92756V9.93262V9.93768V9.94274V9.94781V9.95287V9.95793V9.96299V9.96805V9.97311V9.97818V9.98324V9.9883V9.99336V9.99842V10.0035V10.0085V10.0136V10.0187V10.0237V10.0288V10.0338V10.0389V10.044V10.049V10.0539ZM3.9516 10.0539C3.9516 10.0538 3.9516 10.0537 3.9516 10.0537L4.10142 10.0541H3.9516V10.0539ZM10.8072 6.08496H10.5982H4.31658H4.11329L4.17325 5.89071C4.51565 4.78163 5.6948 3.61067 7.40788 3.55739L10.8072 6.08496ZM10.8072 6.08496L10.7404 5.88698M10.8072 6.08496L10.7404 5.88698M10.7404 5.88698C10.2725 4.50101 8.83485 3.51261 7.40793 3.55738L10.7404 5.88698ZM8.05813 13.293L8.05817 13.3791L8.13255 13.4225C8.18348 13.4522 8.23326 13.4561 8.2734 13.4509C8.2904 13.4487 8.30512 13.445 8.3123 13.4432L8.32089 13.441C8.32152 13.4409 8.32196 13.4408 8.32223 13.4407L8.32231 13.4412L8.33395 13.4382C9.08032 13.245 9.7422 12.8112 10.2171 12.2038C10.692 11.5965 10.9535 10.8496 10.9611 10.0787L10.9611 10.0783C10.9653 9.51505 10.9639 8.95085 10.9625 8.38741C10.9618 8.10609 10.9611 7.82496 10.9611 7.54423L10.9611 7.54427C10.9611 7.54427 10.9612 7.54292 10.9621 7.53257L10.9622 7.53205C10.9629 7.52365 10.9644 7.50684 10.9637 7.48835C10.9621 7.44454 10.9478 7.38206 10.8897 7.333L10.8478 7.2976H10.7929H8.20533H8.05525L8.05533 7.44767L8.05813 13.293Z" fill="#15153A" stroke="white" stroke-width="0.3"/>
</g>
<defs>
<clipPath id="clip0_357_2212">
<rect width="14.91" height="14.882" fill="white"/>
</clipPath>
</defs>
</svg>
