<svg width="16" height="16" viewBox="0 0 16 16" fill="none" xmlns="http://www.w3.org/2000/svg">
<g clip-path="url(#clip0_358_2218)">
<path d="M0.000610352 6.92954C0.000610352 5.29969 0.000610352 3.66963 0.000610352 2.03935C0.000610352 1.06044 0.616284 0.280574 1.56482 0.0502414C1.71162 0.0157518 1.86201 -0.00107664 2.01281 0.000150673C5.00149 0.000150673 7.99018 0.000150673 10.9789 0.000150673C11.2446 -0.00311605 11.5083 0.0467661 11.7545 0.146878C12.0007 0.246989 12.2244 0.395306 12.4125 0.583116C12.6006 0.770927 12.7493 0.994466 12.8498 1.24056C12.9504 1.48666 13.0007 1.75035 12.9979 2.01619C13.0005 4.00615 13.0005 5.99572 12.9979 7.98484C13.0008 8.25068 12.9505 8.5144 12.8501 8.76053C12.7496 9.00666 12.601 9.2302 12.413 9.41807C12.2249 9.60594 12.0013 9.75433 11.7551 9.85452C11.5089 9.95471 11.2452 10.0047 10.9795 10.0015C8.59522 10.0015 6.21053 10.0015 3.82542 10.0015C3.73364 9.99834 3.64412 10.0304 3.57514 10.091C2.7067 10.8204 1.83595 11.5475 0.962913 12.2723C0.804615 12.4037 0.645064 12.5314 0.421695 12.4982C0.171421 12.4613 0.000610352 12.2479 0.000610352 11.9606C0.000610352 11.1469 0.000610352 10.3332 0.000610352 9.52329V6.92954ZM1.00171 10.9303L1.13873 10.8195C1.78986 10.2771 2.44119 9.73464 3.09274 9.19218C3.23903 9.06646 3.42677 8.99955 3.61957 9.00441C6.03596 9.00817 8.45235 9.00817 10.8687 9.00441C11.5958 9.00441 12.0012 8.60133 12.0012 7.87778V2.12697C12.0012 1.41031 11.5952 1.00035 10.8831 1.00035H2.11792C1.4059 1.00035 1.00045 1.40906 1.00045 2.12697V10.9303H1.00171Z" fill="#15153A"/>
<path d="M14.9989 14.4573V14.2739C14.9989 11.56 14.9921 8.84605 15.004 6.13275C15.004 5.4743 14.5791 5.01177 13.9641 4.998C13.8988 4.99509 13.8348 4.97908 13.7758 4.95093C13.7169 4.92278 13.6642 4.88305 13.6209 4.83413C13.5776 4.7852 13.5445 4.72805 13.5237 4.6661C13.5029 4.60414 13.4948 4.53866 13.4998 4.4735C13.5074 4.3451 13.564 4.22451 13.658 4.13677C13.752 4.04902 13.8762 4.00083 14.0047 4.00217C14.9614 3.98715 15.838 4.74011 15.9719 5.6871C15.9897 5.81149 15.9987 5.93699 15.9988 6.06265C15.9988 9.17714 15.9988 12.2921 15.9988 15.4074C16.0019 15.4748 15.9977 15.5424 15.9863 15.6089C15.9031 15.9845 15.4926 16.1253 15.166 15.8793C14.9082 15.6859 14.6605 15.4788 14.4089 15.2772C13.9171 14.8835 13.4241 14.4917 12.9354 14.0949C12.8608 14.0325 12.7655 14.0003 12.6683 14.0048C10.4604 14.0073 8.2524 14.0073 6.04415 14.0048C5.05745 14.0048 4.27096 13.3845 4.04634 12.43C3.96876 12.1014 3.99003 11.7659 4.00755 11.4342C4.02069 11.1782 4.27159 10.9904 4.53187 11.0048C4.65467 11.0132 4.7701 11.0665 4.85609 11.1546C4.94208 11.2427 4.9926 11.3594 4.99801 11.4824C5.00364 11.6282 4.99801 11.774 4.99801 11.9205C4.99801 12.5827 5.4191 13.0046 6.07857 13.0046C8.33354 13.0046 10.5883 13.0046 12.8428 13.0046C13.0618 12.9995 13.275 13.0752 13.4416 13.2174C13.924 13.6129 14.4146 13.9997 14.902 14.3897C14.9276 14.4047 14.9526 14.4216 14.9989 14.4573Z" fill="#15153A"/>
<path d="M6.48396 4.00124C5.49454 4.00124 4.50533 4.00124 3.51634 4.00124C3.3953 4.00169 3.27819 3.95825 3.18671 3.87896C3.09522 3.79968 3.03556 3.68993 3.01876 3.57001C3.00196 3.4501 3.02917 3.32816 3.09534 3.22677C3.16152 3.12538 3.26219 3.0514 3.37869 3.01855C3.43429 3.00593 3.49126 3.00047 3.54825 3.00229H9.45283C9.77818 3.00229 10.0041 3.21323 10.0003 3.51054C9.99654 3.80784 9.7713 4.00185 9.4522 4.00185C8.4632 4.00227 7.47379 4.00207 6.48396 4.00124Z" fill="#15153A"/>
<path d="M5.49976 5.00195H7.45189C7.77787 5.00195 8.00375 5.21226 7.99999 5.50894C7.99624 5.80562 7.77224 6.00151 7.45314 6.00151C6.15172 6.00151 4.85009 6.00151 3.54825 6.00151C3.2229 6.00151 2.99702 5.79123 3.00078 5.49455C3.00453 5.19787 3.22853 5.00195 3.54763 5.00195H5.49976Z" fill="#15153A"/>
</g>
<defs>
<clipPath id="clip0_358_2218">
<rect width="16" height="16" fill="white"/>
</clipPath>
</defs>
</svg>
