<svg width="14" height="14" viewBox="0 0 14 14" fill="none" xmlns="http://www.w3.org/2000/svg">
<path d="M2.75 9.16667C3.07217 9.16667 3.33333 8.9055 3.33333 8.58333C3.33333 8.26117 3.07217 8 2.75 8V9.16667ZM1 7.41667L0.416667 7.41667L1 7.41667ZM2.16667 1L2.16667 0.416667L2.16667 1ZM7.41667 1V0.416667V1ZM8 2.75C8 3.07217 8.26117 3.33333 8.58333 3.33333C8.9055 3.33333 9.16667 3.07217 9.16667 2.75H8ZM6.25 5.66667H11.5V4.5H6.25V5.66667ZM11.5 5.66667C11.8222 5.66667 12.0833 5.92783 12.0833 6.25H13.25C13.25 5.2835 12.4665 4.5 11.5 4.5V5.66667ZM12.0833 6.25V11.5H13.25V6.25H12.0833ZM12.0833 11.5C12.0833 11.8222 11.8222 12.0833 11.5 12.0833V13.25C12.4665 13.25 13.25 12.4665 13.25 11.5H12.0833ZM11.5 12.0833H6.25V13.25H11.5V12.0833ZM6.25 12.0833C5.92783 12.0833 5.66667 11.8222 5.66667 11.5H4.5C4.5 12.4665 5.2835 13.25 6.25 13.25V12.0833ZM5.66667 11.5V6.25H4.5V11.5H5.66667ZM5.66667 6.25C5.66667 5.92783 5.92783 5.66667 6.25 5.66667V4.5C5.2835 4.5 4.5 5.2835 4.5 6.25H5.66667ZM2.75 8H2.16667V9.16667H2.75V8ZM2.16667 8C2.01196 8 1.86358 7.93854 1.75419 7.82915L0.92923 8.6541C1.25742 8.98229 1.70254 9.16667 2.16667 9.16667V8ZM1.75419 7.82915C1.64479 7.71975 1.58333 7.57138 1.58333 7.41667L0.416667 7.41667C0.416667 7.8808 0.601041 8.32591 0.92923 8.6541L1.75419 7.82915ZM1.58333 7.41667V2.16667H0.416667V7.41667H1.58333ZM1.58333 2.16667C1.58333 2.01196 1.64479 1.86358 1.75419 1.75419L0.92923 0.92923C0.601041 1.25742 0.416667 1.70254 0.416667 2.16667H1.58333ZM1.75419 1.75419C1.86358 1.64479 2.01196 1.58333 2.16667 1.58333L2.16667 0.416667C1.70254 0.416667 1.25742 0.601041 0.92923 0.92923L1.75419 1.75419ZM2.16667 1.58333H7.41667V0.416667H2.16667V1.58333ZM7.41667 1.58333C7.57138 1.58333 7.71975 1.64479 7.82915 1.75419L8.6541 0.92923C8.32591 0.601041 7.8808 0.416667 7.41667 0.416667L7.41667 1.58333ZM7.82915 1.75419C7.93854 1.86358 8 2.01196 8 2.16667H9.16667C9.16667 1.70254 8.98229 1.25742 8.6541 0.92923L7.82915 1.75419ZM8 2.16667V2.75H9.16667V2.16667H8Z" fill="#A4A4A4"/>
</svg>
