<svg width="25" height="25" viewBox="0 0 25 25" fill="none" xmlns="http://www.w3.org/2000/svg">
<path d="M22.4903 13.4542C22.4965 13.4142 22.4997 13.3738 22.5 13.3333V8.33333C22.4983 6.78677 21.8831 5.30405 20.7895 4.21046C19.696 3.11688 18.2132 2.50174 16.6667 2.5H8.33333C6.78677 2.50174 5.30405 3.11688 4.21046 4.21046C3.11688 5.30405 2.50174 6.78677 2.5 8.33333V16.6667C2.50174 18.2132 3.11688 19.696 4.21046 20.7895C5.30405 21.8831 6.78677 22.4983 8.33333 22.5H13.3333C13.3738 22.4997 13.4142 22.4965 13.4542 22.4903C13.4617 22.4892 13.4692 22.4882 13.4767 22.4869C13.5159 22.4801 13.5547 22.4706 13.5926 22.4583L13.5969 22.4573C16.3295 21.5464 21.5464 16.3295 22.4573 13.5969L22.4583 13.5927C22.4706 13.5548 22.4801 13.516 22.4868 13.4767C22.4881 13.4692 22.4892 13.4617 22.4903 13.4541V13.4542ZM4.16667 16.6667V8.33333C4.16793 7.22865 4.60733 6.16958 5.38846 5.38846C6.16958 4.60733 7.22865 4.16793 8.33333 4.16667H16.6667C17.7713 4.16793 18.8304 4.60733 19.6115 5.38846C20.3927 6.16958 20.8321 7.22865 20.8333 8.33333V12.5H18.3333C16.7868 12.5017 15.304 13.1169 14.2105 14.2105C13.1169 15.304 12.5017 16.7868 12.5 18.3333V20.8333H8.33333C7.22865 20.8321 6.16958 20.3927 5.38846 19.6115C4.60733 18.8304 4.16793 17.7713 4.16667 16.6667V16.6667ZM14.1667 20.3269V18.3333C14.1679 17.2287 14.6073 16.1696 15.3885 15.3885C16.1696 14.6073 17.2287 14.1679 18.3333 14.1667H20.3269C19.0597 16.1983 16.1984 19.0598 14.1667 20.3269Z" fill="#A4A4A4"/>
</svg>
