<svg width="16" height="13" viewBox="0 0 16 13" fill="none" xmlns="http://www.w3.org/2000/svg">
<g clip-path="url(#clip0_169_1380)">
<path d="M7.54223 9.13655C5.4127 9.13655 3.28088 9.13764 1.14676 9.1398C1.0096 9.1398 0.949468 9.11446 0.927546 8.95725C0.773469 7.87367 0.608118 6.79203 0.44715 5.70909C0.315621 4.82364 0.18785 3.93754 0.054441 3.05274C0.0137295 2.77989 0.0801206 2.58631 0.273657 2.46093C0.467193 2.33555 0.668872 2.36089 0.882451 2.5259C1.78186 3.22317 2.67919 3.92044 3.57442 4.61771C4.02788 4.97111 4.40682 4.90549 4.72123 4.41567C5.46949 3.25152 6.21775 2.08738 6.966 0.923242C7.17958 0.59193 7.43951 0.481493 7.74766 0.583486C7.92805 0.642602 8.03828 0.782937 8.1385 0.938848C8.82495 2.00944 9.51246 3.07938 10.201 4.14868C10.2762 4.26561 10.3501 4.38319 10.4265 4.49882C10.672 4.87106 11.0823 4.95357 11.433 4.68202C12.0449 4.21364 12.6518 3.73745 13.2606 3.26387C13.5694 3.02415 13.8801 2.78705 14.1845 2.54279C14.3786 2.38687 14.5809 2.3245 14.8058 2.45573C15.015 2.57721 15.0764 2.76885 15.0319 3.07223C14.8173 4.51788 14.6041 5.96331 14.3924 7.40852C14.316 7.92823 14.2296 8.44145 14.1632 8.96051C14.1438 9.10927 14.0893 9.13915 13.9565 9.13915C11.8194 9.13569 9.68136 9.13482 7.54223 9.13655Z" fill="#FAB647"/>
<path d="M0.958507 10.2812H14.124C14.1429 10.4102 14.1477 10.541 14.1384 10.671C14.1384 11.0387 14.1415 11.4058 14.1384 11.7754C14.1346 12.2483 13.8465 12.5472 13.3949 12.5472C9.49623 12.5472 5.59753 12.5472 1.69883 12.5472C1.28232 12.5472 0.982934 12.2932 0.964144 11.8722C0.94097 11.3499 0.958507 10.8256 0.958507 10.2812Z" fill="#FAB647"/>
</g>
<defs>
<clipPath id="clip0_169_1380">
<rect width="15" height="12" fill="white" transform="translate(0.0458984 0.546875)"/>
</clipPath>
</defs>
</svg>
