<svg width="25" height="27" viewBox="0 0 25 27" fill="none" xmlns="http://www.w3.org/2000/svg">
<g clip-path="url(#clip0_178_1436)">
<path d="M7.64079 26.9996C5.79338 26.9736 3.98935 26.7306 2.3027 25.8949C1.61687 25.5731 1.01242 25.0956 0.535654 24.4991C0.0253199 23.8428 -0.044851 23.0838 0.0253199 22.2897C0.15711 20.4368 0.846795 18.6705 2.00031 17.2315C2.27717 16.8819 2.58338 16.5908 3.06437 16.6428C3.25126 16.6541 3.43088 16.7206 3.58131 16.8342C3.73174 16.9477 3.84648 17.1034 3.91153 17.2822C3.9895 17.4671 4.01244 17.6712 3.97751 17.8692C3.94258 18.0672 3.85132 18.2504 3.71504 18.396C3.03323 19.1972 2.54167 20.1475 2.27845 21.1734C2.15974 21.677 2.08333 22.19 2.05007 22.7069C2.03475 22.8685 2.06216 23.0314 2.12947 23.1785C2.19677 23.3257 2.30151 23.4519 2.43282 23.5439C3.09243 24.0819 3.86814 24.3691 4.67447 24.5589C7.0067 25.1086 9.31979 25.0657 11.5972 24.2639C12.0706 24.1044 12.5119 23.8592 12.8998 23.54C13.0235 23.4477 13.1225 23.3251 13.1876 23.1836C13.2527 23.0422 13.2819 22.8863 13.2723 22.7303C13.226 21.1306 12.6352 19.597 11.601 18.3921C11.2948 18.0321 11.1991 17.6396 11.4071 17.1964C11.4935 17.0096 11.6336 16.854 11.8088 16.75C11.984 16.6461 12.186 16.5987 12.3882 16.6142C12.521 16.6207 12.6511 16.6548 12.7705 16.7145C12.8898 16.7742 12.9959 16.8581 13.0822 16.9612C14.2909 18.3239 15.0495 20.0384 15.2512 21.8634C15.3272 22.3444 15.3383 22.8337 15.2843 23.3178C15.1567 24.1716 14.6464 24.785 13.9957 25.2867C12.9674 26.0769 11.7745 26.4733 10.5306 26.7254C9.57928 26.9189 8.61079 27.0108 7.64079 26.9996V26.9996Z" fill="#A4A4A4"/>
<path d="M22.4367 5.20636C22.4351 6.23421 22.1346 7.23854 21.5729 8.09241C21.0112 8.94628 20.2136 9.61137 19.281 10.0036C18.3483 10.3959 17.3225 10.4977 16.333 10.2963C15.3436 10.0948 14.435 9.59909 13.722 8.87175C13.0091 8.14441 12.5238 7.21811 12.3275 6.2099C12.1312 5.20169 12.2327 4.15683 12.6192 3.20737C13.0057 2.25792 13.6598 1.44646 14.4988 0.875575C15.3379 0.304694 16.3243 1.15633e-06 17.3333 0C18.0041 -7.68756e-07 18.6684 0.13472 19.288 0.39646C19.9077 0.658199 20.4706 1.04184 20.9446 1.52539C21.4186 2.00895 21.7944 2.58296 22.0504 3.21458C22.3064 3.8462 22.4377 4.52302 22.4367 5.20636ZM17.3231 8.30471C17.9296 8.30883 18.5236 8.1294 19.0298 7.78917C19.536 7.44895 19.9317 6.96325 20.1666 6.39368C20.4014 5.82411 20.465 5.19631 20.3492 4.58989C20.2333 3.98347 19.9433 3.42576 19.5159 2.98746C19.0885 2.54916 18.543 2.25002 17.9484 2.12797C17.3539 2.00592 16.7372 2.06649 16.1765 2.30194C15.6158 2.5374 15.1364 2.93714 14.799 3.45052C14.4616 3.9639 14.2815 4.56779 14.2815 5.18558C14.2815 6.00924 14.6013 6.79944 15.1711 7.3838C15.741 7.96816 16.5146 8.29922 17.3231 8.30471V8.30471Z" fill="#A4A4A4"/>
<path d="M7.64996 6.22852C8.3242 6.22745 8.99196 6.36268 9.61452 6.62641C10.2371 6.89013 10.8021 7.27709 11.2767 7.76486C11.7514 8.25263 12.1264 8.83149 12.3798 9.46794C12.6333 10.1044 12.7602 10.7858 12.7533 11.4725C12.7533 14.3123 10.444 16.6139 7.61169 16.6113C4.83803 16.6113 2.55301 14.2603 2.55811 11.4128C2.56182 10.0385 3.09955 8.7217 4.05373 7.7502C5.00791 6.77871 6.30089 6.23161 7.64996 6.22852V6.22852ZM7.64231 14.5332C8.24862 14.5365 8.84224 14.3565 9.34796 14.0158C9.85368 13.6751 10.2487 13.1891 10.483 12.6195C10.7173 12.0498 10.7803 11.4221 10.6641 10.816C10.5478 10.2098 10.2575 9.65246 9.82994 9.21455C9.40238 8.77664 8.8568 8.4779 8.26238 8.35617C7.66796 8.23444 7.05145 8.2952 6.49098 8.53078C5.9305 8.76635 5.45131 9.16612 5.11411 9.67942C4.77692 10.1927 4.5969 10.7964 4.5969 11.4141C4.59688 12.2384 4.91721 13.0292 5.48786 13.6137C6.05852 14.1981 6.8331 14.5287 7.64231 14.5332Z" fill="#A4A4A4"/>
<path d="M17.6689 20.7715C17.4789 20.7759 17.289 20.7633 17.1012 20.7338C16.8643 20.67 16.6578 20.5216 16.5195 20.3155C16.3812 20.1095 16.3202 19.8597 16.3478 19.6117C16.3753 19.3637 16.4895 19.1341 16.6695 18.9648C16.8496 18.7954 17.0834 18.6977 17.3282 18.6895C18.6819 18.6726 20.0279 18.5517 21.2833 18.0215C23.22 17.204 23.1027 16.9752 22.7722 15.1739C22.5592 14.0173 22.0067 13.0153 21.2514 12.1263C20.7411 11.5207 20.9503 10.6577 21.6763 10.4238C22.1139 10.2821 22.4865 10.4108 22.7901 10.7617C23.7862 11.9033 24.4754 13.2881 24.7906 14.7815C24.8859 15.268 24.9507 15.7603 24.9845 16.2553C25.0955 17.4782 24.5686 18.3776 23.636 19.0794C22.6 19.8592 21.4084 20.249 20.1657 20.5012C19.3419 20.6596 18.507 20.75 17.6689 20.7715V20.7715Z" fill="#A4A4A4"/>
</g>
<defs>
<clipPath id="clip0_178_1436">
<rect width="25" height="27" fill="white"/>
</clipPath>
</defs>
</svg>
