<svg width="19" height="19" viewBox="0 0 19 19" fill="none" xmlns="http://www.w3.org/2000/svg">
<g clip-path="url(#clip0_181_1829)">
<path d="M12.3575 14.3775C13.0749 13.9459 13.692 13.3663 14.1675 12.6773C14.4217 12.3058 14.6294 11.9045 14.786 11.4825H9.7312V7.75013C9.78844 7.69811 9.86054 7.72115 9.92521 7.72115C12.8327 7.72115 15.7399 7.72115 18.6469 7.72115C18.7666 7.72115 18.8432 7.72115 18.8699 7.88388C19.308 10.6495 18.6767 13.1427 16.9759 15.3635C16.553 15.905 16.0717 16.3982 15.5405 16.834C15.511 16.8556 15.4803 16.8752 15.4483 16.8927C15.3702 16.8318 15.2922 16.7716 15.2156 16.7092L12.3575 14.3775Z" fill="white" fill-opacity="0.6"/>
<path d="M1.06824 5.14793C1.3616 4.53423 1.73531 3.96226 2.17954 3.44706C3.64394 1.70311 5.48893 0.579601 7.73236 0.172405C10.6136 -0.347736 13.2116 0.321017 15.5093 2.14151C15.5257 2.15824 15.5406 2.1764 15.5539 2.19575L14.7674 2.84073C14.0493 3.42774 13.3298 4.01327 12.6117 4.60401C12.5801 4.63983 12.5362 4.66246 12.4887 4.66742C12.4412 4.67237 12.3935 4.65929 12.3552 4.63076C9.27852 2.86896 5.47258 4.22133 4.20219 7.52943C4.18733 7.56955 4.16726 7.60819 4.14942 7.64683L2.93181 6.65856L1.06824 5.14793Z" fill="white"/>
<path d="M12.3574 14.3774L15.2119 16.7069C15.2862 16.7693 15.3665 16.8295 15.4445 16.8904C14.8141 17.418 14.1102 17.851 13.355 18.1759C11.8445 18.8447 10.2597 19.1256 8.61909 18.9457C5.30376 18.5831 2.82097 16.9261 1.15735 14.0416C1.14967 14.0247 1.14393 14.007 1.14026 13.9888L4.20211 11.4884C4.49012 12.2193 4.91955 12.8861 5.46581 13.4508C6.3275 14.3279 7.45174 14.9002 8.66812 15.0811C9.8845 15.262 11.1267 15.0415 12.2065 14.4532C12.2585 14.4272 12.3083 14.4027 12.3574 14.3774Z" fill="white"/>
<path d="M4.20218 11.4885L1.1381 13.9889C0.620125 13.0606 0.274352 12.0463 0.117478 10.9951C-0.196575 9.05569 0.103607 7.06668 0.976046 5.30622C1.00281 5.25123 1.037 5.20071 1.06822 5.14795L2.9318 6.65859L4.15089 7.64611C3.91901 8.35631 3.82071 9.1033 3.86099 9.84928C3.89987 10.4086 4.01465 10.9601 4.20218 11.4885V11.4885Z" fill="white"/>
</g>
<defs>
<clipPath id="clip0_181_1829">
<rect width="19" height="19" fill="white"/>
</clipPath>
</defs>
</svg>
