<svg width="27" height="27" viewBox="0 0 27 27" fill="none" xmlns="http://www.w3.org/2000/svg">
<path d="M2.66789 12.7929C2.27737 13.1834 2.27737 13.8166 2.66789 14.2071C3.05842 14.5976 3.69158 14.5976 4.08211 14.2071L2.66789 12.7929ZM13.5 3.375L14.2071 2.66789C13.8166 2.27737 13.1834 2.27737 12.7929 2.66789L13.5 3.375ZM22.9179 14.2071C23.3084 14.5976 23.9416 14.5976 24.3321 14.2071C24.7226 13.8166 24.7226 13.1834 24.3321 12.7929L22.9179 14.2071ZM4.08211 14.2071L6.33211 11.9571L4.91789 10.5429L2.66789 12.7929L4.08211 14.2071ZM6.33211 11.9571L14.2071 4.08211L12.7929 2.66789L4.91789 10.5429L6.33211 11.9571ZM12.7929 4.08211L20.6679 11.9571L22.0821 10.5429L14.2071 2.66789L12.7929 4.08211ZM20.6679 11.9571L22.9179 14.2071L24.3321 12.7929L22.0821 10.5429L20.6679 11.9571ZM4.625 11.25V22.5H6.625V11.25H4.625ZM6.75 24.625H10.125V22.625H6.75V24.625ZM12.25 22.5V18H10.25V22.5H12.25ZM12.375 17.875H14.625V15.875H12.375V17.875ZM14.75 18V22.5H16.75V18H14.75ZM16.875 24.625H20.25V22.625H16.875V24.625ZM22.375 22.5V11.25H20.375V22.5H22.375ZM20.25 24.625C21.4236 24.625 22.375 23.6736 22.375 22.5H20.375C20.375 22.569 20.319 22.625 20.25 22.625V24.625ZM14.75 22.5C14.75 23.6736 15.7014 24.625 16.875 24.625V22.625C16.806 22.625 16.75 22.569 16.75 22.5H14.75ZM14.625 17.875C14.694 17.875 14.75 17.931 14.75 18H16.75C16.75 16.8264 15.7986 15.875 14.625 15.875V17.875ZM12.25 18C12.25 17.931 12.306 17.875 12.375 17.875V15.875C11.2014 15.875 10.25 16.8264 10.25 18H12.25ZM10.125 24.625C11.2986 24.625 12.25 23.6736 12.25 22.5H10.25C10.25 22.569 10.194 22.625 10.125 22.625V24.625ZM4.625 22.5C4.625 23.6736 5.57639 24.625 6.75 24.625V22.625C6.68096 22.625 6.625 22.569 6.625 22.5H4.625ZM10.125 24.625H16.875V22.625H10.125V24.625Z" fill="#A4A4A4"/>
</svg>
