<svg width="16" height="16" viewBox="0 0 16 16" fill="none" xmlns="http://www.w3.org/2000/svg">
<g clip-path="url(#clip0_243_2598)">
<path d="M0.0012171 7.80065C0.0012171 6.01849 0.0012171 4.23632 0.0012171 2.45416C-0.0012142 2.13159 0.0604663 1.81175 0.182677 1.51322C0.304887 1.21468 0.485192 0.943407 0.71312 0.715139C0.941048 0.48687 1.21206 0.306171 1.51041 0.183515C1.80876 0.0608589 2.1285 -0.00129466 2.45108 0.00065483C6.0215 0.00065483 9.59152 0.00065483 13.1611 0.00065483C13.8074 -0.000479367 14.4276 0.255104 14.8854 0.711205C15.3432 1.16731 15.6012 1.78658 15.6024 2.43282C15.6024 2.93533 15.6024 3.43781 15.6024 3.94032C15.6051 4.03813 15.588 4.13546 15.5524 4.22659C15.5168 4.31771 15.4632 4.40078 15.395 4.47087C15.3267 4.54096 15.2451 4.59666 15.1549 4.63468C15.0648 4.67271 14.9679 4.6923 14.8701 4.69226C14.7723 4.69229 14.6755 4.67273 14.5853 4.63474C14.4952 4.59676 14.4136 4.5411 14.3454 4.47108C14.2771 4.40105 14.2236 4.31809 14.1879 4.22703C14.1522 4.13598 14.1351 4.0387 14.1377 3.94094C14.1377 3.45268 14.1377 2.96442 14.1377 2.47615C14.1377 1.88108 13.7165 1.46115 13.1221 1.46115C9.5724 1.46115 6.02272 1.46115 2.47305 1.46115C1.88713 1.46115 1.46296 1.88231 1.46235 2.46578C1.46235 6.01993 1.46235 9.57406 1.46235 13.1282C1.46235 13.7123 1.88591 14.1347 2.47122 14.1347C6.02659 14.1347 9.58135 14.1347 13.1355 14.1347C13.2677 14.1382 13.3993 14.1148 13.5223 14.0659C13.6452 14.017 13.7569 13.9436 13.8506 13.8502C13.9444 13.7569 14.0181 13.6454 14.0675 13.5227C14.1168 13.3999 14.1407 13.2684 14.1377 13.1361C14.1377 12.6436 14.1377 12.1511 14.1377 11.6585C14.1377 11.2313 14.4556 10.906 14.867 10.9054C14.9647 10.9054 15.0614 10.9249 15.1514 10.9628C15.2415 11.0007 15.323 11.0562 15.3912 11.1261C15.4595 11.196 15.5131 11.2789 15.5488 11.3698C15.5846 11.4607 15.6018 11.5578 15.5994 11.6555C15.5994 12.1737 15.5994 12.693 15.5994 13.2094C15.5921 14.3831 14.6723 15.4188 13.509 15.572C13.3783 15.589 13.2466 15.5976 13.1147 15.5976H2.48342C1.27253 15.5976 0.300278 14.8127 0.0463809 13.6287C0.0137966 13.4695 -0.00175319 13.3072 -4.75075e-06 13.1447C0.00202968 11.3642 0.00243776 9.58281 0.0012171 7.80065Z" fill="black"/>
<path d="M13.0664 8.53129H12.904C10.8942 8.53129 8.88425 8.53129 6.87405 8.53129C6.7455 8.53449 6.6184 8.50355 6.5057 8.44163C6.393 8.37971 6.29872 8.28903 6.23248 8.17881C6.16624 8.06859 6.1304 7.94278 6.12861 7.8142C6.12682 7.68563 6.15915 7.55887 6.2223 7.44686C6.28585 7.3274 6.38209 7.22851 6.49977 7.16172C6.61746 7.09494 6.75172 7.06303 6.88687 7.06973C8.89219 7.06973 10.8973 7.06973 12.9022 7.06973H13.0957C13.0475 7.01847 13.0194 6.98672 12.9901 6.95743C12.5306 6.4979 12.068 6.04206 11.6127 5.57826C11.2069 5.16389 11.3686 4.50601 11.9105 4.34856C12.0396 4.30747 12.1778 4.30425 12.3087 4.3393C12.4396 4.37434 12.5577 4.44619 12.649 4.5463L13.737 5.63255C14.268 6.16389 14.7989 6.69542 15.3298 7.22716C15.696 7.59331 15.696 8.00831 15.3298 8.37324C14.4401 9.26341 13.5497 10.1532 12.6587 11.0425C12.237 11.4618 11.581 11.3141 11.4162 10.7643C11.3302 10.4774 11.4058 10.2254 11.6182 10.0136C12.0747 9.55917 12.5308 9.10371 12.9864 8.64723C13.0151 8.61855 13.0475 8.59476 13.0804 8.56913L13.0664 8.53129Z" fill="black"/>
</g>
<defs>
<clipPath id="clip0_243_2598">
<rect width="15.6073" height="15.6" fill="white"/>
</clipPath>
</defs>
</svg>
