<svg width="26" height="26" viewBox="0 0 26 26" fill="none" xmlns="http://www.w3.org/2000/svg">
<path d="M18.1575 15.9712C17.6662 15.971 17.1798 16.0704 16.7272 16.2633C16.2747 16.4562 15.8651 16.7388 15.5228 17.0944L11.2788 14.342C11.6121 13.4783 11.6121 12.52 11.2788 11.6563L15.5228 8.90403C16.1599 9.56149 17.0162 9.95692 17.9259 10.0137C18.8355 10.0704 19.7336 9.78445 20.4462 9.21119C21.1587 8.63792 21.6349 7.8182 21.7824 6.91092C21.9299 6.00364 21.7383 5.07342 21.2446 4.30057C20.7509 3.52773 19.9904 2.9673 19.1105 2.72794C18.2305 2.48857 17.2938 2.58731 16.4819 3.00501C15.67 3.42271 15.0407 4.12963 14.7161 4.98874C14.3915 5.84784 14.3946 6.79793 14.7248 7.65485L10.4808 10.4072C9.96974 9.87785 9.3138 9.51426 8.59683 9.36292C7.87986 9.21158 7.13443 9.27938 6.45586 9.55764C5.77728 9.83591 5.19638 10.312 4.78741 10.925C4.37845 11.5381 4.16 12.2603 4.16 12.9992C4.16 13.7381 4.37845 14.4603 4.78741 15.0734C5.19638 15.6864 5.77728 16.1625 6.45586 16.4408C7.13443 16.719 7.87986 16.7868 8.59683 16.6355C9.3138 16.4841 9.96974 16.1205 10.4808 15.5912L14.7248 18.3435C14.4407 19.0831 14.3988 19.8951 14.6051 20.6605C14.8115 21.4259 15.2554 22.1046 15.8718 22.5971C16.4881 23.0897 17.2446 23.3703 18.0304 23.3977C18.8163 23.4252 19.5902 23.1982 20.2389 22.7499C20.8876 22.3016 21.377 21.6556 21.6354 20.9064C21.8939 20.1572 21.9078 19.3443 21.6751 18.5866C21.4425 17.8288 20.9755 17.1662 20.3425 16.6956C19.7095 16.2249 18.9438 15.9711 18.1575 15.9712V15.9712ZM18.1575 4.08314C18.5945 4.08314 19.0217 4.21386 19.3851 4.45879C19.7484 4.70372 20.0316 5.05184 20.1989 5.45914C20.3661 5.86644 20.4099 6.31462 20.3246 6.74701C20.2394 7.1794 20.0289 7.57657 19.7199 7.8883C19.4109 8.20004 19.0172 8.41233 18.5886 8.49834C18.1599 8.58434 17.7157 8.5402 17.3119 8.37149C16.9082 8.20278 16.5631 7.91709 16.3203 7.55053C16.0775 7.18397 15.9479 6.75301 15.9479 6.31215C15.9486 5.72118 16.1816 5.15461 16.5958 4.73673C17.0101 4.31885 17.5717 4.0838 18.1575 4.08314V4.08314ZM7.84617 15.2282C7.40916 15.2282 6.98196 15.0975 6.6186 14.8526C6.25524 14.6076 5.97203 14.2595 5.8048 13.8522C5.63756 13.4449 5.5938 12.9967 5.67906 12.5643C5.76432 12.132 5.97476 11.7348 6.28377 11.423C6.59279 11.1113 6.98649 10.899 7.41511 10.813C7.84372 10.727 8.28799 10.7711 8.69174 10.9399C9.09548 11.1086 9.44057 11.3943 9.68336 11.7608C9.92615 12.1274 10.0557 12.5583 10.0557 12.9992C10.0551 13.5902 9.82208 14.1567 9.40785 14.5746C8.99362 14.9925 8.43198 15.2276 7.84617 15.2282V15.2282ZM18.1575 21.9153C17.7205 21.9153 17.2933 21.7845 16.9299 21.5396C16.5666 21.2947 16.2834 20.9466 16.1161 20.5393C15.9489 20.132 15.9051 19.6838 15.9904 19.2514C16.0756 18.819 16.2861 18.4218 16.5951 18.1101C16.9041 17.7984 17.2978 17.5861 17.7264 17.5001C18.155 17.4141 18.5993 17.4582 19.0031 17.6269C19.4068 17.7956 19.7519 18.0813 19.9947 18.4479C20.2375 18.8144 20.3671 19.2454 20.3671 19.6862C20.3664 20.2772 20.1334 20.8438 19.7192 21.2617C19.3049 21.6795 18.7433 21.9146 18.1575 21.9153Z" fill="#A4A4A4"/>
</svg>
