<svg width="104" height="104" viewBox="0 0 104 104" fill="none" xmlns="http://www.w3.org/2000/svg">
<path opacity="0.04" d="M52 104C80.7188 104 104 80.7188 104 52C104 23.2812 80.7188 0 52 0C23.2812 0 0 23.2812 0 52C0 80.7188 23.2812 104 52 104Z" fill="#007FFF"/>
<path d="M79.9025 36.467L68.8699 42.1278L33.4623 60.2904L22.4298 65.9512C20.2591 61.5906 19.0244 56.6499 19.0244 51.4291C19.0244 33.5265 33.4623 19.0244 51.2856 19.0244C63.732 19.0244 74.5256 26.1054 79.9025 36.467Z" fill="#007FFF"/>
<path d="M83.7073 50.736C83.7073 68.9516 69.1503 83.7073 51.1801 83.7073C43.2892 83.7073 36.0609 80.858 30.439 76.1361L40.4782 67.9137L70.0137 43.7347L80.053 35.5122C82.3821 40.0712 83.7073 45.2408 83.7073 50.736Z" fill="#007FFF"/>
<path d="M68.488 41.2287L33.7216 59.6097C32.431 56.9173 31.7075 53.8606 31.7075 50.6419C31.7075 39.4878 40.448 30.439 51.2221 30.439C58.7112 30.439 65.2225 34.8115 68.488 41.2287Z" fill="#15153A"/>
<path d="M71.0245 51.2174C71.0245 62.1529 62.1373 71.0243 51.1824 71.0243C47.2856 71.0243 43.6472 69.893 40.5854 67.9679L69.8316 44.3901C70.607 46.5137 71.0245 48.8159 71.0245 51.2174Z" fill="#15153A"/>
<path opacity="0.14" d="M51.9999 92.5853C74.4146 92.5853 92.5853 74.4146 92.5853 51.9999C92.5853 29.5852 74.4146 11.4146 51.9999 11.4146C29.5852 11.4146 11.4146 29.5852 11.4146 51.9999C11.4146 74.4146 29.5852 92.5853 51.9999 92.5853Z" fill="#007FFF"/>
</svg>
