<svg width="25" height="25" viewBox="0 0 25 25" fill="none" xmlns="http://www.w3.org/2000/svg">
<path d="M12.002 0.258819C11.6943 0.376007 11.3916 0.576202 11.2402 0.766632C11.1621 0.869171 10.5127 2.13382 9.7998 3.57425C8.7207 5.76663 8.48633 6.2012 8.39355 6.22562C8.33008 6.24026 7.01172 6.43558 5.46387 6.66019C3.45215 6.95316 2.58789 7.09964 2.42676 7.168C2.12891 7.29983 1.77734 7.63187 1.62109 7.9346C1.50391 8.14944 1.48926 8.23245 1.48926 8.66702C1.48926 9.10159 1.50391 9.17972 1.62109 9.40433C1.71875 9.58987 2.27051 10.1612 3.81836 11.67C4.95605 12.7832 5.91309 13.7354 5.94727 13.7891C6.00586 13.877 5.94727 14.2774 5.52246 16.7627C5.24902 18.3448 5.0293 19.6973 5.0293 19.7754C5.0293 20.2393 5.38574 20.8496 5.82031 21.1231C6.09375 21.2989 6.55273 21.4014 6.86523 21.3623C7.18262 21.3233 7.40234 21.2207 10.1807 19.751C11.3916 19.1162 12.4316 18.5938 12.5 18.5938C12.5684 18.5889 13.6328 19.126 14.8682 19.7754C17.9541 21.4014 17.8613 21.3623 18.3105 21.3575C18.6084 21.3575 18.7354 21.333 18.9844 21.2207C19.6094 20.9326 20.0293 20.2393 19.9561 19.6143C19.9365 19.4825 19.7119 18.1348 19.4531 16.6309C19.0479 14.2627 18.9941 13.877 19.0527 13.7891C19.0869 13.7354 20.0391 12.7881 21.167 11.6895C23.5645 9.35062 23.5107 9.41898 23.5107 8.66702C23.5107 8.23245 23.4961 8.15433 23.3789 7.9346C23.208 7.61722 22.8857 7.30472 22.583 7.17288C22.3975 7.08987 21.6699 6.9678 19.5312 6.6553C17.9883 6.43558 16.6699 6.24026 16.6113 6.22562C16.5137 6.2012 16.2793 5.75687 15.1807 3.53519C13.7598 0.664093 13.7354 0.620147 13.2227 0.361358C12.9102 0.200225 12.2998 0.151397 12.002 0.258819ZM12.71 1.59671C12.7832 1.6846 13.7402 3.57425 14.7949 5.73733C15.0928 6.3428 15.4004 6.89944 15.498 7.01663C15.6006 7.13382 15.8057 7.28519 15.9814 7.37308C16.2598 7.5098 16.4941 7.54886 19.165 7.93948C21.2793 8.24222 22.0654 8.37405 22.1289 8.43265C22.1777 8.47659 22.2168 8.57913 22.2168 8.67191C22.2168 8.81351 22.0361 9.00394 20.1172 10.8741C18.291 12.6465 17.9932 12.9541 17.8711 13.208C17.6172 13.7256 17.6172 13.7354 18.1641 16.9092C18.6279 19.5996 18.6523 19.7901 18.5791 19.9024C18.418 20.1514 18.4277 20.1563 15.6689 18.7061C13.54 17.5879 13.0078 17.3291 12.7832 17.295C12.2021 17.2071 12.1582 17.2217 9.33594 18.7061C6.57227 20.1612 6.58203 20.1563 6.4209 19.9024C6.34766 19.7901 6.37207 19.5948 6.83594 16.9092C7.38281 13.7354 7.38281 13.7256 7.12891 13.208C7.00684 12.9541 6.71387 12.6514 4.88281 10.8741C2.96387 9.00394 2.7832 8.81351 2.7832 8.67191C2.7832 8.57913 2.82227 8.47659 2.87109 8.43265C2.9541 8.35941 3.04199 8.34476 7.03125 7.7637C8.92578 7.49026 9.15039 7.42191 9.50195 7.01663C9.59961 6.89944 9.90723 6.3428 10.2051 5.73733C11.2598 3.57425 12.2168 1.6846 12.29 1.59671C12.334 1.55276 12.4268 1.5137 12.5 1.5137C12.5732 1.5137 12.666 1.55276 12.71 1.59671Z" fill="#15153A"/>
<path d="M4.84863 1.07423C4.65332 1.19142 4.54102 1.40138 4.54102 1.65528C4.54102 1.80665 4.59473 1.92384 4.77539 2.18751C5.39551 3.10548 5.63965 3.31544 5.98633 3.24708C6.32812 3.1836 6.58691 2.81251 6.52344 2.4756C6.48438 2.27052 5.69824 1.19142 5.50293 1.06935C5.30273 0.952158 5.04883 0.952158 4.84863 1.07423Z" fill="#15153A"/>
<path d="M19.5459 1.0498C19.4385 1.09374 19.2529 1.30371 18.9453 1.71386C18.3789 2.48535 18.3301 2.71484 18.6719 3.05664C19.0234 3.4082 19.3945 3.31054 19.8145 2.75878C20.3418 2.06054 20.459 1.86035 20.459 1.64062C20.459 1.38183 20.3076 1.13769 20.0928 1.04492C19.8877 0.961908 19.7461 0.961908 19.5459 1.0498Z" fill="#15153A"/>
<path d="M0.942384 14.7607C0.502931 14.9121 0.302735 15.0049 0.19043 15.1172C-0.107421 15.415 -0.0292961 15.9228 0.346681 16.123C0.581056 16.25 0.678712 16.2353 1.44531 15.9912C2.30469 15.7178 2.41699 15.625 2.41699 15.1806C2.41699 14.9023 2.40723 14.873 2.23633 14.7168C2.0752 14.5703 2.02149 14.5508 1.79688 14.5556C1.63086 14.5556 1.32324 14.6289 0.942384 14.7607Z" fill="#15153A"/>
<path d="M22.7637 14.7168C22.5928 14.873 22.583 14.9023 22.583 15.1806C22.583 15.6201 22.6953 15.7178 23.5498 15.9912C24.3066 16.2353 24.4189 16.25 24.6533 16.123C24.8877 15.9961 25.0098 15.7568 24.9854 15.4785C24.9463 15.1416 24.751 14.9902 24.0088 14.751C23.2227 14.4971 23.0127 14.4922 22.7637 14.7168Z" fill="#15153A"/>
<path d="M12.1729 22.4072C11.8652 22.5977 11.8408 22.6904 11.8408 23.5596C11.8408 24.2334 11.8555 24.3653 11.9287 24.4776C12.1289 24.7901 12.5293 24.8877 12.8272 24.707C13.1006 24.541 13.1494 24.4141 13.1738 23.8037C13.2031 23.0029 13.1641 22.7344 12.9688 22.5244C12.7637 22.2998 12.4219 22.251 12.1729 22.4072Z" fill="#15153A"/>
</svg>
