<svg width="27" height="26" viewBox="0 0 27 26" fill="none" xmlns="http://www.w3.org/2000/svg">
<path d="M12.9428 0.916239L12.9403 0.917147C12.6169 1.04038 12.2879 1.25366 12.1145 1.47182L12.1126 1.47423L12.1126 1.47425C12.0953 1.49695 12.0714 1.53782 12.0462 1.58246C12.0188 1.63113 11.9836 1.69572 11.9419 1.7739C11.8583 1.93041 11.7471 2.14393 11.6163 2.39877C11.3547 2.90858 11.0138 3.58551 10.6571 4.30624L10.6569 4.30653C10.1172 5.40321 9.78985 6.05774 9.58608 6.44103C9.48383 6.63336 9.41494 6.75308 9.36729 6.82511C9.34868 6.85324 9.33515 6.87127 9.32584 6.88238L9.28109 6.88967C9.23642 6.89677 9.17405 6.90642 9.0958 6.91835C8.93939 6.94218 8.7205 6.97495 8.45507 7.01431C7.92426 7.09302 7.20787 7.19797 6.43405 7.31026L6.43397 7.31028C5.42792 7.45679 4.7076 7.56684 4.21825 7.64891C3.9737 7.68992 3.78557 7.72416 3.64775 7.75264C3.51509 7.78006 3.41613 7.80458 3.3599 7.82843L3.35776 7.82934L3.35777 7.82936C3.18879 7.90415 3.0124 8.03158 2.85927 8.17695C2.70645 8.32204 2.56814 8.49321 2.48032 8.66278C2.41891 8.77549 2.37765 8.86606 2.35532 8.99042C2.33425 9.1077 2.33098 9.25055 2.33098 9.46555C2.33098 9.6806 2.33425 9.82219 2.35532 9.93945C2.37764 10.0637 2.41881 10.1553 2.47983 10.2722L2.48008 10.2727L2.48008 10.2727C2.5134 10.336 2.57674 10.4181 2.66642 10.5213C2.75869 10.6276 2.88736 10.7658 3.0599 10.9438C3.40516 11.3001 3.93142 11.8215 4.70538 12.5759M12.9428 0.916239L4.81008 12.4685M12.9428 0.916239C13.1212 0.851896 13.3732 0.838762 13.6109 0.858414C13.8497 0.878155 14.1019 0.933298 14.2826 1.02627C14.4101 1.09067 14.5236 1.14939 14.6361 1.24883C14.7485 1.34813 14.853 1.48158 14.9805 1.6885C15.233 2.09834 15.5985 2.83587 16.3068 4.26718L16.3068 4.26722C16.8565 5.37869 17.1887 6.04302 17.3956 6.43254C17.4994 6.62801 17.5693 6.74974 17.6179 6.82304C17.6375 6.85264 17.6516 6.87121 17.6611 6.88234C17.6716 6.88412 17.6863 6.88655 17.7058 6.88969C17.7499 6.89677 17.8118 6.90639 17.8897 6.91828C18.0452 6.94203 18.2635 6.97464 18.5283 7.01368C19.0578 7.09177 19.7728 7.19549 20.5441 7.30532L20.5447 7.3054C21.6139 7.46163 22.332 7.5705 22.8063 7.65078C23.0433 7.6909 23.2213 7.72417 23.3525 7.75294C23.4796 7.7808 23.5728 7.80646 23.6346 7.83388C23.9722 7.9809 24.3181 8.31917 24.5027 8.66201L24.503 8.66253C24.5642 8.77738 24.6057 8.86801 24.6281 8.99209C24.6492 9.10885 24.6525 9.25057 24.6525 9.46555C24.6525 9.48269 24.6525 9.49963 24.6525 9.51639C24.6529 9.67573 24.6532 9.81869 24.6193 9.96095C24.5802 10.1247 24.499 10.279 24.3482 10.4736C24.0672 10.836 23.5109 11.3786 22.4248 12.438C22.3723 12.4893 22.3185 12.5417 22.2635 12.5954L22.2634 12.5955C21.6997 13.1445 21.18 13.6556 20.7972 14.0361C20.6057 14.2263 20.4487 14.3836 20.3375 14.4966C20.2819 14.5531 20.2382 14.5981 20.2076 14.6303C20.1942 14.6445 20.1837 14.6557 20.1761 14.6641C20.1748 14.6763 20.174 14.6969 20.1752 14.7302C20.178 14.8074 20.1909 14.9313 20.2192 15.1325C20.2756 15.5332 20.3899 16.2192 20.5927 17.404C20.8513 18.907 21.0763 20.2568 21.0962 20.3908L21.0962 20.3908L21.0968 20.3954C21.1785 21.0928 20.7153 21.8437 20.0389 22.1555L20.0389 22.1555L20.0378 22.156C19.9083 22.2144 19.8028 22.2535 19.6871 22.2768C19.5725 22.2998 19.4548 22.306 19.3031 22.306L12.9428 0.916239ZM4.70538 12.5759L4.81008 12.4685M4.70538 12.5759C4.70531 12.5758 4.70524 12.5758 4.70517 12.5757L4.81008 12.4685M4.70538 12.5759C5.27394 13.1322 5.79722 13.6482 6.18254 14.0317C6.37527 14.2235 6.53321 14.3819 6.64496 14.4956C6.7009 14.5525 6.74482 14.5977 6.77558 14.6301C6.78885 14.6441 6.79922 14.6552 6.80685 14.6636M4.81008 12.4685C5.94778 13.5818 6.90481 14.5339 6.93899 14.5876C6.99758 14.6755 6.93899 15.0759 6.51418 17.5612M6.80685 14.6636C6.80666 14.6616 6.80646 14.6598 6.80625 14.6582C6.80573 14.6542 6.80529 14.6525 6.80528 14.6525C6.80526 14.6525 6.80683 14.659 6.81246 14.6681C6.813 14.669 6.81357 14.6699 6.81418 14.6708L6.81244 14.6681C6.81305 14.6691 6.81364 14.67 6.81419 14.6708C6.81641 14.6741 6.81799 14.6761 6.81798 14.6761C6.81796 14.6761 6.81589 14.6736 6.81039 14.6675C6.80928 14.6662 6.80811 14.6649 6.80685 14.6636ZM6.80685 14.6636C6.80807 14.6765 6.80875 14.6982 6.80721 14.7333C6.80367 14.814 6.78953 14.9436 6.75938 15.1541C6.69931 15.5734 6.57888 16.2924 6.36636 17.5358M6.36636 17.5358C6.36636 17.5358 6.36637 17.5357 6.36637 17.5357L6.51418 17.5612M6.36636 17.5358C6.36635 17.5359 6.36634 17.5359 6.36633 17.536L6.51418 17.5612M6.36636 17.5358C6.22958 18.3271 6.10622 19.0612 6.01702 19.6074C5.97243 19.8804 5.93633 20.1068 5.91135 20.27C5.89887 20.3516 5.88909 20.4178 5.88239 20.4665C5.8766 20.5086 5.87102 20.5512 5.87102 20.5739C5.87102 20.8406 5.972 21.1354 6.12415 21.395C6.27669 21.6553 6.48973 21.8958 6.73153 22.0482M6.51418 17.5612C6.24075 19.1433 6.02102 20.4958 6.02102 20.5739C6.02102 21.0378 6.37746 21.6482 6.81203 21.9216M6.81203 21.9216L6.73092 22.0478C6.73112 22.0479 6.73133 22.048 6.73153 22.0482M6.81203 21.9216C7.08547 22.0974 7.54446 22.1999 7.85696 22.1609L7.87556 22.3097C7.87551 22.3097 7.87547 22.3097 7.87542 22.3097C7.69713 22.332 7.48612 22.3134 7.2866 22.2681C7.08721 22.2227 6.88682 22.1479 6.73153 22.0482M6.81203 21.9216L6.73215 22.0486C6.73195 22.0484 6.73174 22.0483 6.73153 22.0482M19.5708 20.7009C19.5439 20.7425 19.5217 20.7773 19.4906 20.7997C19.3356 20.9109 18.9583 20.7124 16.6607 19.5046C14.5318 18.3864 13.9995 18.1277 13.7749 18.0935L19.5708 20.7009ZM19.5708 20.7009C19.6441 20.5886 19.6197 20.3982 19.1558 17.7077C18.6089 14.5339 18.6089 14.5241 18.8628 14.0066L19.5708 20.7009ZM12.8276 19.867C12.4089 20.0764 11.8471 20.3652 11.2422 20.6823L19.2723 22.3064C19.1772 22.3077 19.0884 22.3089 18.9787 22.2864C18.8588 22.2618 18.7193 22.2105 18.5071 22.1128C18.1173 21.9332 17.4477 21.5803 16.1424 20.8924C16.0298 20.833 15.9124 20.7712 15.7901 20.7067C15.1729 20.3823 14.5989 20.0861 14.171 19.8719C13.9569 19.7647 13.7804 19.6785 13.6536 19.6196C13.59 19.59 13.5406 19.5681 13.5059 19.554C13.5013 19.5521 13.4971 19.5504 13.4933 19.5489C13.4892 19.5506 13.4847 19.5524 13.4797 19.5545C13.4453 19.5688 13.3966 19.5906 13.3343 19.6197C13.21 19.6778 13.0371 19.7623 12.8276 19.867ZM17.6721 6.89389C17.6721 6.89383 17.6716 6.89338 17.6707 6.89267C17.6717 6.8936 17.6722 6.89396 17.6721 6.89389ZM9.31551 6.8937C9.31452 6.89448 9.314 6.89497 9.31398 6.89503C9.31395 6.8951 9.31446 6.89471 9.31551 6.8937ZM15.652 6.60207L15.6518 6.6016C15.1247 5.52059 14.6221 4.50802 14.2422 3.75491C14.0522 3.37829 13.8931 3.06693 13.7771 2.84448C13.719 2.73316 13.672 2.64473 13.6375 2.58175C13.6202 2.55017 13.6065 2.52581 13.5963 2.5085C13.5931 2.50305 13.5906 2.4989 13.5887 2.49582C13.5814 2.49076 13.569 2.4834 13.5516 2.47637C13.5264 2.4662 13.5042 2.46222 13.4917 2.46222C13.4792 2.46222 13.4571 2.4662 13.4319 2.47637C13.4144 2.4834 13.402 2.49075 13.3948 2.49581C13.3929 2.49889 13.3904 2.50305 13.3872 2.5085C13.377 2.52581 13.3633 2.55017 13.3459 2.58175C13.3114 2.64473 13.2645 2.73316 13.2064 2.84448C13.0903 3.06693 12.9312 3.37829 12.7412 3.75491C12.3613 4.50802 11.8587 5.52059 11.3316 6.6016L11.3314 6.60207C11.1816 6.90663 11.0291 7.19922 10.9016 7.43095C10.7775 7.65631 10.6689 7.83915 10.6089 7.91118L10.6089 7.9112L10.607 7.91345C10.5154 8.01903 10.4255 8.11041 10.3097 8.18867C10.1938 8.26706 10.0587 8.32774 9.88037 8.3817C9.53018 8.48765 8.98741 8.57458 8.04459 8.71066C6.0492 9.0013 5.03146 9.15 4.50188 9.23522C4.23563 9.27807 4.09849 9.304 4.02357 9.3229C3.98637 9.33229 3.97118 9.33835 3.96571 9.34093C3.96448 9.34151 3.96538 9.34071 3.96315 9.34268C3.96273 9.34321 3.95206 9.35541 3.94117 9.38472C3.93082 9.41259 3.92493 9.44375 3.92493 9.47043C3.92493 9.47053 3.92493 9.47061 3.92493 9.47067C3.92503 9.47112 3.92538 9.47243 3.92629 9.47478C3.9291 9.48202 3.93655 9.49744 3.956 9.52521C3.99586 9.58212 4.07145 9.67056 4.21371 9.81982C4.49634 10.1164 5.01873 10.6291 5.97914 11.5651C6.89393 12.453 7.42698 12.975 7.7465 13.3068C8.06382 13.6363 8.18328 13.7907 8.25582 13.9416L8.25723 13.9444C8.31897 14.0703 8.37407 14.1826 8.40536 14.3246C8.43705 14.4685 8.44283 14.634 8.42397 14.8729C8.38665 15.3456 8.24811 16.151 7.97548 17.7332L7.97547 17.7333C7.74331 19.0773 7.62181 19.7944 7.56732 20.1898C7.53987 20.3889 7.53069 20.4981 7.53133 20.562C7.53164 20.5929 7.53429 20.6074 7.53576 20.6132C7.53658 20.6164 7.53684 20.6168 7.53813 20.6187L7.53826 20.619L7.53827 20.619L7.53927 20.6205C7.56203 20.6564 7.57119 20.67 7.57943 20.6787C7.5796 20.6788 7.57976 20.679 7.5799 20.6791C7.5861 20.6799 7.60445 20.6804 7.64334 20.6715C7.68785 20.6612 7.74981 20.6407 7.83728 20.6048C8.19181 20.4594 8.87104 20.102 10.2578 19.3719L10.2578 19.3719C11.6648 18.6318 12.39 18.2523 12.835 18.0706C13.0599 17.9787 13.2234 17.9329 13.374 17.9188C13.5245 17.9047 13.653 17.9233 13.7974 17.9452L13.7975 17.9452C13.9369 17.9664 14.1477 18.0517 14.5695 18.2578C14.9991 18.4676 15.6663 18.8129 16.7304 19.3718L16.7305 19.3718C18.1147 20.0995 18.7928 20.4558 19.1469 20.6012C19.2342 20.6371 19.2962 20.6577 19.3408 20.6681C19.38 20.6773 19.3986 20.6768 19.4049 20.6761C19.405 20.6761 19.405 20.676 19.4051 20.6759C19.4131 20.6677 19.4221 20.6547 19.4449 20.6194L19.4452 20.619L19.4452 20.6189C19.4467 20.6166 19.4469 20.6163 19.4477 20.6131C19.4492 20.6076 19.4518 20.5934 19.4521 20.5627C19.4528 20.4992 19.4436 20.3905 19.4161 20.1916C19.3616 19.7968 19.2401 19.0798 19.008 17.7332C18.7353 16.151 18.5968 15.3456 18.5595 14.8729C18.5406 14.634 18.5464 14.4685 18.5781 14.3246C18.6094 14.1826 18.6645 14.0703 18.7262 13.9444L18.7276 13.9416C18.7277 13.9414 18.7278 13.9412 18.7279 13.941C18.8005 13.7902 18.9214 13.6346 19.2388 13.305C19.5589 12.9726 20.0919 12.4506 21.0042 11.5652C21.9647 10.6291 22.4871 10.1164 22.7697 9.81982C22.912 9.67056 22.9876 9.58212 23.0274 9.52521C23.0469 9.49744 23.0543 9.48202 23.0571 9.47478C23.0581 9.47243 23.0584 9.47112 23.0585 9.47067C23.0585 9.47061 23.0585 9.47053 23.0585 9.47043C23.0585 9.44375 23.0526 9.41259 23.0423 9.38472C23.0365 9.36928 23.0309 9.35858 23.0267 9.35184C23.024 9.35095 23.021 9.34996 23.0174 9.34888C22.9917 9.3409 22.9522 9.33081 22.896 9.31849C22.7841 9.294 22.6168 9.26306 22.3831 9.2241C21.9162 9.14629 21.1926 9.03786 20.1355 8.88649L20.1351 8.88643C18.8009 8.6913 18.0716 8.58347 17.6416 8.50729C17.2098 8.43081 17.0652 8.38394 16.907 8.30624L16.9061 8.30576C16.7172 8.21131 16.4951 8.049 16.3769 7.91393L16.3769 7.91396L16.3745 7.91118C16.3145 7.83915 16.2059 7.65631 16.0819 7.43095C15.9543 7.19922 15.8019 6.90663 15.652 6.60207Z" fill="#15153A" stroke="#15153A" stroke-width="0.3"/>
<path d="M7.51516 3.27412C7.57864 3.61103 7.31985 3.98213 6.97805 4.0456L7.00707 4.19277C7.0068 4.19282 7.00653 4.19288 7.00625 4.19293M7.51516 3.27412L7.00625 4.19293M7.51516 3.27412C7.4761 3.06904 6.68996 1.98994 6.49465 1.86787L7.51516 3.27412ZM7.00625 4.19293C7.22146 4.15271 7.40346 4.01784 7.52166 3.84814C7.63997 3.6783 7.70302 3.46104 7.66257 3.24635L7.66251 3.24605C7.65312 3.19676 7.62694 3.14025 7.60125 3.09074C7.57314 3.03655 7.53622 2.97343 7.49398 2.90568C7.40932 2.7699 7.29915 2.60894 7.18483 2.45167C7.07048 2.29436 6.95055 2.13878 6.84601 2.01395C6.79382 1.95163 6.74441 1.8957 6.70075 1.85059C6.65976 1.80826 6.6153 1.76639 6.57415 1.74067L6.57046 1.73836L6.57043 1.73842C6.32332 1.59377 6.0103 1.59344 5.76226 1.74468L5.84035 1.87275L5.76318 1.74413C5.51746 1.89156 5.38274 2.1536 5.38274 2.45381C5.38274 2.65517 5.46198 2.80604 5.64309 3.07041M7.00625 4.19293C6.90104 4.21357 6.79568 4.21437 6.68666 4.18164C6.57893 4.1493 6.47812 4.08737 6.37651 3.99872C6.17788 3.82542 5.95194 3.52757 5.64309 3.07041M5.64309 3.07041C5.643 3.07027 5.64291 3.07014 5.64282 3.07L5.76711 2.98603L5.64337 3.07082C5.64328 3.07068 5.64319 3.07054 5.64309 3.07041Z" fill="#15153A" stroke="#15153A" stroke-width="0.3"/>
<path d="M19.8161 2.42361L19.8161 2.42361L19.817 2.42238C19.9716 2.21636 20.098 2.05704 20.2009 1.94271C20.2523 1.88553 20.2998 1.83737 20.3436 1.7995C20.3853 1.76337 20.4308 1.73037 20.4788 1.71032C20.5905 1.66145 20.6961 1.63259 20.8082 1.6318C20.9204 1.631 21.0272 1.65844 21.1408 1.7044L21.1408 1.70436L21.144 1.70573C21.42 1.82495 21.6007 2.12766 21.6007 2.43914C21.6007 2.58395 21.5594 2.71503 21.4561 2.89382C21.3555 3.06789 21.1887 3.29969 20.9259 3.64771L20.9259 3.64771L20.9255 3.64815C20.7095 3.93197 20.486 4.12771 20.2472 4.1901C19.9917 4.25687 19.7588 4.16245 19.5575 3.96122C19.4663 3.87002 19.3899 3.77557 19.3444 3.66823C19.297 3.55649 19.287 3.4405 19.3128 3.31478C19.3377 3.19351 19.3952 3.06557 19.4777 2.92406C19.5606 2.78178 19.6736 2.61772 19.8161 2.42361Z" fill="#15153A" stroke="#15153A" stroke-width="0.3"/>
<path d="M3.32927 15.4047L3.32895 15.4044C3.24795 15.3307 3.17542 15.2708 3.08373 15.2372C2.99322 15.204 2.8983 15.2019 2.78688 15.2042C2.59289 15.2047 2.26478 15.2861 1.88504 15.4176L1.93411 15.5593M3.32927 15.4047L2.48252 16.9327C2.10474 17.053 1.87309 17.1233 1.70637 17.1437C1.61832 17.1545 1.54191 17.1525 1.46694 17.135C1.39368 17.1178 1.32998 17.0876 1.26742 17.0538C0.804563 16.8069 0.70579 16.18 1.07609 15.8097C1.2172 15.6686 1.45288 15.5664 1.88526 15.4175L1.93411 15.5593M3.32927 15.4047C3.41129 15.4797 3.48403 15.5481 3.5224 15.6475C3.55833 15.7405 3.55872 15.8485 3.55872 15.9792C3.55872 16.094 3.55189 16.2021 3.52071 16.3003M3.32927 15.4047L3.52071 16.3003M1.93411 15.5593C1.49465 15.7107 1.29446 15.8035 1.18215 15.9158C0.884301 16.2136 0.962426 16.7214 1.3384 16.9216L2.43704 16.7898C3.29641 16.5163 3.40872 16.4236 3.40872 15.9792C3.40872 15.7009 3.39895 15.6716 3.22805 15.5154C3.06692 15.3689 3.01321 15.3493 2.7886 15.3542C2.62258 15.3542 2.31497 15.4275 1.93411 15.5593ZM3.52071 16.3003C3.48779 16.4039 3.43014 16.4897 3.34117 16.5638M3.52071 16.3003L3.34117 16.5638M3.34117 16.5638C3.25615 16.6347 3.1452 16.6927 3.00852 16.749M3.34117 16.5638L3.00852 16.749M3.00852 16.749C2.87098 16.8056 2.69776 16.8642 2.48255 16.9327L3.00852 16.749Z" fill="#15153A" stroke="#15153A" stroke-width="0.3"/>
<path d="M23.6542 15.4047L23.6542 15.4047L23.6549 15.404C23.725 15.3408 23.7995 15.2871 23.8881 15.2512C23.9775 15.215 24.0728 15.2002 24.1806 15.2031C24.3873 15.2086 24.6564 15.2808 25.0465 15.4068C25.4169 15.5262 25.6736 15.6301 25.8425 15.7567C25.93 15.8224 25.9969 15.8961 26.0442 15.9834C26.0913 16.0702 26.1148 16.1626 26.1261 16.2598L26.1261 16.2598L26.1265 16.264C26.1557 16.5973 26.0073 16.896 25.7165 17.0535C25.653 17.0879 25.5882 17.1181 25.5136 17.1351C25.4379 17.1525 25.3604 17.1545 25.2713 17.1438C25.1018 17.1234 24.8691 17.0531 24.4956 16.9326C24.2816 16.8641 24.1092 16.8051 23.9723 16.748C23.8361 16.6913 23.7257 16.6327 23.6411 16.5615C23.5527 16.4871 23.4954 16.4014 23.4627 16.2982C23.4316 16.2003 23.4247 16.0929 23.4247 15.9792C23.4247 15.8485 23.4251 15.7405 23.461 15.6475C23.4994 15.5481 23.5722 15.4797 23.6542 15.4047Z" fill="#15153A" stroke="#15153A" stroke-width="0.3"/>
<path d="M13.8967 25.6338L13.8967 25.6338C13.5249 25.8593 13.0358 25.7337 12.7945 25.3575C12.7403 25.2743 12.7139 25.1872 12.6997 25.0422C12.6861 24.9024 12.6825 24.6934 12.6825 24.3581C12.6825 23.9324 12.6873 23.6668 12.739 23.4861C12.7671 23.3881 12.8097 23.31 12.873 23.2419C12.933 23.1773 13.0066 23.1271 13.0853 23.0785C13.3976 22.8828 13.8186 22.9456 14.0708 23.2213C14.1919 23.3517 14.2611 23.5003 14.2954 23.7177C14.3285 23.9272 14.3301 24.2078 14.3155 24.6077L14.3154 24.6082C14.3034 24.9092 14.2854 25.1186 14.2256 25.2743C14.1593 25.4471 14.047 25.5425 13.8967 25.6338Z" fill="#15153A" stroke="#15153A" stroke-width="0.3"/>
</svg>
