<svg width="16" height="16" viewBox="0 0 16 16" fill="none" xmlns="http://www.w3.org/2000/svg">
<path fill-rule="evenodd" clip-rule="evenodd" d="M9.48826 1.62599C8.04972 1.29011 6.53986 1.45072 5.20417 2.08171C3.86847 2.7127 2.7855 3.77696 2.13133 5.10145C1.47716 6.42594 1.29026 7.93278 1.60103 9.37695C1.91179 10.8211 2.70193 12.1177 3.843 13.0559C4.98406 13.9941 6.40893 14.5187 7.88594 14.5445C9.36295 14.5702 10.8052 14.0956 11.9783 13.1977C12.2973 12.9536 12.7537 13.0142 12.9979 13.3332C13.242 13.6522 13.1813 14.1086 12.8624 14.3528C11.4286 15.4501 9.66582 16.0302 7.86059 15.9988C6.05535 15.9673 4.31385 15.3261 2.91922 14.1794C1.52459 13.0328 0.55885 11.448 0.17903 9.68294C-0.20079 7.91784 0.0276406 6.07615 0.827182 4.45733C1.62672 2.8385 2.95036 1.53774 4.58287 0.766531C6.21538 -0.0046776 8.06077 -0.200979 9.81899 0.209545C11.5772 0.620068 13.1449 1.61327 14.2671 3.02768C15.3893 4.44208 16 6.19449 16 8C16 9.28977 15.6784 10.2749 15.0638 10.9134C14.4341 11.5677 13.6016 11.7491 12.8397 11.6272C12.069 11.5039 11.2809 11.0436 10.7609 10.3667C10.094 11.1439 9.1045 11.6364 8 11.6364C5.9917 11.6364 4.36364 10.0083 4.36364 8C4.36364 5.9917 5.9917 4.36364 8 4.36364C10.0083 4.36364 11.6364 5.9917 11.6364 8C11.6364 8.15698 11.6264 8.31163 11.6071 8.46337L11.6291 8.46651C11.5176 9.2473 12.2183 10.0548 13.0695 10.191C13.4439 10.2509 13.7705 10.1596 14.0158 9.90475C14.2756 9.63489 14.544 9.07694 14.5455 8.00881C14.5455 8.00588 14.5455 8.00294 14.5455 8C14.5455 6.52277 14.0458 5.08897 13.1276 3.93173C12.2094 2.7745 10.9268 1.96187 9.48826 1.62599ZM8 10.1818C9.20499 10.1818 10.1818 9.20499 10.1818 8C10.1818 6.79502 9.20499 5.81819 8 5.81819C6.79502 5.81819 5.81819 6.79502 5.81819 8C5.81819 9.20499 6.79502 10.1818 8 10.1818Z" fill="#15153A"/>
</svg>
