<svg width="19" height="19" viewBox="0 0 19 19" fill="none" xmlns="http://www.w3.org/2000/svg">
<g clip-path="url(#clip0_242_2597)">
<path d="M15.0386 11.8745C15.0386 12.3768 15.0386 12.8635 15.0386 13.3503C15.0508 13.5851 15.0131 13.8199 14.9279 14.0391C14.6604 14.6477 14.2034 14.9902 13.5346 15.0326C13.3563 15.0437 13.1764 15.0378 12.9966 15.0378C10.5444 15.0378 8.08702 15.0289 5.6326 15.043C4.7409 15.049 4.12413 14.4485 3.99112 13.7746C3.96663 13.622 3.95693 13.4675 3.96214 13.3131C3.96214 12.8383 3.96214 12.3642 3.96214 11.8745H3.20642C2.73159 11.8745 2.37936 11.5393 2.37639 11.089C2.37342 10.6387 2.7197 10.2991 3.19379 10.2858H15.7334C16.1748 10.2858 16.4765 10.4886 16.5894 10.8527C16.6257 10.9696 16.6342 11.0932 16.6144 11.214C16.5945 11.3347 16.5468 11.4491 16.4751 11.5482C16.4033 11.6472 16.3095 11.7282 16.201 11.7847C16.0925 11.8413 15.9724 11.8717 15.8501 11.8737C15.5848 11.8782 15.3202 11.8745 15.0386 11.8745Z" fill="white"/>
<path d="M13.4439 5.54866H5.56721C5.53918 5.61343 5.5309 5.68504 5.54343 5.7545C5.54343 6.48421 5.54343 7.21392 5.53897 7.94363C5.54178 8.08981 5.50083 8.23349 5.42139 8.35623C5.34195 8.47897 5.22763 8.57517 5.09312 8.63247C4.96557 8.69747 4.82207 8.72458 4.67959 8.71063C4.53711 8.69667 4.40161 8.64222 4.2891 8.5537C4.19268 8.49081 4.11331 8.40505 4.05808 8.30405C4.00285 8.20305 3.97346 8.08994 3.97254 7.97483C3.97254 7.10319 3.95545 6.23081 3.9822 5.35991C4.00375 4.66438 4.67476 4.02236 5.37029 3.97109C5.46243 3.9644 5.55532 3.96216 5.6482 3.96142C8.22003 3.96142 10.7919 3.97107 13.3637 3.95621C14.271 3.95101 14.8179 4.53656 14.9725 5.07084C15.0062 5.16997 15.0265 5.27321 15.0327 5.37775C15.0393 6.2375 15.0468 7.0965 15.0379 7.95551C15.0334 8.36198 14.7258 8.66368 14.3111 8.70827C13.9634 8.74542 13.6044 8.49499 13.4937 8.14054C13.4672 8.03244 13.4572 7.92096 13.464 7.80987C13.464 7.07421 13.464 6.33856 13.464 5.6029C13.459 5.58424 13.4523 5.56609 13.4439 5.54866V5.54866Z" fill="white"/>
<path d="M18.9985 15.1211C18.9985 15.6279 18.9985 16.1347 18.9985 16.6422C18.9927 17.2658 18.7421 17.8621 18.3008 18.3027C17.8595 18.7433 17.2628 18.9929 16.6392 18.9978C15.5944 18.9978 14.5499 18.9978 13.5056 18.9978C13.0211 18.9978 12.6607 18.6574 12.6622 18.2041C12.6622 17.7628 13.0219 17.4128 13.4922 17.4105C14.5058 17.4061 15.5201 17.3942 16.5329 17.4157C16.651 17.4222 16.7691 17.4037 16.8795 17.3614C16.9899 17.319 17.09 17.2538 17.1735 17.17C17.2569 17.0863 17.3217 16.9858 17.3635 16.8752C17.4054 16.7647 17.4235 16.6465 17.4165 16.5285C17.3942 15.5276 17.409 14.5222 17.4105 13.5249C17.4105 13.0791 17.6565 12.7625 18.0622 12.6823C18.1744 12.6599 18.2902 12.6623 18.4013 12.6895C18.5125 12.7167 18.6163 12.768 18.7054 12.8397C18.7946 12.9115 18.8669 13.0019 18.9173 13.1046C18.9677 13.2073 18.9949 13.3199 18.997 13.4343C19.0037 13.996 18.9978 14.5586 18.9985 15.1211Z" fill="white"/>
<path d="M3.88338 18.9986C3.3699 18.9986 2.85717 18.9986 2.34444 18.9986C1.07451 18.9926 0.0066909 17.9285 0.00297546 16.6615C0.00297546 15.6108 0.00297546 14.5601 0.00297546 13.5094C0.00297546 13.0226 0.338851 12.6637 0.792134 12.6615C1.24542 12.6593 1.58872 13.0234 1.59021 13.5064C1.59021 14.52 1.59021 15.5335 1.59021 16.5471C1.59021 16.9796 1.78862 17.2664 2.15421 17.3816C2.26239 17.4076 2.37387 17.4171 2.48489 17.4098C3.48583 17.4098 4.49122 17.4098 5.48845 17.4098C5.91424 17.4098 6.23153 17.6573 6.31327 18.0385C6.33935 18.1531 6.33931 18.2721 6.31316 18.3867C6.28701 18.5014 6.23543 18.6086 6.16222 18.7006C6.08901 18.7926 5.99605 18.8669 5.89023 18.9181C5.7844 18.9693 5.66842 18.996 5.55087 18.9963C4.99578 19.0023 4.4392 18.9978 3.88338 18.9986Z" fill="white"/>
<path d="M15.1196 0.00150744C15.6331 0.00150744 16.1458 0.00150744 16.6593 0.00150744C17.2764 0.0116506 17.8655 0.261382 18.3019 0.697916C18.7383 1.13445 18.9878 1.72357 18.9978 2.34074C18.9978 3.39147 18.9978 4.44221 18.9978 5.49293C18.9978 5.97742 18.6574 6.3393 18.2056 6.33856C17.7538 6.33781 17.412 5.97371 17.4105 5.4907C17.4105 4.47639 17.4105 3.46282 17.4105 2.44925C17.4105 2.01826 17.2099 1.72993 16.8436 1.61698C16.7415 1.59215 16.6363 1.58314 16.5315 1.59024C15.5305 1.59024 14.5251 1.59024 13.5279 1.59024C13.0783 1.59024 12.7648 1.34502 12.6838 0.940036C12.6612 0.827901 12.6636 0.712183 12.6906 0.601057C12.7177 0.48993 12.7688 0.386107 12.8404 0.296892C12.912 0.207677 13.0023 0.135246 13.1049 0.0847238C13.2075 0.0342017 13.3199 0.00680823 13.4343 0.00448269C13.9946 -0.00369126 14.5578 0.00150744 15.1196 0.00150744Z" fill="white"/>
<path d="M0.00223147 3.87809C0.00223147 3.37725 0.00223147 2.87664 0.00223147 2.37629C0.00223147 1.74564 0.25276 1.14083 0.698699 0.694894C1.14464 0.248955 1.74946 -0.00158691 2.38011 -0.00158691H5.49513C5.97963 -0.00158691 6.34151 0.340246 6.33928 0.792043C6.33705 1.24384 5.97888 1.58343 5.50851 1.58566C4.49494 1.59086 3.48137 1.60274 2.46779 1.58045C2.34978 1.57408 2.23174 1.59271 2.12141 1.63509C2.01108 1.67748 1.91094 1.74267 1.82754 1.82642C1.74414 1.91016 1.67936 2.01059 1.63744 2.12109C1.59552 2.2316 1.5774 2.34972 1.58427 2.46771C1.6073 3.46865 1.59244 4.46958 1.59021 5.47126C1.59021 5.92083 1.34425 6.2344 0.938524 6.31466C0.826367 6.33668 0.71075 6.33391 0.599776 6.30655C0.488802 6.27918 0.385155 6.22787 0.296097 6.15622C0.207038 6.08458 0.13472 5.99434 0.0842142 5.89181C0.0337086 5.78927 0.0062364 5.67693 0.00371909 5.56266C-0.00296869 5.00312 0.00223147 4.4406 0.00223147 3.87809Z" fill="white"/>
</g>
<defs>
<clipPath id="clip0_242_2597">
<rect width="19" height="19" fill="white"/>
</clipPath>
</defs>
</svg>
