<svg width="150" height="153" viewBox="0 0 150 153" fill="none" xmlns="http://www.w3.org/2000/svg">
<path d="M75 150C116.421 150 150 116.421 150 75C150 33.5786 116.421 0 75 0C33.5786 0 0 33.5786 0 75C0 116.421 33.5786 150 75 150Z" fill="url(#paint0_linear_276_2133)"/>
<g filter="url(#filter0_d_276_2133)">
<mask id="mask0_276_2133" style="mask-type:alpha" maskUnits="userSpaceOnUse" x="0" y="0" width="150" height="150">
<path d="M75 150C116.421 150 150 116.421 150 75C150 33.5786 116.421 0 75 0C33.5786 0 0 33.5786 0 75C0 116.421 33.5786 150 75 150Z" fill="url(#paint1_linear_276_2133)"/>
</mask>
<g mask="url(#mask0_276_2133)">
<path d="M118 43H32C29.2386 43 27 45.2386 27 48V153C27 155.761 29.2386 158 32 158H118C120.761 158 123 155.761 123 153V48C123 45.2386 120.761 43 118 43Z" fill="white"/>
</g>
</g>
<path d="M66 53H40C38.3431 53 37 54.3431 37 56C37 57.6569 38.3431 59 40 59H66C67.6569 59 69 57.6569 69 56C69 54.3431 67.6569 53 66 53Z" fill="#E1EBFA"/>
<path d="M53 32C55.2091 32 57 30.2091 57 28C57 25.7909 55.2091 24 53 24C50.7909 24 49 25.7909 49 28C49 30.2091 50.7909 32 53 32Z" fill="white"/>
<path d="M75 32C77.2091 32 79 30.2091 79 28C79 25.7909 77.2091 24 75 24C72.7909 24 71 25.7909 71 28C71 30.2091 72.7909 32 75 32Z" fill="#1485FD"/>
<path d="M97 32C99.2091 32 101 30.2091 101 28C101 25.7909 99.2091 24 97 24C94.7909 24 93 25.7909 93 28C93 30.2091 94.7909 32 97 32Z" fill="white"/>
<rect x="38" y="70" width="73" height="62" rx="3" stroke="#007FFF" stroke-width="2"/>
<path d="M83 101.5L70.25 108.861L70.25 94.1388L83 101.5Z" stroke="#007FFF" stroke-opacity="0.6" stroke-width="2"/>
<path d="M88.8575 112C91.6189 112 93.8575 109.761 93.8575 107C93.8575 104.239 91.6189 102 88.8575 102C86.0961 102 83.8575 104.239 83.8575 107C83.8575 109.761 86.0961 112 88.8575 112Z" fill="#DFEAFB"/>
<path d="M92.7645 128.37C91.9645 128.37 91.2175 128.37 90.5375 128.327C89.6999 128.27 88.8942 127.984 88.2089 127.499C87.5237 127.014 86.9854 126.349 86.6535 125.578L82.4345 117.24C82.1251 116.88 81.9706 116.412 82.0046 115.938C82.0387 115.464 82.2587 115.023 82.6165 114.711C82.9097 114.475 83.2754 114.348 83.6515 114.352C83.9284 114.36 84.2003 114.428 84.4483 114.551C84.6964 114.674 84.9148 114.85 85.0885 115.066L87.0045 117.681L87.0335 117.715V107.78C87.0335 107.287 87.2293 106.814 87.5778 106.466C87.9264 106.117 88.3991 105.921 88.892 105.921C89.3849 105.921 89.8576 106.117 90.2062 106.466C90.5547 106.814 90.7505 107.287 90.7505 107.78V114.28C90.7289 114.041 90.7574 113.8 90.8341 113.572C90.9109 113.345 91.0341 113.135 91.1961 112.958C91.3582 112.781 91.5553 112.639 91.7751 112.542C91.9948 112.445 92.2323 112.395 92.4725 112.395C92.7127 112.395 92.9502 112.445 93.1699 112.542C93.3897 112.639 93.5869 112.781 93.7489 112.958C93.9109 113.135 94.0342 113.345 94.1109 113.572C94.1876 113.8 94.2161 114.041 94.1945 114.28V115.635C94.1729 115.396 94.2014 115.155 94.2781 114.927C94.3549 114.699 94.4781 114.49 94.6401 114.313C94.8022 114.136 94.9993 113.994 95.2191 113.897C95.4388 113.8 95.6763 113.75 95.9165 113.75C96.1567 113.75 96.3942 113.8 96.6139 113.897C96.8337 113.994 97.0309 114.136 97.1929 114.313C97.3549 114.49 97.4782 114.699 97.5549 114.927C97.6316 115.155 97.6601 115.396 97.6385 115.635V116.679C97.6169 116.44 97.6454 116.199 97.7221 115.971C97.7989 115.743 97.9221 115.534 98.0841 115.357C98.2461 115.18 98.4433 115.038 98.6631 114.941C98.8828 114.844 99.1203 114.794 99.3605 114.794C99.6007 114.794 99.8382 114.844 100.058 114.941C100.278 115.038 100.475 115.18 100.637 115.357C100.799 115.534 100.922 115.743 100.999 115.971C101.076 116.199 101.104 116.44 101.083 116.679V123.016C101.049 124.965 100.168 128.251 97.0685 128.251C96.8435 128.261 94.9375 128.371 92.7685 128.371L92.7645 128.37Z" fill="#1485FD" stroke="white"/>
<defs>
<filter id="filter0_d_276_2133" x="21" y="34" width="108" height="119" filterUnits="userSpaceOnUse" color-interpolation-filters="sRGB">
<feFlood flood-opacity="0" result="BackgroundImageFix"/>
<feColorMatrix in="SourceAlpha" type="matrix" values="0 0 0 0 0 0 0 0 0 0 0 0 0 0 0 0 0 0 127 0" result="hardAlpha"/>
<feOffset dy="-3"/>
<feGaussianBlur stdDeviation="3"/>
<feColorMatrix type="matrix" values="0 0 0 0 0.788235 0 0 0 0 0.803922 0 0 0 0 0.85098 0 0 0 0.349 0"/>
<feBlend mode="normal" in2="BackgroundImageFix" result="effect1_dropShadow_276_2133"/>
<feBlend mode="normal" in="SourceGraphic" in2="effect1_dropShadow_276_2133" result="shape"/>
</filter>
<linearGradient id="paint0_linear_276_2133" x1="75" y1="0" x2="75" y2="150" gradientUnits="userSpaceOnUse">
<stop stop-color="#E3ECFA"/>
<stop offset="1" stop-color="#DAE7FF"/>
</linearGradient>
<linearGradient id="paint1_linear_276_2133" x1="75" y1="0" x2="75" y2="150" gradientUnits="userSpaceOnUse">
<stop stop-color="#E3ECFA"/>
<stop offset="1" stop-color="#DAE7FF"/>
</linearGradient>
</defs>
</svg>
