<svg width="25" height="25" viewBox="0 0 25 25" fill="none" xmlns="http://www.w3.org/2000/svg">
<path d="M13.2692 11.8333V19.8333C13.2692 20.0101 13.1882 20.1797 13.0439 20.3047C12.8997 20.4298 12.704 20.5 12.5 20.5C12.296 20.5 12.1003 20.4298 11.9561 20.3047C11.8118 20.1797 11.7308 20.0101 11.7308 19.8333V11.8333C11.7308 11.6565 11.8118 11.487 11.9561 11.3619C12.1003 11.2369 12.296 11.1667 12.5 11.1667C12.704 11.1667 12.8997 11.2369 13.0439 11.3619C13.1882 11.487 13.2692 11.6565 13.2692 11.8333V11.8333ZM19.4231 17.8333C19.2191 17.8333 19.0234 17.9036 18.8791 18.0286C18.7349 18.1536 18.6538 18.3232 18.6538 18.5L18.6539 19.8333C18.6539 20.0101 18.735 20.1797 18.8792 20.3047C19.0235 20.4298 19.2192 20.5 19.4232 20.5C19.6272 20.5 19.8228 20.4298 19.9671 20.3047C20.1114 20.1797 20.1924 20.0101 20.1924 19.8333L20.1923 18.5C20.1923 18.3232 20.1113 18.1536 19.967 18.0286C19.8227 17.9036 19.6271 17.8333 19.4231 17.8333ZM21.7308 15.1667H20.1923L20.1924 5.16667C20.1924 4.98986 20.1114 4.82029 19.9671 4.69526C19.8228 4.57024 19.6272 4.5 19.4232 4.5C19.2192 4.5 19.0235 4.57024 18.8792 4.69526C18.735 4.82029 18.6539 4.98986 18.6539 5.16667L18.6538 15.1667H17.1154C16.9114 15.1667 16.7157 15.2369 16.5715 15.3619C16.4272 15.487 16.3462 15.6565 16.3462 15.8333C16.3462 16.0101 16.4272 16.1797 16.5715 16.3047C16.7157 16.4298 16.9114 16.5 17.1154 16.5H21.7308C21.9348 16.5 22.1304 16.4298 22.2747 16.3047C22.419 16.1797 22.5 16.0101 22.5 15.8333C22.5 15.6565 22.419 15.487 22.2747 15.3619C22.1304 15.2369 21.9348 15.1667 21.7308 15.1667ZM5.57692 15.1667C5.37291 15.1667 5.17725 15.2369 5.03299 15.3619C4.88874 15.487 4.80769 15.6565 4.80769 15.8333V19.8333C4.80769 20.0101 4.88874 20.1797 5.03299 20.3047C5.17725 20.4298 5.37291 20.5 5.57692 20.5C5.78094 20.5 5.97659 20.4298 6.12085 20.3047C6.26511 20.1797 6.34615 20.0101 6.34615 19.8333V15.8333C6.34615 15.6565 6.26511 15.487 6.12085 15.3619C5.97659 15.2369 5.78094 15.1667 5.57692 15.1667ZM7.88462 12.5H6.34615V5.16667C6.34615 4.98986 6.26511 4.82029 6.12085 4.69526C5.97659 4.57024 5.78094 4.5 5.57692 4.5C5.37291 4.5 5.17725 4.57024 5.03299 4.69526C4.88874 4.82029 4.80769 4.98986 4.80769 5.16667V12.5H3.26923C3.06522 12.5 2.86956 12.5702 2.7253 12.6953C2.58104 12.8203 2.5 12.9899 2.5 13.1667C2.5 13.3435 2.58104 13.513 2.7253 13.6381C2.86956 13.7631 3.06522 13.8333 3.26923 13.8333H7.88462C8.08863 13.8333 8.28428 13.7631 8.42854 13.6381C8.5728 13.513 8.65385 13.3435 8.65385 13.1667C8.65385 12.9899 8.5728 12.8203 8.42854 12.6953C8.28428 12.5702 8.08863 12.5 7.88462 12.5ZM14.8077 8.5H13.2692V5.16667C13.2692 4.98986 13.1882 4.82029 13.0439 4.69526C12.8997 4.57024 12.704 4.5 12.5 4.5C12.296 4.5 12.1003 4.57024 11.9561 4.69526C11.8118 4.82029 11.7308 4.98986 11.7308 5.16667V8.5H10.1923C9.9883 8.5 9.79264 8.57024 9.64838 8.69526C9.50412 8.82029 9.42308 8.98986 9.42308 9.16667C9.42308 9.34348 9.50412 9.51305 9.64838 9.63807C9.79264 9.7631 9.9883 9.83333 10.1923 9.83333H14.8077C15.0117 9.83333 15.2074 9.7631 15.3516 9.63807C15.4959 9.51305 15.5769 9.34348 15.5769 9.16667C15.5769 8.98986 15.4959 8.82029 15.3516 8.69526C15.2074 8.57024 15.0117 8.5 14.8077 8.5Z" fill="#A4A4A4"/>
</svg>
