<svg width="33" height="33" viewBox="0 0 33 33" fill="none" xmlns="http://www.w3.org/2000/svg">
<mask id="path-1-outside-1_178_1442" maskUnits="userSpaceOnUse" x="2.2998" y="2.30078" width="28" height="28" fill="black">
<rect fill="white" x="2.2998" y="2.30078" width="28" height="28"/>
<path d="M16.4997 9.6819C15.1511 9.6819 13.8328 10.0818 12.7114 10.8311C11.59 11.5803 10.7161 12.6453 10.2 13.8913C9.68385 15.1373 9.54882 16.5083 9.81192 17.831C10.075 19.1537 10.7245 20.3687 11.6781 21.3224C12.6317 22.276 13.8467 22.9254 15.1695 23.1885C16.4922 23.4516 17.8632 23.3166 19.1092 22.8005C20.3552 22.2844 21.4201 21.4104 22.1694 20.2891C22.9187 19.1677 23.3186 17.8494 23.3186 16.5007C23.3165 14.6929 22.5974 12.9597 21.3191 11.6814C20.0408 10.403 18.3076 9.68396 16.4997 9.6819V9.6819ZM16.4997 21.3713C15.5364 21.3713 14.5947 21.0857 13.7938 20.5505C12.9928 20.0153 12.3685 19.2546 11.9999 18.3646C11.6313 17.4746 11.5348 16.4953 11.7227 15.5505C11.9107 14.6057 12.3745 13.7379 13.0557 13.0567C13.7369 12.3755 14.6047 11.9117 15.5495 11.7237C16.4943 11.5358 17.4737 11.6322 18.3636 12.0009C19.2536 12.3695 20.0143 12.9938 20.5495 13.7948C21.0847 14.5957 21.3703 15.5374 21.3703 16.5007C21.3689 17.792 20.8553 19.0301 19.9422 19.9432C19.0291 20.8562 17.7911 21.3699 16.4997 21.3713V21.3713ZM29.505 19.229L27.6934 16.8138C27.696 16.6003 27.6938 16.3728 27.6907 16.1911L29.5041 13.7733C29.5929 13.655 29.6535 13.518 29.6815 13.3727C29.7094 13.2275 29.7039 13.0778 29.6653 12.935C29.3613 11.8081 28.9131 10.7252 28.332 9.71307C28.2583 9.58474 28.1563 9.47489 28.0338 9.39187C27.9113 9.30885 27.7714 9.25483 27.6249 9.23393L24.6433 8.80812C24.4973 8.65364 24.347 8.5033 24.1924 8.3571L23.7667 5.37679C23.7458 5.23035 23.6918 5.09059 23.6089 4.96812C23.5259 4.84565 23.4161 4.74368 23.2879 4.66994C22.2761 4.08816 21.1934 3.63933 20.0667 3.33455C19.9239 3.29592 19.7741 3.29035 19.6288 3.31827C19.4834 3.34618 19.3464 3.40684 19.228 3.49564L16.8185 5.303C16.606 5.29705 16.3934 5.29705 16.1808 5.303L13.7722 3.49649C13.6539 3.40777 13.5169 3.34714 13.3716 3.31921C13.2264 3.29128 13.0767 3.29677 12.9339 3.33528C11.807 3.63933 10.7241 4.08747 9.71195 4.6686C9.5836 4.74231 9.47372 4.84429 9.39068 4.96681C9.30764 5.08933 9.2536 5.22916 9.23269 5.37569L8.80699 8.35734C8.6526 8.5033 8.50226 8.65364 8.35598 8.80836L5.37578 9.23381C5.22934 9.2547 5.08958 9.30868 4.96711 9.39163C4.84464 9.47459 4.74267 9.58435 4.66893 9.71258C4.08713 10.7245 3.63829 11.8072 3.33354 12.9339C3.29494 13.0767 3.28938 13.2265 3.3173 13.3718C3.34521 13.5171 3.40585 13.6541 3.49463 13.7725L5.30625 16.1877C5.30357 16.4011 5.30576 16.6287 5.30893 16.8104L3.49548 19.2283C3.40672 19.3466 3.34608 19.4836 3.31814 19.6288C3.29021 19.7741 3.29572 19.9238 3.33427 20.0666C3.6383 21.1934 4.08644 22.2763 4.66759 23.2885C4.74131 23.4168 4.8433 23.5267 4.96582 23.6097C5.08834 23.6927 5.22817 23.7467 5.37468 23.7676L8.35634 24.1935C8.5023 24.3479 8.6526 24.4983 8.80724 24.6445L9.23293 27.6248C9.25383 27.7712 9.3078 27.911 9.39076 28.0335C9.47371 28.1559 9.58347 28.2579 9.71171 28.3316C10.7235 28.9134 11.8062 29.3622 12.9329 29.667C13.0757 29.7056 13.2255 29.7112 13.3708 29.6833C13.5162 29.6554 13.6532 29.5947 13.7716 29.5059L16.1811 27.6986C16.3936 27.7045 16.6062 27.7045 16.8188 27.6986L19.2273 29.5052C19.3456 29.594 19.4826 29.6547 19.6278 29.6826C19.7731 29.7105 19.9228 29.705 20.0656 29.6664C21.1925 29.3624 22.2754 28.9142 23.2875 28.3331C23.4159 28.2594 23.5258 28.1574 23.6088 28.0349C23.6919 27.9124 23.7459 27.7725 23.7668 27.626L24.1935 24.6373C24.3417 24.492 24.4879 24.3445 24.6319 24.195L27.6238 23.7676C27.7703 23.7468 27.91 23.6928 28.0325 23.6099C28.155 23.5269 28.2569 23.4172 28.3307 23.289C28.9125 22.2771 29.3613 21.1944 29.6661 20.0677C29.7047 19.9249 29.7102 19.7751 29.6823 19.6298C29.6544 19.4845 29.5938 19.3475 29.505 19.2291V19.229ZM26.8665 21.9078L24.0226 22.314C23.8039 22.3452 23.6023 22.4499 23.4509 22.6108C23.3004 22.7708 22.8598 23.2301 22.6317 23.4319C22.4587 23.5852 22.3458 23.7949 22.3132 24.0237L21.907 26.8683C21.2981 27.1859 20.6622 27.449 20.0068 27.6544L17.7089 25.9308C17.524 25.7922 17.2959 25.7238 17.0653 25.7378C16.6887 25.7606 16.3111 25.7606 15.9345 25.7378C15.7039 25.724 15.4759 25.7924 15.291 25.9308L12.9923 27.6551C12.3371 27.4492 11.7014 27.1856 11.0928 26.8674L10.6867 24.0237C10.654 23.795 10.541 23.5853 10.368 23.4322C10.0856 23.182 9.81866 22.915 9.56851 22.6327C9.41535 22.4597 9.20569 22.3468 8.97698 22.3141L6.1323 21.9079C5.81462 21.299 5.55151 20.6632 5.34607 20.0078L7.06977 17.7097C7.20233 17.533 7.2709 17.3164 7.26423 17.0955C7.25753 16.876 7.24426 16.2397 7.26277 15.9356C7.2768 15.705 7.20839 15.4768 7.06977 15.292L5.34546 12.9933C5.55138 12.3381 5.81497 11.7024 6.13316 11.0938L8.97674 10.6877C9.20556 10.655 9.41532 10.5421 9.56851 10.369C9.81861 10.0867 10.0856 9.81973 10.3679 9.56963C10.5409 9.41642 10.6538 9.20666 10.6864 8.97786L11.0926 6.13331C11.7016 5.81562 12.3375 5.55251 12.9929 5.34708L15.2909 7.07078C15.4757 7.20931 15.7038 7.2777 15.9344 7.26377C16.311 7.24094 16.6886 7.24094 17.0652 7.26377C17.2958 7.27792 17.524 7.2095 17.7087 7.07078L20.0074 5.34647C20.6626 5.55239 21.2983 5.81598 21.907 6.13416L22.3131 8.97786C22.3458 9.20659 22.4587 9.41624 22.6317 9.56939C22.9141 9.81954 23.1811 10.0865 23.4312 10.3689C23.5844 10.5419 23.794 10.6548 24.0228 10.6874L26.8675 11.0936C27.1851 11.7026 27.4481 12.3385 27.6534 12.9939L25.9297 15.292C25.7971 15.4687 25.7285 15.6853 25.7353 15.9061C25.742 16.1254 25.7552 16.7613 25.7367 17.0661C25.7227 17.2967 25.7911 17.5249 25.9298 17.7097L27.654 20.0084C27.4481 20.6636 27.1845 21.2993 26.8663 21.9079L26.8665 21.9078Z"/>
</mask>
<path d="M16.4997 9.6819C15.1511 9.6819 13.8328 10.0818 12.7114 10.8311C11.59 11.5803 10.7161 12.6453 10.2 13.8913C9.68385 15.1373 9.54882 16.5083 9.81192 17.831C10.075 19.1537 10.7245 20.3687 11.6781 21.3224C12.6317 22.276 13.8467 22.9254 15.1695 23.1885C16.4922 23.4516 17.8632 23.3166 19.1092 22.8005C20.3552 22.2844 21.4201 21.4104 22.1694 20.2891C22.9187 19.1677 23.3186 17.8494 23.3186 16.5007C23.3165 14.6929 22.5974 12.9597 21.3191 11.6814C20.0408 10.403 18.3076 9.68396 16.4997 9.6819V9.6819ZM16.4997 21.3713C15.5364 21.3713 14.5947 21.0857 13.7938 20.5505C12.9928 20.0153 12.3685 19.2546 11.9999 18.3646C11.6313 17.4746 11.5348 16.4953 11.7227 15.5505C11.9107 14.6057 12.3745 13.7379 13.0557 13.0567C13.7369 12.3755 14.6047 11.9117 15.5495 11.7237C16.4943 11.5358 17.4737 11.6322 18.3636 12.0009C19.2536 12.3695 20.0143 12.9938 20.5495 13.7948C21.0847 14.5957 21.3703 15.5374 21.3703 16.5007C21.3689 17.792 20.8553 19.0301 19.9422 19.9432C19.0291 20.8562 17.7911 21.3699 16.4997 21.3713V21.3713ZM29.505 19.229L27.6934 16.8138C27.696 16.6003 27.6938 16.3728 27.6907 16.1911L29.5041 13.7733C29.5929 13.655 29.6535 13.518 29.6815 13.3727C29.7094 13.2275 29.7039 13.0778 29.6653 12.935C29.3613 11.8081 28.9131 10.7252 28.332 9.71307C28.2583 9.58474 28.1563 9.47489 28.0338 9.39187C27.9113 9.30885 27.7714 9.25483 27.6249 9.23393L24.6433 8.80812C24.4973 8.65364 24.347 8.5033 24.1924 8.3571L23.7667 5.37679C23.7458 5.23035 23.6918 5.09059 23.6089 4.96812C23.5259 4.84565 23.4161 4.74368 23.2879 4.66994C22.2761 4.08816 21.1934 3.63933 20.0667 3.33455C19.9239 3.29592 19.7741 3.29035 19.6288 3.31827C19.4834 3.34618 19.3464 3.40684 19.228 3.49564L16.8185 5.303C16.606 5.29705 16.3934 5.29705 16.1808 5.303L13.7722 3.49649C13.6539 3.40777 13.5169 3.34714 13.3716 3.31921C13.2264 3.29128 13.0767 3.29677 12.9339 3.33528C11.807 3.63933 10.7241 4.08747 9.71195 4.6686C9.5836 4.74231 9.47372 4.84429 9.39068 4.96681C9.30764 5.08933 9.2536 5.22916 9.23269 5.37569L8.80699 8.35734C8.6526 8.5033 8.50226 8.65364 8.35598 8.80836L5.37578 9.23381C5.22934 9.2547 5.08958 9.30868 4.96711 9.39163C4.84464 9.47459 4.74267 9.58435 4.66893 9.71258C4.08713 10.7245 3.63829 11.8072 3.33354 12.9339C3.29494 13.0767 3.28938 13.2265 3.3173 13.3718C3.34521 13.5171 3.40585 13.6541 3.49463 13.7725L5.30625 16.1877C5.30357 16.4011 5.30576 16.6287 5.30893 16.8104L3.49548 19.2283C3.40672 19.3466 3.34608 19.4836 3.31814 19.6288C3.29021 19.7741 3.29572 19.9238 3.33427 20.0666C3.6383 21.1934 4.08644 22.2763 4.66759 23.2885C4.74131 23.4168 4.8433 23.5267 4.96582 23.6097C5.08834 23.6927 5.22817 23.7467 5.37468 23.7676L8.35634 24.1935C8.5023 24.3479 8.6526 24.4983 8.80724 24.6445L9.23293 27.6248C9.25383 27.7712 9.3078 27.911 9.39076 28.0335C9.47371 28.1559 9.58347 28.2579 9.71171 28.3316C10.7235 28.9134 11.8062 29.3622 12.9329 29.667C13.0757 29.7056 13.2255 29.7112 13.3708 29.6833C13.5162 29.6554 13.6532 29.5947 13.7716 29.5059L16.1811 27.6986C16.3936 27.7045 16.6062 27.7045 16.8188 27.6986L19.2273 29.5052C19.3456 29.594 19.4826 29.6547 19.6278 29.6826C19.7731 29.7105 19.9228 29.705 20.0656 29.6664C21.1925 29.3624 22.2754 28.9142 23.2875 28.3331C23.4159 28.2594 23.5258 28.1574 23.6088 28.0349C23.6919 27.9124 23.7459 27.7725 23.7668 27.626L24.1935 24.6373C24.3417 24.492 24.4879 24.3445 24.6319 24.195L27.6238 23.7676C27.7703 23.7468 27.91 23.6928 28.0325 23.6099C28.155 23.5269 28.2569 23.4172 28.3307 23.289C28.9125 22.2771 29.3613 21.1944 29.6661 20.0677C29.7047 19.9249 29.7102 19.7751 29.6823 19.6298C29.6544 19.4845 29.5938 19.3475 29.505 19.2291V19.229ZM26.8665 21.9078L24.0226 22.314C23.8039 22.3452 23.6023 22.4499 23.4509 22.6108C23.3004 22.7708 22.8598 23.2301 22.6317 23.4319C22.4587 23.5852 22.3458 23.7949 22.3132 24.0237L21.907 26.8683C21.2981 27.1859 20.6622 27.449 20.0068 27.6544L17.7089 25.9308C17.524 25.7922 17.2959 25.7238 17.0653 25.7378C16.6887 25.7606 16.3111 25.7606 15.9345 25.7378C15.7039 25.724 15.4759 25.7924 15.291 25.9308L12.9923 27.6551C12.3371 27.4492 11.7014 27.1856 11.0928 26.8674L10.6867 24.0237C10.654 23.795 10.541 23.5853 10.368 23.4322C10.0856 23.182 9.81866 22.915 9.56851 22.6327C9.41535 22.4597 9.20569 22.3468 8.97698 22.3141L6.1323 21.9079C5.81462 21.299 5.55151 20.6632 5.34607 20.0078L7.06977 17.7097C7.20233 17.533 7.2709 17.3164 7.26423 17.0955C7.25753 16.876 7.24426 16.2397 7.26277 15.9356C7.2768 15.705 7.20839 15.4768 7.06977 15.292L5.34546 12.9933C5.55138 12.3381 5.81497 11.7024 6.13316 11.0938L8.97674 10.6877C9.20556 10.655 9.41532 10.5421 9.56851 10.369C9.81861 10.0867 10.0856 9.81973 10.3679 9.56963C10.5409 9.41642 10.6538 9.20666 10.6864 8.97786L11.0926 6.13331C11.7016 5.81562 12.3375 5.55251 12.9929 5.34708L15.2909 7.07078C15.4757 7.20931 15.7038 7.2777 15.9344 7.26377C16.311 7.24094 16.6886 7.24094 17.0652 7.26377C17.2958 7.27792 17.524 7.2095 17.7087 7.07078L20.0074 5.34647C20.6626 5.55239 21.2983 5.81598 21.907 6.13416L22.3131 8.97786C22.3458 9.20659 22.4587 9.41624 22.6317 9.56939C22.9141 9.81954 23.1811 10.0865 23.4312 10.3689C23.5844 10.5419 23.794 10.6548 24.0228 10.6874L26.8675 11.0936C27.1851 11.7026 27.4481 12.3385 27.6534 12.9939L25.9297 15.292C25.7971 15.4687 25.7285 15.6853 25.7353 15.9061C25.742 16.1254 25.7552 16.7613 25.7367 17.0661C25.7227 17.2967 25.7911 17.5249 25.9298 17.7097L27.654 20.0084C27.4481 20.6636 27.1845 21.2993 26.8663 21.9079L26.8665 21.9078Z" fill="#A4A4A4"/>
<path d="M16.4997 9.6819C15.1511 9.6819 13.8328 10.0818 12.7114 10.8311C11.59 11.5803 10.7161 12.6453 10.2 13.8913C9.68385 15.1373 9.54882 16.5083 9.81192 17.831C10.075 19.1537 10.7245 20.3687 11.6781 21.3224C12.6317 22.276 13.8467 22.9254 15.1695 23.1885C16.4922 23.4516 17.8632 23.3166 19.1092 22.8005C20.3552 22.2844 21.4201 21.4104 22.1694 20.2891C22.9187 19.1677 23.3186 17.8494 23.3186 16.5007C23.3165 14.6929 22.5974 12.9597 21.3191 11.6814C20.0408 10.403 18.3076 9.68396 16.4997 9.6819V9.6819ZM16.4997 21.3713C15.5364 21.3713 14.5947 21.0857 13.7938 20.5505C12.9928 20.0153 12.3685 19.2546 11.9999 18.3646C11.6313 17.4746 11.5348 16.4953 11.7227 15.5505C11.9107 14.6057 12.3745 13.7379 13.0557 13.0567C13.7369 12.3755 14.6047 11.9117 15.5495 11.7237C16.4943 11.5358 17.4737 11.6322 18.3636 12.0009C19.2536 12.3695 20.0143 12.9938 20.5495 13.7948C21.0847 14.5957 21.3703 15.5374 21.3703 16.5007C21.3689 17.792 20.8553 19.0301 19.9422 19.9432C19.0291 20.8562 17.7911 21.3699 16.4997 21.3713V21.3713ZM29.505 19.229L27.6934 16.8138C27.696 16.6003 27.6938 16.3728 27.6907 16.1911L29.5041 13.7733C29.5929 13.655 29.6535 13.518 29.6815 13.3727C29.7094 13.2275 29.7039 13.0778 29.6653 12.935C29.3613 11.8081 28.9131 10.7252 28.332 9.71307C28.2583 9.58474 28.1563 9.47489 28.0338 9.39187C27.9113 9.30885 27.7714 9.25483 27.6249 9.23393L24.6433 8.80812C24.4973 8.65364 24.347 8.5033 24.1924 8.3571L23.7667 5.37679C23.7458 5.23035 23.6918 5.09059 23.6089 4.96812C23.5259 4.84565 23.4161 4.74368 23.2879 4.66994C22.2761 4.08816 21.1934 3.63933 20.0667 3.33455C19.9239 3.29592 19.7741 3.29035 19.6288 3.31827C19.4834 3.34618 19.3464 3.40684 19.228 3.49564L16.8185 5.303C16.606 5.29705 16.3934 5.29705 16.1808 5.303L13.7722 3.49649C13.6539 3.40777 13.5169 3.34714 13.3716 3.31921C13.2264 3.29128 13.0767 3.29677 12.9339 3.33528C11.807 3.63933 10.7241 4.08747 9.71195 4.6686C9.5836 4.74231 9.47372 4.84429 9.39068 4.96681C9.30764 5.08933 9.2536 5.22916 9.23269 5.37569L8.80699 8.35734C8.6526 8.5033 8.50226 8.65364 8.35598 8.80836L5.37578 9.23381C5.22934 9.2547 5.08958 9.30868 4.96711 9.39163C4.84464 9.47459 4.74267 9.58435 4.66893 9.71258C4.08713 10.7245 3.63829 11.8072 3.33354 12.9339C3.29494 13.0767 3.28938 13.2265 3.3173 13.3718C3.34521 13.5171 3.40585 13.6541 3.49463 13.7725L5.30625 16.1877C5.30357 16.4011 5.30576 16.6287 5.30893 16.8104L3.49548 19.2283C3.40672 19.3466 3.34608 19.4836 3.31814 19.6288C3.29021 19.7741 3.29572 19.9238 3.33427 20.0666C3.6383 21.1934 4.08644 22.2763 4.66759 23.2885C4.74131 23.4168 4.8433 23.5267 4.96582 23.6097C5.08834 23.6927 5.22817 23.7467 5.37468 23.7676L8.35634 24.1935C8.5023 24.3479 8.6526 24.4983 8.80724 24.6445L9.23293 27.6248C9.25383 27.7712 9.3078 27.911 9.39076 28.0335C9.47371 28.1559 9.58347 28.2579 9.71171 28.3316C10.7235 28.9134 11.8062 29.3622 12.9329 29.667C13.0757 29.7056 13.2255 29.7112 13.3708 29.6833C13.5162 29.6554 13.6532 29.5947 13.7716 29.5059L16.1811 27.6986C16.3936 27.7045 16.6062 27.7045 16.8188 27.6986L19.2273 29.5052C19.3456 29.594 19.4826 29.6547 19.6278 29.6826C19.7731 29.7105 19.9228 29.705 20.0656 29.6664C21.1925 29.3624 22.2754 28.9142 23.2875 28.3331C23.4159 28.2594 23.5258 28.1574 23.6088 28.0349C23.6919 27.9124 23.7459 27.7725 23.7668 27.626L24.1935 24.6373C24.3417 24.492 24.4879 24.3445 24.6319 24.195L27.6238 23.7676C27.7703 23.7468 27.91 23.6928 28.0325 23.6099C28.155 23.5269 28.2569 23.4172 28.3307 23.289C28.9125 22.2771 29.3613 21.1944 29.6661 20.0677C29.7047 19.9249 29.7102 19.7751 29.6823 19.6298C29.6544 19.4845 29.5938 19.3475 29.505 19.2291V19.229ZM26.8665 21.9078L24.0226 22.314C23.8039 22.3452 23.6023 22.4499 23.4509 22.6108C23.3004 22.7708 22.8598 23.2301 22.6317 23.4319C22.4587 23.5852 22.3458 23.7949 22.3132 24.0237L21.907 26.8683C21.2981 27.1859 20.6622 27.449 20.0068 27.6544L17.7089 25.9308C17.524 25.7922 17.2959 25.7238 17.0653 25.7378C16.6887 25.7606 16.3111 25.7606 15.9345 25.7378C15.7039 25.724 15.4759 25.7924 15.291 25.9308L12.9923 27.6551C12.3371 27.4492 11.7014 27.1856 11.0928 26.8674L10.6867 24.0237C10.654 23.795 10.541 23.5853 10.368 23.4322C10.0856 23.182 9.81866 22.915 9.56851 22.6327C9.41535 22.4597 9.20569 22.3468 8.97698 22.3141L6.1323 21.9079C5.81462 21.299 5.55151 20.6632 5.34607 20.0078L7.06977 17.7097C7.20233 17.533 7.2709 17.3164 7.26423 17.0955C7.25753 16.876 7.24426 16.2397 7.26277 15.9356C7.2768 15.705 7.20839 15.4768 7.06977 15.292L5.34546 12.9933C5.55138 12.3381 5.81497 11.7024 6.13316 11.0938L8.97674 10.6877C9.20556 10.655 9.41532 10.5421 9.56851 10.369C9.81861 10.0867 10.0856 9.81973 10.3679 9.56963C10.5409 9.41642 10.6538 9.20666 10.6864 8.97786L11.0926 6.13331C11.7016 5.81562 12.3375 5.55251 12.9929 5.34708L15.2909 7.07078C15.4757 7.20931 15.7038 7.2777 15.9344 7.26377C16.311 7.24094 16.6886 7.24094 17.0652 7.26377C17.2958 7.27792 17.524 7.2095 17.7087 7.07078L20.0074 5.34647C20.6626 5.55239 21.2983 5.81598 21.907 6.13416L22.3131 8.97786C22.3458 9.20659 22.4587 9.41624 22.6317 9.56939C22.9141 9.81954 23.1811 10.0865 23.4312 10.3689C23.5844 10.5419 23.794 10.6548 24.0228 10.6874L26.8675 11.0936C27.1851 11.7026 27.4481 12.3385 27.6534 12.9939L25.9297 15.292C25.7971 15.4687 25.7285 15.6853 25.7353 15.9061C25.742 16.1254 25.7552 16.7613 25.7367 17.0661C25.7227 17.2967 25.7911 17.5249 25.9298 17.7097L27.654 20.0084C27.4481 20.6636 27.1845 21.2993 26.8663 21.9079L26.8665 21.9078Z" stroke="#A4A4A4" stroke-width="0.2" mask="url(#path-1-outside-1_178_1442)"/>
</svg>
