<svg width="248" height="185" viewBox="0 0 248 185" fill="none" xmlns="http://www.w3.org/2000/svg">
<path d="M247.798 162.281H0V162.405H247.798V162.281Z" fill="#EBEBEB"/>
<path d="M222.969 170.258H215.584V170.382H222.969V170.258Z" fill="#EBEBEB"/>
<path d="M164.151 171.603H159.843V171.727H164.151V171.603Z" fill="#EBEBEB"/>
<path d="M213.491 165.656H196.546V165.78H213.491V165.656Z" fill="#EBEBEB"/>
<path d="M54.332 168.213H32.926V168.337H54.332V168.213Z" fill="#EBEBEB"/>
<path d="M66.465 168.213H58.745V168.337H66.465V168.213Z" fill="#EBEBEB"/>
<path d="M126.255 166.55H79.83V166.674H126.255V166.55Z" fill="#EBEBEB"/>
<path d="M117.463 140.178H21.763C21.0129 140.177 20.2938 139.879 19.7634 139.349C19.2331 138.818 18.9348 138.099 18.934 137.349V2.828C18.935 2.07812 19.2334 1.35927 19.7638 0.829121C20.2941 0.298968 21.0131 0.000793618 21.763 0H117.463C118.213 0.00105816 118.931 0.299348 119.461 0.829472C119.992 1.3596 120.29 2.07829 120.291 2.828V137.347C120.291 138.097 119.993 138.817 119.463 139.347C118.932 139.878 118.213 140.177 117.463 140.178ZM21.764 0.124001C21.0485 0.126111 20.363 0.411253 19.8571 0.917145C19.3512 1.42304 19.0661 2.10857 19.064 2.824V137.347C19.0661 138.062 19.3512 138.748 19.8571 139.254C20.363 139.76 21.0485 140.045 21.764 140.047H117.464C118.179 140.045 118.865 139.76 119.371 139.254C119.877 138.748 120.162 138.062 120.164 137.347V2.828C120.162 2.11256 119.877 1.42703 119.371 0.921143C118.865 0.415251 118.179 0.130113 117.464 0.128002L21.764 0.124001Z" fill="#EBEBEB"/>
<path d="M224.659 140.178H128.959C128.209 140.177 127.49 139.879 126.96 139.348C126.43 138.818 126.132 138.099 126.131 137.349V2.828C126.132 2.07821 126.43 1.35936 126.96 0.829182C127.49 0.299001 128.209 0.000794128 128.959 0H224.659C225.409 0.000793618 226.128 0.298968 226.658 0.829121C227.189 1.35927 227.487 2.07812 227.488 2.828V137.347C227.488 138.097 227.19 138.817 226.659 139.348C226.129 139.879 225.409 140.177 224.659 140.178ZM128.959 0.124001C128.244 0.126111 127.558 0.411253 127.052 0.917145C126.546 1.42304 126.261 2.10857 126.259 2.824V137.347C126.261 138.062 126.546 138.748 127.052 139.254C127.558 139.76 128.244 140.045 128.959 140.047H224.659C225.375 140.046 226.062 139.762 226.569 139.256C227.076 138.75 227.362 138.063 227.364 137.347V2.828C227.362 2.1117 227.076 1.42542 226.569 0.919384C226.062 0.41335 225.375 0.128793 224.659 0.128002L128.959 0.124001Z" fill="#EBEBEB"/>
<path d="M106.293 162.28H115.522L115.522 98.908H106.293V162.28Z" fill="#E6E6E6"/>
<path d="M109.542 162.28H106.293V150.24H112.948L109.542 162.28Z" fill="#F0F0F0"/>
<path d="M203.887 162.28H213.116V98.908H203.887V162.28Z" fill="#E6E6E6"/>
<path d="M106.293 158.993H206.722V98.908L106.293 98.908L106.293 158.993Z" fill="#F0F0F0"/>
<path d="M203.477 162.28H206.726V150.24H200.067L203.477 162.28Z" fill="#F0F0F0"/>
<path d="M173.612 103.883V153.587H203.383V103.883H173.612Z" fill="#E6E6E6"/>
<path d="M185.553 105.631H191.443C193.936 105.656 196.348 104.75 198.207 103.089H178.79C180.649 104.75 183.061 105.656 185.553 105.631V105.631Z" fill="#F0F0F0"/>
<path d="M141.622 103.883V153.587H171.393V103.883H141.622Z" fill="#E6E6E6"/>
<path d="M153.262 105.631H159.152C161.644 105.656 164.056 104.75 165.915 103.089H146.498C148.357 104.75 150.769 105.656 153.262 105.631V105.631Z" fill="#F0F0F0"/>
<path d="M109.632 103.883V153.587H139.403V103.883H109.632Z" fill="#E6E6E6"/>
<path d="M121.272 105.631H127.162C129.655 105.656 132.067 104.75 133.926 103.089H114.508C116.367 104.75 118.779 105.656 121.272 105.631V105.631Z" fill="#F0F0F0"/>
<path d="M34.682 162.28H97.652L97.652 20.728H34.682L34.682 162.28Z" fill="#F0F0F0"/>
<path d="M34.682 162.28H96.323L96.323 20.728H34.682L34.682 162.28Z" fill="#F5F5F5"/>
<path d="M92.567 159.068L92.567 23.94L38.438 23.94L38.438 159.068H92.567Z" fill="#F0F0F0"/>
<path d="M87.2481 49.071C87.2481 47.1331 86.8663 45.2141 86.1247 43.4237C85.3831 41.6333 84.2961 40.0065 82.9258 38.6362C81.5555 37.2659 79.9287 36.1789 78.1383 35.4373C76.3479 34.6957 74.429 34.314 72.4911 34.314H58.5151C54.6013 34.314 50.8478 35.8687 48.0803 38.6362C45.3128 41.4037 43.7581 45.1572 43.7581 49.071H87.2481Z" fill="#FAFAFA"/>
<path d="M87.248 150.669V118.387H43.758V150.669H87.248Z" fill="#F5F5F5"/>
<path d="M87.2481 58.173H68.0651V114.222H87.2481V58.173Z" fill="#F5F5F5"/>
<path d="M62.9411 58.173H43.7581V114.222H62.9411V58.173Z" fill="#F5F5F5"/>
<path d="M50.715 85.945H42.858C42.535 85.9442 42.2254 85.8155 41.997 85.5871C41.7685 85.3586 41.6398 85.049 41.639 84.726V84.726C41.6401 84.403 41.7689 84.0936 41.9972 83.8652C42.2256 83.6368 42.5351 83.508 42.858 83.507H50.715C51.038 83.508 51.3475 83.6368 51.5758 83.8652C51.8042 84.0936 51.933 84.403 51.934 84.726V84.726C51.9333 85.049 51.8046 85.3586 51.5761 85.5871C51.3477 85.8155 51.0381 85.9442 50.715 85.945Z" fill="#E0E0E0"/>
<path d="M39.413 159.068L39.413 23.94H38.439L38.439 159.068H39.413Z" fill="#F0F0F0"/>
<path d="M137.482 83.372L204.261 83.372V20.728L137.482 20.728V83.372Z" fill="#E6E6E6"/>
<path d="M135.799 83.372L202.578 83.372V20.728L135.799 20.728V83.372Z" fill="#F5F5F5"/>
<path d="M131.9 86.998L204.261 86.998V83.372L131.9 83.372V86.998Z" fill="#E6E6E6"/>
<path d="M130.005 86.998L198.639 86.998V83.372L130.005 83.372V86.998Z" fill="#F5F5F5"/>
<path d="M199.556 80.114V23.987L138.82 23.987V80.114H199.556Z" fill="white"/>
<path d="M170.871 80.114V23.987H167.504V80.114H170.871Z" fill="#F5F5F5"/>
<path d="M140.093 80.114V23.987H138.82V80.114H140.093Z" fill="#E6E6E6"/>
<path d="M172.144 80.114V23.987H170.871V80.114H172.144Z" fill="#E6E6E6"/>
<path d="M146.459 85.033C145.231 72.308 144.376 51.659 145.04 44.753C145.052 44.6343 145.088 44.5194 145.148 44.416C145.207 44.3126 145.287 44.2229 145.384 44.153C145.512 44.059 145.665 44.003 145.823 43.9914C145.982 43.9797 146.141 44.0129 146.282 44.0871C146.422 44.1614 146.539 44.2736 146.619 44.4112C146.699 44.5487 146.739 44.706 146.734 44.865C146.617 48.287 146.482 56.84 147.211 71.595C147.574 78.94 148.097 83.97 147.738 85.031L146.459 85.033Z" fill="#E6E6E6"/>
<path d="M141.881 55.704C138.381 51.821 131.242 49.06 123.964 49.074C121.107 49.08 132.657 53.591 137.464 58.574C141.306 62.712 144.468 67.4321 146.833 72.559C145.905 64.954 145.378 59.585 141.881 55.704Z" fill="#E6E6E6"/>
<path d="M148.813 56.886C151.713 52.842 158.42 49.732 165.673 49.38C168.52 49.242 157.687 54.317 153.644 59.519C150.419 63.8669 147.967 68.7382 146.397 73.919C146.185 66.306 145.909 60.931 148.813 56.886Z" fill="#E6E6E6"/>
<path d="M141.725 41.522C138.764 38.234 132.716 35.896 126.553 35.908C124.134 35.908 133.914 39.734 137.981 43.949C141.234 47.4528 143.912 51.4497 145.915 55.791C145.133 49.357 144.684 44.81 141.725 41.522Z" fill="#E6E6E6"/>
<path d="M147.594 46.385C150.053 42.96 155.73 40.327 161.871 40.029C164.282 39.912 155.109 44.209 151.685 48.614C148.953 52.2975 146.877 56.4247 145.548 60.814C145.37 54.362 145.135 49.808 147.594 46.385Z" fill="#E6E6E6"/>
<path d="M146.953 98.908C145.108 98.908 143.332 98.2022 141.99 96.9353C140.648 95.6684 139.842 93.9364 139.736 92.094L139.098 81.031H154.808L154.17 92.094C154.064 93.9364 153.258 95.6684 151.916 96.9353C150.574 98.2022 148.798 98.908 146.953 98.908Z" fill="#E6E6E6"/>
<path d="M155.825 83.546H138.084L137.576 78.946H156.337L155.825 83.546Z" fill="#E6E6E6"/>
<path d="M123.899 184.664C176.969 184.664 219.99 182.151 219.99 179.052C219.99 175.953 176.969 173.44 123.899 173.44C70.8294 173.44 27.808 175.953 27.808 179.052C27.808 182.151 70.8294 184.664 123.899 184.664Z" fill="#F5F5F5"/>
<path d="M125.838 173.689L121.7 174.155L120.174 164.771L124.312 164.305L125.838 173.689Z" fill="#FFC3BD"/>
<path d="M144.364 174.593H140.232L139.203 165.024H143.335L144.364 174.593Z" fill="#FFC3BD"/>
<path d="M139.892 174.112H144.929C145.011 174.112 145.091 174.14 145.155 174.191C145.219 174.242 145.263 174.314 145.281 174.394L146.097 178.067C146.116 178.156 146.115 178.249 146.093 178.338C146.072 178.427 146.03 178.51 145.972 178.58C145.914 178.651 145.84 178.708 145.757 178.746C145.674 178.784 145.584 178.804 145.492 178.802C143.871 178.774 142.692 178.679 140.648 178.679C139.392 178.679 135.604 178.809 133.87 178.809C132.17 178.809 131.909 177.094 132.619 176.939C135.803 176.239 138.202 175.282 139.219 174.366C139.404 174.201 139.644 174.11 139.892 174.112Z" fill="#263238"/>
<path d="M121.632 173.446L126.116 172.938C126.197 172.928 126.28 172.947 126.349 172.991C126.419 173.034 126.471 173.1 126.498 173.178L127.723 176.735C127.754 176.821 127.765 176.913 127.755 177.004C127.745 177.095 127.714 177.182 127.665 177.259C127.616 177.336 127.55 177.401 127.472 177.449C127.394 177.497 127.306 177.526 127.215 177.535C125.595 177.691 123.247 177.861 121.215 178.092C118.838 178.362 118.442 178.998 115.638 178.933C113.938 178.893 113.512 177.168 114.225 177.033C117.473 176.402 118.101 175.911 120.682 173.885C120.952 173.653 121.281 173.501 121.632 173.446V173.446Z" fill="#263238"/>
<path d="M125.282 53.177C123.894 54.323 122.528 55.319 121.115 56.339C119.702 57.359 118.259 58.306 116.774 59.225C115.289 60.144 113.765 61.025 112.167 61.825C110.533 62.6713 108.833 63.3811 107.082 63.947C106.619 64.095 106.168 64.217 105.648 64.347C105.14 64.4572 104.626 64.5397 104.108 64.594C103.177 64.694 102.301 64.739 101.428 64.779C99.6881 64.859 97.9811 64.857 96.2761 64.845C92.8661 64.804 89.4851 64.64 86.0891 64.34L86.0381 61.24C89.3731 60.811 92.7231 60.44 96.0381 60.067C97.6951 59.887 99.3481 59.685 100.963 59.474C101.763 59.365 102.563 59.237 103.301 59.1C103.618 59.044 103.932 58.9702 104.241 58.879C104.532 58.779 104.889 58.665 105.219 58.532C106.636 57.9566 108.012 57.2836 109.336 56.518C110.707 55.731 112.079 54.886 113.427 53.988C114.775 53.09 116.117 52.16 117.447 51.211C118.777 50.262 120.106 49.257 121.354 48.311L125.282 53.177Z" fill="#FFC3BD"/>
<path d="M129.321 49.645C128.727 53.551 120.503 59.526 120.503 59.526L114.603 52.203C117.188 49.4447 119.928 46.8368 122.811 44.392C125.466 42.222 129.967 45.395 129.321 49.645Z" fill="#407BFF"/>
<path d="M87.176 61.567L84.83 59.897L84.573 65.173C84.9276 65.1739 85.2771 65.088 85.5909 64.9227C85.9046 64.7575 86.1732 64.5179 86.373 64.225L87.176 61.567Z" fill="#FFC3BD"/>
<path d="M82.7111 58.361L82.2311 63.532L84.5751 65.173L84.8321 59.897L82.7111 58.361Z" fill="#FFC3BD"/>
<path opacity="0.2" d="M120.176 164.774L120.962 169.611L125.101 169.145L124.315 164.308L120.176 164.774Z" fill="black"/>
<path opacity="0.2" d="M143.337 165.025H139.203L139.735 169.957H143.869L143.337 165.025Z" fill="black"/>
<path d="M143.396 44.517C143.704 44.586 143.995 44.7159 144.252 44.899C144.508 45.0821 144.726 45.3147 144.892 45.5831C145.057 45.8516 145.167 46.1504 145.216 46.4621C145.264 46.7738 145.25 47.092 145.173 47.398C144.276 51.1195 143.601 54.8907 143.149 58.692C142.758 61.892 142.524 64.949 142.378 67.72C142.035 74.215 142.178 79.166 141.984 80.844C138.753 80.62 126.577 79.773 119.938 79.309C117.697 61.765 120.323 50.569 121.798 46.02C122.024 45.3112 122.447 44.6811 123.017 44.2031C123.587 43.7251 124.281 43.4188 125.018 43.32C125.864 43.209 126.876 43.102 127.944 43.039C128.318 43.015 128.697 43.002 129.083 42.994C132.217 43.0311 135.347 43.2488 138.456 43.646C139.046 43.716 139.642 43.803 140.222 43.896C141.381 44.09 142.483 44.313 143.396 44.517Z" fill="#346AE1"/>
<path d="M138.265 33.033C137.465 36.007 136.487 41.491 138.457 43.651C133.347 47.088 130.085 51.927 129.144 50.876C128.651 50.326 128.437 43.961 129.085 42.997C132.504 42.429 132.591 39.928 132.169 37.544L138.265 33.033Z" fill="#FFC3BD"/>
<path d="M138.061 42.418C138.061 42.418 129.734 46.103 128.63 54.343C130.924 51.687 135.991 48.797 135.991 48.797L133.756 48.155C135.177 47.6156 136.649 47.2196 138.149 46.973C137.901 45.835 139.223 43.565 139.223 43.565L138.061 42.418Z" fill="#407BFF"/>
<path d="M130.548 42.285C130.548 42.285 131.658 46.991 128.631 54.343C128.034 51.7769 127.216 49.2675 126.185 46.843L128.224 47.398C128.224 47.398 128.124 46.449 126.473 45.187C127.161 44.1877 128.019 43.3168 129.008 42.614L130.548 42.285Z" fill="#407BFF"/>
<path opacity="0.2" d="M135.78 34.874L132.172 37.542C132.279 38.0972 132.337 38.6607 132.345 39.226C133.645 39.126 135.505 37.843 135.736 36.508C135.849 35.9705 135.864 35.4168 135.78 34.874V34.874Z" fill="black"/>
<path d="M127.684 24.421C125.669 24.508 124.557 27.982 126.602 30.843C128.647 33.704 130.399 24.304 127.684 24.421Z" fill="#263238"/>
<path d="M137.621 27.478C137.86 31.572 138.208 33.955 136.406 36.288C133.696 39.797 128.456 38.539 126.999 34.599C125.688 31.053 125.517 24.954 129.299 22.859C130.131 22.3926 131.068 22.1467 132.022 22.1447C132.976 22.1426 133.914 22.3845 134.748 22.8474C135.582 23.3103 136.284 23.9787 136.787 24.7892C137.29 25.5997 137.577 26.5253 137.621 27.478V27.478Z" fill="#FFC3BD"/>
<path d="M138.222 30.624C137.127 29.9822 136.171 29.1291 135.41 28.1143C134.648 27.0995 134.096 25.9433 133.785 24.713C132.585 24.997 126.604 27.749 124.765 24.713C122.926 21.677 125.24 19.896 128.681 21.765C127.159 19.079 128.543 17.765 133.325 17.649C138.107 17.533 137.464 20.305 137.464 20.305C137.464 20.305 141.084 18.729 142.364 21.505C143.847 24.695 141.111 30.142 138.222 30.624Z" fill="#263238"/>
<path d="M136.646 19.572C136.69 19.572 138.457 19.997 140.493 17.948C140.128 19.696 136.966 20.86 136.966 20.86L136.646 19.572Z" fill="#263238"/>
<path d="M139.022 25.561C137.115 24.902 134.806 27.727 135.659 31.138C136.512 34.549 141.591 26.449 139.022 25.561Z" fill="#263238"/>
<path d="M140.101 30.883C139.926 31.8997 139.356 32.8058 138.515 33.403C137.394 34.185 136.384 33.291 136.315 31.997C136.257 30.833 136.769 29.023 138.076 28.756C138.363 28.7024 138.659 28.7213 138.936 28.8111C139.214 28.9008 139.465 29.0585 139.666 29.2698C139.867 29.4812 140.012 29.7394 140.088 30.0212C140.164 30.3029 140.169 30.5992 140.101 30.883V30.883Z" fill="#FFC3BD"/>
<path d="M126.152 125.863C127.145 113.777 134.429 80.32 134.429 80.32L119.935 79.309C119.935 79.309 114.346 112.52 113.918 125.124C113.472 138.229 118.743 167.355 118.743 167.355L125.694 166.564C125.694 166.564 125.155 137.999 126.152 125.863Z" fill="#407BFF"/>
<path opacity="0.5" d="M126.152 125.863C127.145 113.777 134.429 80.32 134.429 80.32L119.935 79.309C119.935 79.309 114.346 112.52 113.918 125.124C113.472 138.229 118.743 167.355 118.743 167.355L125.694 166.564C125.694 166.564 125.155 137.999 126.152 125.863Z" fill="white"/>
<path opacity="0.2" d="M128.969 91.65C126.047 95.386 125.995 108.507 127.125 118.201C128.202 111.208 129.899 102.327 131.386 94.924L128.969 91.65Z" fill="black"/>
<path d="M127.756 79.854C127.756 79.854 129.32 115.229 131.065 127.209C132.975 140.328 137.826 169.001 137.826 169.001H145.394C145.394 169.001 144.149 141.995 143.15 129.106C142.013 114.425 141.982 80.846 141.982 80.846L127.756 79.854Z" fill="#407BFF"/>
<path opacity="0.5" d="M127.756 79.854C127.756 79.854 129.32 115.229 131.065 127.209C132.975 140.328 137.826 169.001 137.826 169.001H145.394C145.394 169.001 144.149 141.995 143.15 129.106C142.013 114.425 141.982 80.846 141.982 80.846L127.756 79.854Z" fill="white"/>
<path d="M136.916 169.162H145.827V166.5L135.866 166.327L136.916 169.162Z" fill="#407BFF"/>
<path d="M118.44 168.138L126.724 167.199L126.424 164.522L117.147 165.431L118.44 168.138Z" fill="#407BFF"/>
<path d="M131.593 29.355C131.633 29.686 131.493 29.975 131.273 30.001C131.053 30.027 130.849 29.78 130.81 29.449C130.771 29.118 130.91 28.829 131.13 28.803C131.35 28.777 131.554 29.024 131.593 29.355Z" fill="#263238"/>
<path d="M127.854 29.804C127.894 30.135 127.754 30.424 127.534 30.45C127.314 30.476 127.11 30.229 127.07 29.898C127.03 29.567 127.17 29.278 127.39 29.252C127.61 29.226 127.814 29.477 127.854 29.804Z" fill="#263238"/>
<path d="M129.062 29.826C128.789 30.8847 128.372 31.9009 127.822 32.846C128.067 32.9804 128.339 33.0596 128.618 33.0781C128.897 33.0966 129.177 33.0539 129.438 32.953L129.062 29.826Z" fill="#ED847E"/>
<path d="M132.61 28.006C132.575 28.0165 132.538 28.0173 132.503 28.0083C132.468 27.9993 132.436 27.9809 132.41 27.955C132.245 27.7731 132.039 27.633 131.809 27.5461C131.579 27.4592 131.331 27.428 131.087 27.455C131.036 27.4636 130.984 27.4521 130.941 27.4231C130.898 27.394 130.869 27.3495 130.858 27.299C130.853 27.2737 130.853 27.2476 130.858 27.2222C130.863 27.1969 130.873 27.1728 130.888 27.1515C130.902 27.1301 130.921 27.1119 130.943 27.0979C130.964 27.0839 130.989 27.0744 131.014 27.07C131.322 27.03 131.636 27.0648 131.928 27.1713C132.22 27.2778 132.483 27.4529 132.693 27.682C132.729 27.7192 132.749 27.7689 132.749 27.8205C132.749 27.8721 132.729 27.9217 132.693 27.959C132.67 27.9813 132.641 27.9975 132.61 28.006V28.006Z" fill="#263238"/>
<path d="M131.173 34.273C131.645 34.1737 132.086 33.9623 132.459 33.6567C132.832 33.3511 133.126 32.9601 133.316 32.517C133.325 32.4905 133.324 32.4613 133.312 32.436C133.299 32.4107 133.278 32.3913 133.251 32.382C133.225 32.3727 133.195 32.3743 133.17 32.3865C133.145 32.3987 133.125 32.4205 133.116 32.447C132.934 32.8546 132.659 33.2138 132.312 33.4955C131.966 33.7773 131.558 33.9737 131.122 34.069C131.109 34.0721 131.096 34.0778 131.085 34.0858C131.073 34.0938 131.064 34.1039 131.056 34.1156C131.049 34.1273 131.044 34.1403 131.042 34.154C131.04 34.1676 131.04 34.1815 131.043 34.195C131.046 34.2084 131.052 34.2212 131.06 34.2324C131.068 34.2437 131.078 34.2532 131.09 34.2606C131.101 34.2679 131.114 34.2729 131.128 34.2752C131.142 34.2775 131.156 34.2771 131.169 34.274L131.173 34.273Z" fill="#263238"/>
<path d="M126.095 28.71C126.056 28.7231 126.013 28.7231 125.974 28.71C125.926 28.6921 125.886 28.6562 125.863 28.6098C125.841 28.5634 125.837 28.5101 125.853 28.461C125.947 28.1644 126.111 27.8948 126.331 27.6751C126.551 27.4554 126.821 27.292 127.118 27.199C127.168 27.1876 127.221 27.1961 127.265 27.2225C127.309 27.249 127.341 27.2914 127.355 27.341C127.366 27.3911 127.358 27.4436 127.332 27.4877C127.306 27.5318 127.263 27.5641 127.214 27.578V27.578C126.981 27.6558 126.769 27.788 126.597 27.9636C126.425 28.1392 126.296 28.3532 126.223 28.588C126.212 28.6168 126.195 28.6428 126.173 28.6639C126.151 28.6851 126.124 28.7008 126.095 28.71Z" fill="#263238"/>
<path d="M138.531 174.834C138.248 174.856 137.966 174.782 137.731 174.623C137.658 174.56 137.601 174.48 137.566 174.389C137.532 174.299 137.519 174.202 137.531 174.106C137.531 174.049 137.546 173.993 137.576 173.944C137.606 173.895 137.648 173.855 137.699 173.829C138.158 173.593 139.489 174.413 139.639 174.507C139.655 174.517 139.668 174.532 139.676 174.55C139.684 174.568 139.687 174.588 139.684 174.607C139.681 174.626 139.672 174.644 139.659 174.658C139.646 174.672 139.629 174.682 139.61 174.687C139.257 174.776 138.895 174.825 138.531 174.834V174.834ZM137.917 173.979C137.873 173.977 137.83 173.985 137.79 174.003C137.77 174.014 137.753 174.031 137.742 174.051C137.731 174.072 137.726 174.095 137.728 174.118C137.719 174.184 137.727 174.25 137.75 174.312C137.773 174.374 137.811 174.429 137.861 174.473C138.323 174.684 138.847 174.71 139.328 174.547C138.897 174.268 138.416 174.075 137.912 173.979H137.917Z" fill="#407BFF"/>
<path d="M139.584 174.689C139.568 174.689 139.551 174.685 139.537 174.677C139.11 174.445 138.283 173.539 138.37 173.077C138.384 173.005 138.423 172.94 138.48 172.893C138.536 172.846 138.607 172.82 138.681 172.82C138.755 172.811 138.831 172.817 138.903 172.839C138.975 172.861 139.041 172.897 139.098 172.946C139.578 173.339 139.677 174.531 139.68 174.581C139.681 174.599 139.678 174.616 139.67 174.632C139.662 174.648 139.651 174.661 139.636 174.671C139.621 174.682 139.603 174.688 139.584 174.689ZM138.75 173.014H138.705C138.578 173.03 138.567 173.088 138.562 173.114C138.51 173.386 139.037 174.07 139.462 174.393C139.434 173.92 139.264 173.467 138.974 173.093C138.911 173.041 138.832 173.013 138.75 173.014V173.014Z" fill="#407BFF"/>
<path d="M121.296 174.057L121.28 174.064C120.633 174.271 119.475 174.564 118.98 174.218C118.907 174.167 118.847 174.1 118.806 174.021C118.765 173.942 118.744 173.855 118.744 173.766C118.74 173.712 118.75 173.659 118.773 173.61C118.796 173.562 118.831 173.52 118.875 173.489C119.34 173.162 121.087 173.805 121.285 173.88C121.302 173.887 121.317 173.899 121.327 173.914C121.338 173.929 121.344 173.947 121.345 173.966C121.346 173.984 121.342 174.002 121.334 174.019C121.325 174.035 121.312 174.049 121.296 174.058V174.057ZM119.013 173.633L118.99 173.647C118.972 173.659 118.958 173.676 118.949 173.695C118.94 173.715 118.937 173.737 118.94 173.758C118.939 173.817 118.952 173.875 118.978 173.927C119.005 173.979 119.044 174.024 119.092 174.058C119.7 174.248 120.356 174.212 120.94 173.958C120.335 173.689 119.672 173.578 119.012 173.633H119.013Z" fill="#407BFF"/>
<path d="M121.296 174.057C121.273 174.069 121.245 174.071 121.22 174.063C120.7 173.897 119.62 173.12 119.64 172.648C119.645 172.537 119.708 172.392 119.972 172.335C120.067 172.314 120.166 172.312 120.262 172.33C120.358 172.349 120.449 172.386 120.53 172.441C120.954 172.846 121.239 173.374 121.346 173.951C121.349 173.968 121.348 173.985 121.343 174.001C121.338 174.018 121.329 174.032 121.316 174.044C121.31 174.049 121.303 174.053 121.296 174.057V174.057ZM119.905 172.567C119.838 172.603 119.836 172.645 119.835 172.661C119.821 172.945 120.567 173.567 121.108 173.813C121.008 173.352 120.769 172.933 120.423 172.613C120.364 172.572 120.297 172.544 120.226 172.53C120.156 172.517 120.083 172.518 120.013 172.534C119.976 172.54 119.939 172.551 119.905 172.567Z" fill="#407BFF"/>
<path d="M146.882 50.477C146.777 52.091 146.587 53.594 146.39 55.146C146.193 56.698 145.928 58.219 145.637 59.754C145.061 62.8892 144.211 65.9677 143.096 68.954L142.605 70.111L142.481 70.4L142.45 70.472L142.399 70.582L142.255 70.867C142.065 71.2133 141.836 71.5373 141.574 71.833C141.143 72.3181 140.639 72.7331 140.08 73.063C139.627 73.3324 139.153 73.5629 138.661 73.752C137.023 74.3428 135.31 74.7003 133.573 74.814C130.418 75.0497 127.247 74.9313 124.119 74.461L124.232 71.361L126.418 71.114C127.151 71.027 127.88 70.914 128.605 70.814C130.052 70.601 131.484 70.363 132.849 70.046C134.112 69.789 135.339 69.3821 136.505 68.834C136.819 68.7019 137.095 68.4915 137.305 68.223C137.318 68.152 137.16 68.463 137.346 67.966L137.673 67.01C138.474 64.2693 139.087 61.4772 139.507 58.653C139.742 57.215 139.943 55.764 140.137 54.309C140.331 52.854 140.491 51.369 140.644 49.974L146.882 50.477Z" fill="#FFC3BD"/>
<path d="M147.242 47.481C149.265 50.874 147.542 61.538 147.542 61.538L136.942 59.579C136.942 59.579 136.368 53.479 138.386 48.785C140.577 43.676 144.791 43.37 147.242 47.481Z" fill="#407BFF"/>
<path d="M121.264 80.952L115.639 54.788C115.369 53.6707 114.743 52.6715 113.856 51.941C112.968 51.2104 111.867 50.7882 110.719 50.738H89.166C90.3145 50.788 91.4156 51.2101 92.3033 51.9407C93.1909 52.6712 93.817 53.6705 94.087 54.788L99.712 80.952C99.982 82.0693 100.608 83.0685 101.495 83.799C102.383 84.5295 103.484 84.9517 104.632 85.002H126.184C125.036 84.9517 123.935 84.5295 123.047 83.799C122.16 83.0685 121.534 82.0693 121.264 80.952V80.952Z" fill="#263238"/>
<path opacity="0.7" d="M121.264 80.952L115.639 54.788C115.369 53.6707 114.743 52.6715 113.856 51.941C112.968 51.2104 111.867 50.7882 110.719 50.738H89.166C90.3145 50.788 91.4156 51.2101 92.3033 51.9407C93.1909 52.6712 93.817 53.6705 94.087 54.788L99.712 80.952C99.982 82.0693 100.608 83.0685 101.495 83.799C102.383 84.5295 103.484 84.9517 104.632 85.002H126.184C125.036 84.9517 123.935 84.5295 123.047 83.799C122.16 83.0685 121.534 82.0693 121.264 80.952V80.952Z" fill="#407BFF"/>
<path d="M89.166 50.738H110.718C109.615 50.7586 108.557 51.1816 107.743 51.9274C106.93 52.6732 106.416 53.6905 106.3 54.788L100.709 115.588C100.592 116.685 100.079 117.703 99.2658 118.448C98.4523 119.194 97.3944 119.617 96.291 119.638H82.839C82.3209 119.648 81.8066 119.546 81.3307 119.341C80.8549 119.136 80.4283 118.831 80.0797 118.448C79.7311 118.064 79.4684 117.611 79.3093 117.118C79.1502 116.624 79.0982 116.103 79.157 115.588L84.749 54.788C84.8653 53.6906 85.3783 52.6735 86.1917 51.9277C87.005 51.182 88.0627 50.7589 89.166 50.738Z" fill="#407BFF"/>
<path d="M92.609 115.587C92.5503 116.102 92.6022 116.623 92.7613 117.117C92.9204 117.61 93.1831 118.063 93.5317 118.447C93.8804 118.83 94.3069 119.135 94.7828 119.34C95.2586 119.545 95.7729 119.647 96.2911 119.637H74.7391C74.2208 119.647 73.7065 119.546 73.2306 119.34C72.7546 119.135 72.328 118.831 71.9793 118.447C71.6307 118.064 71.368 117.61 71.209 117.117C71.0499 116.623 70.9981 116.102 71.057 115.587H92.609Z" fill="#263238"/>
<path opacity="0.7" d="M92.609 115.587C92.5503 116.102 92.6022 116.623 92.7613 117.117C92.9204 117.61 93.1831 118.063 93.5317 118.447C93.8804 118.83 94.3069 119.135 94.7828 119.34C95.2586 119.545 95.7729 119.647 96.2911 119.637H74.7391C74.2208 119.647 73.7065 119.546 73.2306 119.34C72.7546 119.135 72.328 118.831 71.9793 118.447C71.6307 118.064 71.368 117.61 71.209 117.117C71.0499 116.623 70.9981 116.102 71.057 115.587H92.609Z" fill="#407BFF"/>
<g opacity="0.5">
<path opacity="0.5" d="M102.565 57.55H87.981C87.8684 57.5515 87.7568 57.5291 87.6535 57.4842C87.5502 57.4393 87.4577 57.3729 87.382 57.2895C87.3064 57.2061 87.2493 57.1075 87.2147 57.0003C87.18 56.8932 87.1686 56.7799 87.181 56.668V56.668C87.207 56.4292 87.3189 56.2081 87.4959 56.0458C87.6729 55.8835 87.9029 55.7911 88.143 55.786H102.725C102.838 55.7844 102.949 55.8068 103.053 55.8518C103.156 55.8967 103.248 55.963 103.324 56.0464C103.4 56.1299 103.457 56.2284 103.491 56.3356C103.526 56.4427 103.538 56.556 103.525 56.668V56.668C103.499 56.9064 103.388 57.1273 103.211 57.2895C103.034 57.4518 102.805 57.5443 102.565 57.55V57.55Z" fill="white"/>
<path opacity="0.5" d="M102.131 62.321H87.5471C87.4345 62.3225 87.3228 62.3001 87.2196 62.2552C87.1163 62.2102 87.0237 62.1439 86.9481 62.0605C86.8724 61.9771 86.8154 61.8785 86.7807 61.7713C86.7461 61.6642 86.7346 61.5509 86.7471 61.4389C86.773 61.2002 86.8849 60.979 87.062 60.8167C87.239 60.6544 87.469 60.5621 87.7091 60.557H102.293C102.406 60.5554 102.517 60.5778 102.621 60.6227C102.724 60.6677 102.816 60.734 102.892 60.8174C102.968 60.9009 103.025 60.9994 103.059 61.1066C103.094 61.2137 103.106 61.327 103.093 61.4389V61.4389C103.067 61.6778 102.956 61.8991 102.778 62.0614C102.601 62.2238 102.371 62.316 102.131 62.321V62.321Z" fill="white"/>
<path opacity="0.5" d="M98.1221 67.0919H87.1131C87.0005 67.0935 86.8889 67.0711 86.7856 67.0262C86.6823 66.9812 86.5898 66.9149 86.5141 66.8315C86.4385 66.748 86.3814 66.6495 86.3467 66.5423C86.3121 66.4352 86.3006 66.3219 86.3131 66.2099V66.2099C86.3391 65.9712 86.451 65.75 86.628 65.5877C86.805 65.4254 87.035 65.3331 87.2751 65.328H98.2841C98.3967 65.3264 98.5084 65.3488 98.6117 65.3937C98.7149 65.4386 98.8075 65.505 98.8832 65.5884C98.9588 65.6719 99.0159 65.7704 99.0505 65.8776C99.0852 65.9847 99.0966 66.098 99.0841 66.2099V66.2099C99.0582 66.4487 98.9463 66.6699 98.7693 66.8322C98.5923 66.9945 98.3622 67.0868 98.1221 67.0919V67.0919Z" fill="white"/>
<path opacity="0.5" d="M90.4131 71.862H86.6801C86.5675 71.8635 86.4559 71.8411 86.3526 71.7962C86.2493 71.7513 86.1568 71.6849 86.0811 71.6015C86.0055 71.5181 85.9484 71.4195 85.9138 71.3124C85.8791 71.2052 85.8677 71.0919 85.8801 70.98V70.98C85.9058 70.7413 86.0175 70.5202 86.1944 70.3578C86.3713 70.1955 86.6012 70.1032 86.8411 70.098H90.5752C90.6878 70.0964 90.7994 70.1189 90.9027 70.1638C91.006 70.2087 91.0985 70.2751 91.1742 70.3585C91.2498 70.4419 91.3069 70.5404 91.3415 70.6476C91.3762 70.7548 91.3876 70.8681 91.3751 70.98V70.98C91.3492 71.2187 91.2373 71.4399 91.0603 71.6022C90.8833 71.7645 90.6533 71.8568 90.4131 71.862V71.862Z" fill="white"/>
<path opacity="0.5" d="M100.829 76.633H86.2411C86.1284 76.6345 86.0168 76.6121 85.9135 76.5672C85.8103 76.5223 85.7177 76.4559 85.642 76.3725C85.5664 76.2891 85.5093 76.1905 85.4747 76.0834C85.44 75.9762 85.4286 75.8629 85.4411 75.751V75.751C85.467 75.5122 85.5789 75.291 85.7559 75.1288C85.9329 74.9665 86.163 74.8741 86.4031 74.869H100.987C101.1 74.8674 101.211 74.8899 101.315 74.9348C101.418 74.9797 101.51 75.046 101.586 75.1295C101.662 75.2129 101.719 75.3114 101.753 75.4186C101.788 75.5257 101.8 75.6391 101.787 75.751V75.751C101.761 75.9891 101.65 76.2097 101.474 76.3719C101.298 76.5341 101.068 76.6269 100.829 76.633V76.633Z" fill="white"/>
<path opacity="0.5" d="M94.6521 81.404H85.8121C85.6995 81.4055 85.5878 81.3831 85.4846 81.3382C85.3813 81.2933 85.2887 81.2269 85.2131 81.1435C85.1374 81.0601 85.0804 80.9615 85.0457 80.8544C85.0111 80.7472 84.9996 80.6339 85.0121 80.522V80.522C85.0378 80.2833 85.1495 80.0622 85.3264 79.8998C85.5032 79.7375 85.7331 79.6451 85.9731 79.64H94.8131C94.9257 79.6384 95.0374 79.6609 95.1406 79.7058C95.2439 79.7507 95.3365 79.817 95.4121 79.9005C95.4878 79.9839 95.5448 80.0824 95.5795 80.1896C95.6141 80.2967 95.6256 80.41 95.6131 80.522V80.522C95.5872 80.7606 95.4754 80.9816 95.2986 81.1439C95.1218 81.3061 94.892 81.3986 94.6521 81.404V81.404Z" fill="white"/>
<path opacity="0.5" d="M99.9621 86.1739H85.3781C85.2655 86.1755 85.1539 86.1531 85.0506 86.1082C84.9473 86.0633 84.8548 85.9969 84.7791 85.9135C84.7035 85.83 84.6464 85.7315 84.6118 85.6243C84.5771 85.5172 84.5657 85.4039 84.5781 85.292V85.292C84.6041 85.0532 84.716 84.832 84.893 84.6697C85.07 84.5074 85.3 84.4151 85.5401 84.41H100.125C100.238 84.4084 100.349 84.4308 100.453 84.4758C100.556 84.5207 100.648 84.587 100.724 84.6704C100.8 84.7539 100.857 84.8524 100.892 84.9596C100.926 85.0667 100.938 85.18 100.925 85.292V85.292C100.899 85.5309 100.787 85.7522 100.61 85.9145C100.433 86.0768 100.202 86.169 99.9621 86.1739V86.1739Z" fill="white"/>
<path opacity="0.5" d="M95.9531 90.945H84.9441C84.8315 90.9465 84.7198 90.9241 84.6165 90.8792C84.5132 90.8343 84.4207 90.7679 84.345 90.6845C84.2694 90.6011 84.2123 90.5025 84.1777 90.3953C84.143 90.2882 84.1316 90.1749 84.1441 90.063V90.063C84.17 89.8242 84.2819 89.603 84.4589 89.4407C84.6359 89.2785 84.866 89.1861 85.1061 89.181H96.1151C96.2277 89.1794 96.3393 89.2018 96.4426 89.2467C96.5459 89.2917 96.6384 89.358 96.7141 89.4415C96.7897 89.5249 96.8468 89.6234 96.8814 89.7306C96.9161 89.8377 96.9275 89.951 96.9151 90.063V90.063C96.8891 90.3017 96.7772 90.5229 96.6002 90.6852C96.4232 90.8475 96.1932 90.9398 95.9531 90.945V90.945Z" fill="white"/>
<path opacity="0.5" d="M88.2442 95.715H84.5081C84.3955 95.7165 84.2839 95.6941 84.1806 95.6492C84.0773 95.6043 83.9848 95.5379 83.9091 95.4545C83.8335 95.3711 83.7764 95.2725 83.7418 95.1654C83.7071 95.0582 83.6957 94.9449 83.7081 94.833V94.833C83.7341 94.5942 83.846 94.3731 84.023 94.2108C84.2 94.0485 84.4301 93.9561 84.6702 93.951H88.4082C88.5208 93.9494 88.6324 93.9719 88.7357 94.0168C88.839 94.0617 88.9315 94.128 89.0072 94.2115C89.0828 94.2949 89.1399 94.3934 89.1745 94.5006C89.2092 94.6077 89.2206 94.7211 89.2081 94.833C89.1822 95.0721 89.07 95.2935 88.8925 95.4558C88.7151 95.6182 88.4846 95.7103 88.2442 95.715V95.715Z" fill="white"/>
<path opacity="0.5" d="M98.6601 100.487H84.0761C83.9635 100.489 83.8519 100.466 83.7486 100.421C83.6453 100.376 83.5528 100.31 83.4771 100.226C83.4015 100.143 83.3444 100.045 83.3098 99.9374C83.2751 99.8302 83.2636 99.7169 83.2761 99.605V99.605C83.3021 99.3662 83.414 99.1451 83.591 98.9828C83.768 98.8205 83.998 98.7281 84.2381 98.723H98.8221C98.9348 98.7214 99.0464 98.7439 99.1497 98.7888C99.253 98.8337 99.3455 98.9 99.4212 98.9835C99.4968 99.0669 99.5539 99.1654 99.5885 99.2726C99.6232 99.3798 99.6346 99.4931 99.6221 99.605V99.605C99.5962 99.8437 99.4843 100.065 99.3073 100.227C99.1303 100.389 98.9002 100.482 98.6601 100.487V100.487Z" fill="white"/>
<path opacity="0.5" d="M92.483 105.257H83.643C83.5304 105.259 83.4188 105.236 83.3155 105.191C83.2122 105.146 83.1197 105.08 83.044 104.996C82.9684 104.913 82.9113 104.815 82.8767 104.707C82.842 104.6 82.8305 104.487 82.843 104.375V104.375C82.8688 104.136 82.9806 103.915 83.1577 103.753C83.3347 103.59 83.5649 103.498 83.805 103.493H92.644C92.7567 103.491 92.8683 103.514 92.9716 103.559C93.0748 103.604 93.1674 103.67 93.2431 103.753C93.3187 103.837 93.3758 103.935 93.4104 104.043C93.4451 104.15 93.4565 104.263 93.444 104.375V104.375C93.4181 104.614 93.3064 104.835 93.1296 104.997C92.9528 105.159 92.723 105.252 92.483 105.257V105.257Z" fill="white"/>
<path opacity="0.5" d="M97.7921 110.028H83.2081C83.0955 110.03 82.9838 110.007 82.8806 109.962C82.7773 109.917 82.6847 109.851 82.6091 109.768C82.5334 109.684 82.4764 109.586 82.4417 109.478C82.4071 109.371 82.3956 109.258 82.4081 109.146V109.146C82.434 108.907 82.5459 108.686 82.723 108.524C82.9 108.361 83.13 108.269 83.3701 108.264H97.9521C98.0647 108.262 98.1764 108.285 98.2796 108.33C98.3829 108.375 98.4755 108.441 98.5511 108.524C98.6268 108.608 98.6838 108.706 98.7185 108.814C98.7531 108.921 98.7646 109.034 98.7521 109.146V109.146C98.7262 109.384 98.6146 109.605 98.438 109.768C98.2614 109.93 98.0319 110.022 97.7921 110.028Z" fill="white"/>
</g>
<path d="M125.503 71.699L122.337 68.948L120.853 74.012C120.853 74.012 124.069 75.756 125.183 74.155L125.503 71.699Z" fill="#FFC3BD"/>
<path d="M118.888 68.75L117.858 72.994L120.85 74.014L122.334 68.949L118.888 68.75Z" fill="#FFC3BD"/>
</svg>
