<svg width="15" height="20" viewBox="0 0 15 20" fill="none" xmlns="http://www.w3.org/2000/svg">
<g clip-path="url(#clip0_352_1505)">
<path d="M12.5347 4.48947L12.5217 4.48183L12.4917 4.47266C12.5038 4.48286 12.5189 4.48878 12.5347 4.48947Z" fill="#15153A"/>
<path d="M12.7247 5.84375L12.7102 5.84784L12.7247 5.84375Z" fill="#15153A"/>
<path d="M12.5385 4.47961C12.5369 4.47941 12.5354 4.47904 12.5339 4.47852C12.5338 4.47953 12.5338 4.48056 12.5339 4.48158C12.5356 4.48136 12.5371 4.48067 12.5385 4.47961Z" fill="#15153A"/>
<path d="M12.7118 5.83551L12.7337 5.82303L12.7418 5.81845L12.7492 5.81055C12.7353 5.81657 12.7227 5.82502 12.7118 5.83551Z" fill="#15153A"/>
<path d="M12.5713 4.51656L12.5499 4.49618L12.5354 4.48828C12.5432 4.50205 12.5561 4.51221 12.5713 4.51656Z" fill="#15153A"/>
<path d="M7.18567 17.6465C7.16855 17.6539 7.15358 17.6654 7.14209 17.6801L7.15557 17.6715C7.16474 17.6631 7.17778 17.6531 7.18567 17.6465Z" fill="#15153A"/>
<path d="M10.3156 17.0297C10.3156 17.0103 10.3062 17.0139 10.3085 17.0827C10.3085 17.0771 10.3107 17.0715 10.3118 17.0662C10.3131 17.0539 10.3141 17.0419 10.3156 17.0297Z" fill="#15153A"/>
<path d="M9.99073 17.6465C9.9736 17.6539 9.95863 17.6654 9.94714 17.6801L9.96068 17.6715C9.96985 17.6631 9.98283 17.6531 9.99073 17.6465Z" fill="#15153A"/>
<path d="M4.98434 17.7948C4.97136 17.7835 4.95547 17.7761 4.93848 17.7734C4.95224 17.7801 4.96599 17.7867 4.97517 17.7918L4.98434 17.7948Z" fill="#15153A"/>
<path d="M4.49111 17.3188C4.48908 17.2987 4.48292 17.2793 4.47302 17.2617C4.48003 17.28 4.4859 17.2987 4.4906 17.3178L4.49111 17.3188Z" fill="#15153A"/>
<path d="M7.81777 8.82758C7.13752 9.1188 6.36551 9.44901 5.36496 9.44901C4.9464 9.44813 4.52988 9.39073 4.12671 9.27827L4.8187 16.3829C4.8432 16.6799 4.97848 16.9568 5.19768 17.1586C5.41687 17.3604 5.70396 17.4725 6.00193 17.4724C6.00193 17.4724 6.98307 17.5233 7.31047 17.5233C7.66289 17.5233 8.71943 17.4724 8.71943 17.4724C9.01738 17.4724 9.3044 17.3603 9.52353 17.1585C9.74266 16.9567 9.87794 16.6798 9.90241 16.3829L10.6436 8.532C10.3124 8.41887 9.97808 8.34375 9.60125 8.34375C8.94955 8.34347 8.4244 8.56796 7.81777 8.82758Z" fill="#15153A"/>
<path d="M1.98352 5.80273L1.99524 5.81367L2.00289 5.81826C1.997 5.81246 1.99051 5.80721 1.98352 5.80273Z" fill="#15153A"/>
<path d="M13.8441 5.14395L13.7399 4.61833C13.6464 4.14673 13.4342 3.70111 12.9501 3.53066C12.7949 3.47614 12.6189 3.45269 12.4999 3.33983C12.3809 3.22696 12.3457 3.05167 12.3182 2.88912C12.2673 2.59076 12.2194 2.29215 12.1671 1.99431C12.1221 1.73825 12.0864 1.4506 11.9689 1.21569C11.816 0.900269 11.4988 0.715807 11.1834 0.593764C11.0218 0.533428 10.8568 0.482388 10.6894 0.440893C9.90132 0.232989 9.07281 0.156554 8.26208 0.112986C7.28895 0.0592904 6.31328 0.075468 5.34248 0.161395C4.61992 0.227129 3.85888 0.306622 3.17224 0.556566C2.92127 0.648035 2.66266 0.757843 2.47183 0.951734C2.23768 1.18996 2.16125 1.55838 2.33221 1.85545C2.45374 2.06642 2.65961 2.21547 2.87796 2.31407C3.16237 2.44111 3.4594 2.53779 3.7641 2.60248C4.61253 2.79 5.49128 2.86364 6.35808 2.89497C7.31878 2.93375 8.28102 2.90232 9.23714 2.80096C9.47356 2.77497 9.70959 2.7438 9.94518 2.70745C10.2226 2.66491 10.4007 2.30209 10.3189 2.04934C10.2211 1.74717 9.95816 1.62997 9.66082 1.67557C9.61701 1.68246 9.57343 1.68883 9.52963 1.69519L9.49803 1.69978C9.39728 1.71252 9.29658 1.72441 9.19582 1.73545C8.9878 1.75787 8.77916 1.77622 8.57009 1.79049C8.10178 1.8231 7.63225 1.83813 7.1629 1.83889C6.70177 1.83889 6.24036 1.8259 5.78021 1.79558C5.57026 1.78182 5.36083 1.76433 5.15191 1.74309C5.05687 1.73316 4.96209 1.72271 4.86732 1.71099L4.77712 1.69953L4.7575 1.69672L4.664 1.68322C4.47291 1.65443 4.28182 1.62131 4.09277 1.5813C4.07369 1.57707 4.05663 1.56646 4.0444 1.55122C4.03217 1.53598 4.0255 1.51702 4.0255 1.49748C4.0255 1.47794 4.03217 1.45899 4.0444 1.44375C4.05663 1.42851 4.07369 1.41789 4.09277 1.41366H4.09634C4.26016 1.37875 4.42526 1.34895 4.59087 1.32296C4.64608 1.31429 4.70145 1.3058 4.75699 1.29747H4.75852C4.86222 1.2906 4.96642 1.272 5.06961 1.25977C5.96738 1.16638 6.87052 1.13455 7.77261 1.16448C8.2106 1.17722 8.6483 1.20295 9.08424 1.24729C9.17798 1.25697 9.27128 1.26716 9.36452 1.27862C9.4002 1.28295 9.43611 1.28805 9.47201 1.29238L9.54438 1.30283C9.75533 1.33425 9.96518 1.37238 10.174 1.41723C10.4833 1.48449 10.8805 1.5064 11.0181 1.84527C11.0619 1.95278 11.0818 2.07228 11.106 2.18515L11.1368 2.3291C11.1376 2.33168 11.1382 2.33432 11.1385 2.337C11.2115 2.67671 11.2844 3.01642 11.3575 3.35613C11.3628 3.38123 11.3629 3.40716 11.3578 3.43231C11.3527 3.45745 11.3424 3.48127 11.3277 3.50229C11.313 3.5233 11.2941 3.54105 11.2722 3.55444C11.2503 3.56783 11.2259 3.57656 11.2005 3.58009H11.1984L11.1538 3.5862L11.1098 3.59207C10.9702 3.61024 10.8304 3.62722 10.6904 3.64302C10.4147 3.67444 10.1386 3.70162 9.8621 3.72455C9.3126 3.77024 8.76204 3.80022 8.21032 3.81449C7.92921 3.82196 7.64822 3.82545 7.36728 3.82494C6.24898 3.82405 5.13173 3.75906 4.02092 3.63028C3.90066 3.61601 3.78041 3.60073 3.66015 3.58518C3.7534 3.59716 3.59238 3.57601 3.55976 3.57143C3.48333 3.56072 3.40689 3.5496 3.33045 3.53805C3.07389 3.49957 2.81885 3.45219 2.56279 3.41066C2.25323 3.3597 1.95717 3.38518 1.67716 3.53805C1.44732 3.66383 1.26129 3.85669 1.1439 4.09093C1.02313 4.34062 0.987204 4.61247 0.933193 4.88076C0.879177 5.14905 0.795098 5.43772 0.826947 5.71315C0.895483 6.30756 1.31104 6.79062 1.90876 6.89867C2.47107 7.00058 3.03643 7.08311 3.60333 7.15343C5.83022 7.42619 8.07996 7.45878 10.3138 7.25075C10.4957 7.2338 10.6774 7.21524 10.8588 7.19524C10.9155 7.189 10.9728 7.19552 11.0266 7.21435C11.0804 7.23313 11.1294 7.26374 11.1698 7.30389C11.2102 7.34405 11.2412 7.39277 11.2604 7.44641C11.2796 7.5001 11.2865 7.55738 11.2807 7.61411L11.2242 8.1639C11.1102 9.27495 10.9963 10.3859 10.8822 11.4967C10.7634 12.6633 10.6437 13.8298 10.5232 14.9962C10.4893 15.3247 10.4553 15.6531 10.4213 15.9815C10.3887 16.3048 10.3842 16.6383 10.3227 16.9578C10.226 17.4602 9.8858 17.7687 9.38949 17.8817C8.93477 17.9851 8.47027 18.0394 8.00395 18.0437C7.48698 18.0465 6.97028 18.0236 6.45336 18.0263C5.90148 18.0294 5.22554 17.9784 4.79954 17.5677C4.42526 17.207 4.37354 16.6421 4.32259 16.1537C4.25464 15.507 4.1873 14.8605 4.12054 14.214L3.74601 10.6193L3.50371 8.29332C3.49963 8.25487 3.49556 8.21692 3.49173 8.1782C3.46269 7.90074 3.26625 7.62914 2.95669 7.64311C2.69171 7.65488 2.39056 7.88008 2.42164 8.1782L2.60126 9.90257L2.97274 13.4695C3.07856 14.4827 3.18412 15.4961 3.28943 16.5096C3.30982 16.7038 3.32892 16.8984 3.35033 17.0926C3.46676 18.1535 4.27698 18.7252 5.28032 18.8863C5.86632 18.9805 6.46662 18.9999 7.06126 19.0096C7.8236 19.0218 8.59351 19.0511 9.34336 18.913C10.4545 18.7092 11.2881 17.9672 11.4071 16.8164C11.4411 16.4841 11.4751 16.1518 11.509 15.8194C11.622 14.7201 11.7348 13.6207 11.8474 12.5212L12.2158 8.92878L12.3847 7.28235C12.3931 7.20071 12.4276 7.12398 12.483 7.06344C12.5384 7.0029 12.6119 6.96186 12.6925 6.94628C13.0102 6.88436 13.3139 6.77864 13.5399 6.53686C13.8997 6.1519 13.9713 5.64995 13.8441 5.14395ZM1.89245 5.49912C1.8973 5.49683 1.88838 5.53837 1.88456 5.55771C1.88379 5.52843 1.88532 5.50244 1.89245 5.49912ZM1.92329 5.73762C1.92583 5.7358 1.93347 5.74601 1.94137 5.75822C1.9294 5.74701 1.92176 5.73861 1.92303 5.73762H1.92329ZM1.9536 5.77761C1.96456 5.79623 1.97042 5.80794 1.9536 5.77761V5.77761ZM2.01449 5.82705H2.01602C2.01602 5.82882 2.01883 5.83058 2.01985 5.83241C2.01816 5.83042 2.01628 5.82865 2.01424 5.82705H2.01449ZM12.6777 5.75314C12.5636 5.86168 12.3916 5.91212 12.2217 5.93736C10.3159 6.22018 8.38233 6.36336 6.45563 6.30016C5.07675 6.25304 3.71238 6.09992 2.34724 5.90703C2.21348 5.8882 2.06851 5.86373 1.97654 5.76513C1.80328 5.57914 1.88838 5.20459 1.93347 4.97987C1.97475 4.77401 2.05373 4.49961 2.29858 4.4703C2.68075 4.42546 3.12459 4.58674 3.50269 4.64407C3.9579 4.71354 4.41482 4.76917 4.87343 4.81095C6.83069 4.9893 8.82081 4.96153 10.7694 4.70063C11.1246 4.6529 11.4784 4.59744 11.8311 4.53426C12.1452 4.47795 12.4935 4.37221 12.6833 4.69757C12.8135 4.91923 12.8309 5.2158 12.8107 5.46625C12.8045 5.57538 12.7569 5.67802 12.6775 5.75314H12.6777Z" fill="#15153A"/>
</g>
<defs>
<clipPath id="clip0_352_1505">
<rect width="14.5" height="19.3333" fill="white"/>
</clipPath>
</defs>
</svg>
