<svg width="17" height="17" viewBox="0 0 17 17" fill="none" xmlns="http://www.w3.org/2000/svg">
<g clip-path="url(#clip0_352_1536)">
<path d="M8.50006 17.0007C6.81755 17.0012 5.1727 16.5027 3.77372 15.5682C2.37474 14.6337 1.28453 13.3053 0.641085 11.7511C-0.00235834 10.1969 -0.170105 8.48683 0.159076 6.83728C0.488256 5.18773 1.29957 3.67291 2.49031 2.48454C3.68106 1.29617 5.19769 0.487672 6.84825 0.161424C8.49882 -0.164823 10.2091 0.00583211 11.7626 0.651776C13.3161 1.29772 14.643 2.38993 15.5753 3.79013C16.5076 5.19033 17.0035 6.83558 17.0001 8.51763C16.9969 10.769 16.0999 12.9271 14.5061 14.5177C12.9123 16.1083 10.7521 17.0014 8.50006 17.0007ZM7.99188 7.99828V5.4787C7.03006 5.44678 6.07823 5.39293 5.13172 5.27456C4.91904 6.1686 4.79979 7.08229 4.77587 8.00095L7.99188 7.99828ZM9.0069 5.48071V7.98965H12.2196C12.2196 7.21761 12.0307 5.81784 11.8591 5.29982C10.9186 5.40356 9.97071 5.46209 9.0069 5.48071ZM2.06801 4.63686C1.45481 5.65604 1.09512 6.80738 1.01908 7.99429H3.77747C3.8038 7.02919 3.92364 6.06894 4.13532 5.12696C3.43616 5.00937 2.74554 4.84565 2.06801 4.63686ZM12.8681 5.15887C13.0776 6.08933 13.1977 7.03768 13.2266 7.99098H15.9817C15.9065 6.82617 15.5571 5.69559 14.962 4.69138C14.2742 4.88973 13.575 5.04586 12.8681 5.15887ZM15.9817 9.00704H13.2227C13.1924 9.95433 13.071 10.8965 12.8601 11.8205C13.5699 11.9392 14.271 12.1052 14.9587 12.3173C15.5558 11.3099 15.9063 10.1756 15.9817 9.00704ZM11.8657 11.6703C12.0745 10.798 12.1939 9.9068 12.2223 9.01038H9.00557V11.4847C9.96153 11.4969 10.9162 11.5588 11.8657 11.6703ZM7.99188 11.4761V9.00837H4.77653C4.80506 9.90079 4.92428 10.788 5.13238 11.6563C6.08174 11.5463 7.03621 11.4861 7.99188 11.4761ZM1.03172 9.00704C1.02864 9.01413 1.02619 9.02148 1.02439 9.02899C1.09435 10.139 1.41525 11.2188 1.96293 12.187C2.01282 12.2767 2.06869 12.2574 2.14052 12.2361C2.48441 12.1351 2.83095 12.046 3.18215 11.9762C3.4941 11.9143 3.8054 11.8511 4.13399 11.7853C3.92621 10.8728 3.80639 9.94242 3.77614 9.00704H1.03172ZM9.00823 1.07859V4.47728C9.87293 4.45334 10.727 4.41807 11.5737 4.31899C11.5737 4.30436 11.5797 4.29905 11.5784 4.29506C11.5478 4.2126 11.5185 4.13015 11.4873 4.04836C11.168 3.21315 10.7669 2.42717 10.1317 1.78281C9.81507 1.46097 9.45455 1.20493 9.00823 1.07859ZM5.4164 12.6311C5.44101 12.6976 5.4603 12.7568 5.48292 12.8127C5.80552 13.6698 6.20728 14.4804 6.85514 15.1447C7.17707 15.4772 7.5429 15.7372 7.99121 15.8642V12.4802C7.12584 12.4855 6.27778 12.544 5.41574 12.6311H5.4164ZM5.40976 4.29772C6.28909 4.39813 7.13583 4.45066 7.99387 4.47127V1.04933C6.52255 1.6631 5.94987 2.95448 5.4091 4.29772H5.40976ZM9.00624 15.8682C9.34579 15.7677 9.65868 15.5928 9.92215 15.3562C10.7489 14.6294 11.2032 13.6732 11.581 12.6524C10.721 12.552 9.86894 12.4981 9.00624 12.4815V15.8682ZM5.77824 15.4732C5.47792 15.0654 5.21099 14.634 4.98006 14.1832C4.75589 13.7245 4.56214 13.2516 4.40005 12.7675C3.79625 12.8595 3.1982 12.9858 2.60879 13.1458C3.46817 14.2118 4.50913 14.9931 5.77758 15.4726L5.77824 15.4732ZM12.5901 12.7914C12.4331 13.27 12.2419 13.7366 12.0181 14.1878C11.788 14.6375 11.5222 15.068 11.2232 15.4752C12.4547 15.009 13.5373 14.219 14.3567 13.1884C13.7763 13.0198 13.1861 12.887 12.5894 12.7908L12.5901 12.7914ZM11.2984 1.56803C11.8652 2.36842 12.3045 3.25178 12.6007 4.18668C13.1938 4.09888 13.7811 3.97562 14.3594 3.8176C13.5233 2.79288 12.5189 2.03283 11.2977 1.56735L11.2984 1.56803ZM5.70375 1.56803C4.49584 2.03351 3.50143 2.77693 2.67731 3.77571C3.24742 3.93702 3.82641 4.06514 4.41137 4.1594C4.70266 3.2325 5.13787 2.35715 5.70109 1.56537L5.70375 1.56803Z" fill="#15153A"/>
</g>
<defs>
<clipPath id="clip0_352_1536">
<rect width="17" height="17" fill="white"/>
</clipPath>
</defs>
</svg>
